Inter-MediumItalic.ufo
<glyph name="exclam" format="2">
  <advance width="827"/>
  <unicode hex="0021"/>
  <outline>
    <contour>
      <point x="790" y="2048" type="line"/>
      <point x="461" y="2048" type="line"/>
      <point x="246" y="589" type="line"/>
      <point x="522" y="589" type="line"/>
    </contour>
    <component base="period" xOffset="16"/>
  </outline>
</glyph>
<glyph name="numbersign" format="2">
  <advance width="1794"/>
  <unicode hex="0023"/>
  <note>
1. outline
2. slant 9.4 deg
3. remove extra shapes created by outlining
</note>
  <outline>
    <contour>
      <point x="993" y="0" type="line"/>
      <point x="1233" y="0" type="line"/>
      <point x="1605" y="2048" type="line"/>
      <point x="1365" y="2048" type="line"/>
    </contour>
    <contour>
      <point x="75" y="548" type="line"/>
      <point x="1627" y="548" type="line"/>
      <point x="1671" y="788" type="line"/>
      <point x="119" y="788" type="line"/>
    </contour>
    <contour>
      <point x="273" y="0" type="line"/>
      <point x="513" y="0" type="line"/>
      <point x="885" y="2048" type="line"/>
      <point x="645" y="2048" type="line"/>
    </contour>
    <contour>
      <point x="207" y="1260" type="line"/>
      <point x="1759" y="1260" type="line"/>
      <point x="1802" y="1500" type="line"/>
      <point x="250" y="1500" type="line"/>
    </contour>
  </outline>
</glyph>
<glyph name="percent" format="2">
  <advance width="2332"/>
  <unicode hex="0025"/>
  <outline>
    <contour>
      <point x="1202" y="384" type="line" smooth="yes"/>
      <point x="1165" y="153"/>
      <point x="1278" y="-42"/>
      <point x="1549" y="-42" type="curve" smooth="yes"/>
      <point x="1816" y="-42"/>
      <point x="1996" y="153"/>
      <point x="2034" y="384" type="curve" smooth="yes"/>
      <point x="2054" y="492" type="line" smooth="yes"/>
      <point x="2092" y="724"/>
      <point x="1981" y="918"/>
      <point x="1710" y="918" type="curve" smooth="yes"/>
      <point x="1443" y="918"/>
      <point x="1260" y="723"/>
      <point x="1222" y="492" type="curve" smooth="yes"/>
    </contour>
    <contour>
      <point x="1455" y="492" type="line" smooth="yes"/>
      <point x="1474" y="607"/>
      <point x="1544" y="718"/>
      <point x="1677" y="718" type="curve" smooth="yes"/>
      <point x="1815" y="718"/>
      <point x="1839" y="607"/>
      <point x="1820" y="492" type="curve" smooth="yes"/>
      <point x="1800" y="384" type="line" smooth="yes"/>
      <point x="1782" y="269"/>
      <point x="1716" y="158"/>
      <point x="1582" y="158" type="curve" smooth="yes"/>
      <point x="1445" y="158"/>
      <point x="1417" y="270"/>
      <point x="1435" y="384" type="curve" smooth="yes"/>
    </contour>
    <contour>
      <point x="368" y="1556" type="line" smooth="yes"/>
      <point x="328" y="1325"/>
      <point x="444" y="1130"/>
      <point x="714" y="1130" type="curve" smooth="yes"/>
      <point x="982" y="1130"/>
      <point x="1159" y="1324"/>
      <point x="1199" y="1556" type="curve" smooth="yes"/>
      <point x="1215" y="1664" type="line" smooth="yes"/>
      <point x="1253" y="1896"/>
      <point x="1143" y="2090"/>
      <point x="871" y="2090" type="curve" smooth="yes"/>
      <point x="605" y="2090"/>
      <point x="422" y="1896"/>
      <point x="384" y="1664" type="curve" smooth="yes"/>
    </contour>
    <contour>
      <point x="618" y="1664" type="line" smooth="yes"/>
      <point x="636" y="1778"/>
      <point x="705" y="1890"/>
      <point x="838" y="1890" type="curve" smooth="yes"/>
      <point x="976" y="1890"/>
      <point x="1000" y="1779"/>
      <point x="982" y="1664" type="curve" smooth="yes"/>
      <point x="966" y="1556" type="line" smooth="yes"/>
      <point x="944" y="1441"/>
      <point x="881" y="1330"/>
      <point x="747" y="1330" type="curve" smooth="yes"/>
      <point x="612" y="1330"/>
      <point x="580" y="1441"/>
      <point x="602" y="1556" type="curve" smooth="yes"/>
    </contour>
    <component base="fraction" xOffset="743"/>
  </outline>
</glyph>
<glyph name="ampersand" format="2">
  <advance width="1833"/>
  <unicode hex="0026"/>
  <outline>
    <contour>
      <point x="665" y="-29" type="curve" smooth="yes"/>
      <point x="856" y="-29"/>
      <point x="1080" y="37"/>
      <point x="1241" y="176" type="curve" smooth="yes"/>
      <point x="1269" y="198"/>
      <point x="1299" y="218"/>
      <point x="1327" y="240" type="curve" smooth="yes"/>
      <point x="1455" y="342"/>
      <point x="1640" y="533"/>
      <point x="1706" y="930" type="curve"/>
      <point x="1436" y="930" type="line"/>
      <point x="1366" y="501"/>
      <point x="1011" y="224"/>
      <point x="710" y="224" type="curve" smooth="yes"/>
      <point x="487" y="224"/>
      <point x="367" y="375"/>
      <point x="396" y="552" type="curve" smooth="yes"/>
      <point x="406" y="615"/>
      <point x="480" y="740"/>
      <point x="660" y="859" type="curve" smooth="yes"/>
      <point x="1120" y="1162" type="line" smooth="yes"/>
      <point x="1309" y="1287"/>
      <point x="1437" y="1429"/>
      <point x="1469" y="1624" type="curve" smooth="yes"/>
      <point x="1511" y="1863"/>
      <point x="1351" y="2070"/>
      <point x="1035" y="2070" type="curve" smooth="yes"/>
      <point x="723" y="2070"/>
      <point x="485" y="1869"/>
      <point x="439" y="1586" type="curve" smooth="yes"/>
      <point x="399" y="1338"/>
      <point x="544" y="1159"/>
      <point x="702" y="925" type="curve" smooth="yes"/>
      <point x="1335" y="0" type="line"/>
      <point x="1673" y="0" type="line"/>
      <point x="912" y="1137" type="line" smooth="yes"/>
      <point x="805" y="1302"/>
      <point x="695" y="1442"/>
      <point x="717" y="1581" type="curve" smooth="yes"/>
      <point x="736" y="1701"/>
      <point x="855" y="1820"/>
      <point x="998" y="1820" type="curve" smooth="yes"/>
      <point x="1138" y="1820"/>
      <point x="1209" y="1712"/>
      <point x="1194" y="1616" type="curve" smooth="yes"/>
      <point x="1172" y="1494"/>
      <point x="1095" y="1420"/>
      <point x="972" y="1347" type="curve" smooth="yes"/>
      <point x="604" y="1114" type="line" smooth="yes"/>
      <point x="333" y="947"/>
      <point x="137" y="795"/>
      <point x="98" y="544" type="curve" smooth="yes"/>
      <point x="43" y="215"/>
      <point x="254" y="-29"/>
    </contour>
  </outline>
</glyph>
<glyph name="quotesingle" format="2">
  <advance width="612"/>
  <unicode hex="0027"/>
  <outline>
    <contour>
      <point x="640" y="2048" type="line"/>
      <point x="392" y="2048" type="line"/>
      <point x="272" y="1319" type="line"/>
      <point x="520" y="1319" type="line"/>
    </contour>
  </outline>
</glyph>
<glyph name="parenleft" format="2">
  <advance width="1064"/>
  <unicode hex="0028"/>
  <outline>
    <contour>
      <point x="302" y="850" type="curve" smooth="yes"/>
      <point x="218" y="348"/>
      <point x="285" y="-70"/>
      <point x="478" y="-426" type="curve"/>
      <point x="753" y="-426" type="line"/>
      <point x="599" y="-162"/>
      <point x="532" y="374"/>
      <point x="612" y="850" type="curve" smooth="yes"/>
      <point x="692" y="1325"/>
      <point x="934" y="1861"/>
      <point x="1175" y="2125" type="curve"/>
      <point x="901" y="2125" type="line"/>
      <point x="587" y="1769"/>
      <point x="385" y="1351"/>
    </contour>
  </outline>
</glyph>
<glyph name="asterisk" format="2">
  <advance width="1469"/>
  <unicode hex="002A"/>
  <note>
hexagonal angle: 30 deg
</note>
  <outline>
    <contour>
      <point x="646" y="896" type="line"/>
      <point x="863" y="896" type="line"/>
      <point x="917" y="1318" type="line"/>
      <point x="1237" y="1089" type="line"/>
      <point x="1378" y="1279" type="line"/>
      <point x="1030" y="1472" type="line"/>
      <point x="1435" y="1665" type="line"/>
      <point x="1355" y="1855" type="line"/>
      <point x="966" y="1626" type="line"/>
      <point x="1055" y="2048" type="line"/>
      <point x="838" y="2048" type="line"/>
      <point x="787" y="1626" type="line"/>
      <point x="467" y="1855" type="line"/>
      <point x="326" y="1665" type="line"/>
      <point x="674" y="1472" type="line"/>
      <point x="269" y="1279" type="line"/>
      <point x="346" y="1089" type="line"/>
      <point x="738" y="1318" type="line"/>
    </contour>
  </outline>
</glyph>
<glyph name="plus" format="2">
  <advance width="1875"/>
  <unicode hex="002B"/>
  <outline>
    <contour>
      <point x="698" y="130" type="line"/>
      <point x="968" y="130" type="line"/>
      <point x="1191" y="1482" type="line"/>
      <point x="921" y="1482" type="line"/>
    </contour>
    <contour>
      <point x="245" y="672" type="line"/>
      <point x="1597" y="672" type="line"/>
      <point x="1642" y="941" type="line"/>
      <point x="290" y="941" type="line"/>
    </contour>
  </outline>
</glyph>
<glyph name="comma" format="2">
  <advance width="810"/>
  <unicode hex="002C"/>
  <outline>
    <contour>
      <point x="510" y="280" type="line"/>
      <point x="222" y="280" type="line"/>
      <point x="192" y="168" type="line" smooth="yes"/>
      <point x="126" y="-104"/>
      <point x="14" y="-377"/>
      <point x="-30" y="-500" type="curve"/>
      <point x="182" y="-500" type="line"/>
      <point x="249" y="-369"/>
      <point x="404" y="-69"/>
      <point x="475" y="171" type="curve" smooth="yes"/>
    </contour>
  </outline>
</glyph>
<glyph name="hyphen" format="2">
  <advance width="1304"/>
  <unicode hex="002D"/>
  <outline>
    <contour>
      <point x="1144" y="995" type="line"/>
      <point x="235" y="995" type="line"/>
      <point x="192" y="736" type="line"/>
      <point x="1101" y="736" type="line"/>
    </contour>
  </outline>
</glyph>
<glyph name="period" format="2">
  <advance width="797"/>
  <unicode hex="002E"/>
  <outline>
    <contour>
      <point x="295" y="-19" type="curve" smooth="yes"/>
      <point x="402" y="-19"/>
      <point x="496" y="70"/>
      <point x="501" y="181" type="curve" smooth="yes"/>
      <point x="506" y="288"/>
      <point x="415" y="377"/>
      <point x="307" y="377" type="curve" smooth="yes"/>
      <point x="198" y="377"/>
      <point x="102" y="291"/>
      <point x="101" y="181" type="curve" smooth="yes"/>
      <point x="99" y="70"/>
      <point x="182" y="-19"/>
    </contour>
  </outline>
</glyph>
<glyph name="slash" format="2">
  <advance width="1035"/>
  <unicode hex="002F"/>
  <outline>
    <contour>
      <point x="1209" y="2144" type="line"/>
      <point x="942" y="2144" type="line"/>
      <point x="-122" y="-308" type="line"/>
      <point x="145" y="-308" type="line"/>
    </contour>
  </outline>
</glyph>
<glyph name="zero" format="2">
  <advance width="1819"/>
  <unicode hex="0030"/>
  <outline>
    <contour>
      <point x="777" y="-34" type="curve" smooth="yes"/>
      <point x="1250" y="-34"/>
      <point x="1591" y="354"/>
      <point x="1703" y="1023" type="curve" smooth="yes"/>
      <point x="1814" y="1689"/>
      <point x="1595" y="2076"/>
      <point x="1126" y="2076" type="curve" smooth="yes"/>
      <point x="656" y="2076"/>
      <point x="312" y="1690"/>
      <point x="202" y="1023" type="curve" smooth="yes"/>
      <point x="92" y="353"/>
      <point x="303" y="-34"/>
    </contour>
    <contour>
      <point x="821" y="233" type="curve" smooth="yes"/>
      <point x="546" y="233"/>
      <point x="425" y="511"/>
      <point x="510" y="1023" type="curve" smooth="yes"/>
      <point x="594" y="1533"/>
      <point x="807" y="1814"/>
      <point x="1082" y="1814" type="curve" smooth="yes"/>
      <point x="1358" y="1814"/>
      <point x="1481" y="1533"/>
      <point x="1396" y="1023" type="curve" smooth="yes"/>
      <point x="1311" y="511"/>
      <point x="1099" y="233"/>
    </contour>
  </outline>
</glyph>
<glyph name="one" format="2">
  <advance width="1331"/>
  <unicode hex="0031"/>
  <outline>
    <contour>
      <point x="1186" y="2048" type="line"/>
      <point x="885" y="2048" type="line"/>
      <point x="319" y="1714" type="line"/>
      <point x="269" y="1418" type="line"/>
      <point x="812" y="1738" type="line"/>
      <point x="824" y="1738" type="line"/>
      <point x="536" y="0" type="line"/>
      <point x="846" y="0" type="line"/>
    </contour>
  </outline>
</glyph>
<glyph name="two" format="2">
  <advance width="1727"/>
  <unicode hex="0032"/>
  <outline>
    <contour>
      <point x="69" y="0" type="line"/>
      <point x="1417" y="0" type="line"/>
      <point x="1460" y="265" type="line"/>
      <point x="539" y="265" type="line"/>
      <point x="542" y="280" type="line"/>
      <point x="1018" y="706" type="line" smooth="yes"/>
      <point x="1457" y="1084"/>
      <point x="1593" y="1266"/>
      <point x="1633" y="1495" type="curve" smooth="yes"/>
      <point x="1688" y="1824"/>
      <point x="1467" y="2076"/>
      <point x="1080" y="2076" type="curve" smooth="yes"/>
      <point x="697" y="2076"/>
      <point x="370" y="1828"/>
      <point x="308" y="1454" type="curve"/>
      <point x="602" y="1454" type="line"/>
      <point x="640" y="1674"/>
      <point x="812" y="1818"/>
      <point x="1031" y="1818" type="curve" smooth="yes"/>
      <point x="1241" y="1818"/>
      <point x="1372" y="1690"/>
      <point x="1338" y="1486" type="curve" smooth="yes"/>
      <point x="1307" y="1306"/>
      <point x="1177" y="1175"/>
      <point x="918" y="942" type="curve" smooth="yes"/>
      <point x="108" y="224" type="line"/>
    </contour>
  </outline>
</glyph>
<glyph name="three" format="2">
  <advance width="1814"/>
  <unicode hex="0033"/>
  <outline>
    <contour>
      <point x="794" y="-28" type="curve" smooth="yes"/>
      <point x="1213" y="-28"/>
      <point x="1539" y="198"/>
      <point x="1596" y="544" type="curve" smooth="yes"/>
      <point x="1639" y="804"/>
      <point x="1508" y="1007"/>
      <point x="1249" y="1049" type="curve"/>
      <point x="1249" y="1062" type="line"/>
      <point x="1474" y="1118"/>
      <point x="1641" y="1272"/>
      <point x="1678" y="1500" type="curve" smooth="yes"/>
      <point x="1727" y="1804"/>
      <point x="1519" y="2076"/>
      <point x="1118" y="2076" type="curve" smooth="yes"/>
      <point x="750" y="2076"/>
      <point x="418" y="1847"/>
      <point x="356" y="1516" type="curve"/>
      <point x="654" y="1516" type="line"/>
      <point x="688" y="1704"/>
      <point x="898" y="1818"/>
      <point x="1102" y="1818" type="curve" smooth="yes"/>
      <point x="1311" y="1818"/>
      <point x="1412" y="1699"/>
      <point x="1382" y="1520" type="curve" smooth="yes"/>
      <point x="1348" y="1312"/>
      <point x="1160" y="1174"/>
      <point x="932" y="1174" type="curve" smooth="yes"/>
      <point x="768" y="1174" type="line"/>
      <point x="726" y="922" type="line"/>
      <point x="905" y="922" type="line" smooth="yes"/>
      <point x="1189" y="922"/>
      <point x="1320" y="786"/>
      <point x="1290" y="590" type="curve" smooth="yes"/>
      <point x="1258" y="374"/>
      <point x="1044" y="238"/>
      <point x="803" y="238" type="curve" smooth="yes"/>
      <point x="581" y="238"/>
      <point x="442" y="354"/>
      <point x="461" y="534" type="curve"/>
      <point x="152" y="534" type="line"/>
      <point x="105" y="199"/>
      <point x="373" y="-28"/>
    </contour>
  </outline>
</glyph>
<glyph name="four" format="2">
  <advance width="1842"/>
  <unicode hex="0034"/>
  <outline>
    <contour>
      <point x="94" y="400" type="line"/>
      <point x="1631" y="400" type="line"/>
      <point x="1674" y="662" type="line"/>
      <point x="462" y="662" type="line"/>
      <point x="462" y="678" type="line"/>
      <point x="1262" y="1680" type="line"/>
      <point x="1387" y="1680" type="line"/>
      <point x="1448" y="2048" type="line"/>
      <point x="1251" y="2048" type="line"/>
      <point x="134" y="650" type="line"/>
    </contour>
    <contour>
      <point x="997" y="0" type="line"/>
      <point x="1292" y="0" type="line"/>
      <point x="1632" y="2048" type="line"/>
      <point x="1339" y="2048" type="line"/>
      <point x="1098" y="589" type="line"/>
      <point x="1076" y="478" type="line"/>
    </contour>
  </outline>
</glyph>
<glyph name="five" format="2">
  <advance width="1746"/>
  <unicode hex="0035"/>
  <outline>
    <contour>
      <point x="741" y="-28" type="curve" smooth="yes"/>
      <point x="1155" y="-28"/>
      <point x="1495" y="263"/>
      <point x="1560" y="662" type="curve" smooth="yes"/>
      <point x="1627" y="1057"/>
      <point x="1400" y="1346"/>
      <point x="1026" y="1346" type="curve" smooth="yes"/>
      <point x="873" y="1346"/>
      <point x="724" y="1289"/>
      <point x="630" y="1210" type="curve"/>
      <point x="618" y="1210" type="line"/>
      <point x="779" y="1783" type="line"/>
      <point x="1648" y="1783" type="line"/>
      <point x="1691" y="2048" type="line"/>
      <point x="565" y="2048" type="line"/>
      <point x="278" y="1016" type="line"/>
      <point x="554" y="974" type="line"/>
      <point x="644" y="1042"/>
      <point x="789" y="1090"/>
      <point x="912" y="1090" type="curve" smooth="yes"/>
      <point x="1157" y="1090"/>
      <point x="1302" y="906"/>
      <point x="1261" y="656" type="curve" smooth="yes"/>
      <point x="1219" y="409"/>
      <point x="1019" y="232"/>
      <point x="783" y="232" type="curve" smooth="yes"/>
      <point x="587" y="232"/>
      <point x="448" y="359"/>
      <point x="462" y="534" type="curve"/>
      <point x="162" y="534" type="line"/>
      <point x="121" y="209"/>
      <point x="365" y="-28"/>
    </contour>
  </outline>
</glyph>
<glyph name="six" format="2">
  <advance width="1790"/>
  <unicode hex="0036"/>
  <outline>
    <contour>
      <point x="798" y="-28" type="curve" smooth="yes"/>
      <point x="1217" y="-31"/>
      <point x="1539" y="267"/>
      <point x="1604" y="650" type="curve" smooth="yes"/>
      <point x="1672" y="1051"/>
      <point x="1428" y="1342"/>
      <point x="1063" y="1342" type="curve" smooth="yes"/>
      <point x="852" y="1342"/>
      <point x="657" y="1246"/>
      <point x="523" y="1074" type="curve"/>
      <point x="507" y="1055" type="line"/>
      <point x="590" y="1542"/>
      <point x="825" y="1810"/>
      <point x="1127" y="1810" type="curve" smooth="yes"/>
      <point x="1323" y="1810"/>
      <point x="1424" y="1695"/>
      <point x="1430" y="1517" type="curve"/>
      <point x="1726" y="1517" type="line"/>
      <point x="1734" y="1848"/>
      <point x="1503" y="2081"/>
      <point x="1141" y="2081" type="curve" smooth="yes"/>
      <point x="671" y="2081"/>
      <point x="317" y="1682"/>
      <point x="199" y="974" type="curve" smooth="yes"/>
      <point x="72" y="211"/>
      <point x="424" y="-26"/>
    </contour>
    <contour>
      <point x="808" y="232" type="curve" smooth="yes"/>
      <point x="576" y="232"/>
      <point x="443" y="422"/>
      <point x="479" y="643" type="curve" smooth="yes"/>
      <point x="517" y="882"/>
      <point x="744" y="1091"/>
      <point x="986" y="1091" type="curve" smooth="yes"/>
      <point x="1213" y="1091"/>
      <point x="1346" y="909"/>
      <point x="1309" y="683" type="curve" smooth="yes"/>
      <point x="1269" y="432"/>
      <point x="1048" y="232"/>
    </contour>
  </outline>
</glyph>
<glyph name="seven" format="2">
  <advance width="1630"/>
  <unicode hex="0037"/>
  <outline>
    <contour>
      <point x="138" y="0" type="line"/>
      <point x="461" y="0" type="line"/>
      <point x="1646" y="1774" type="line"/>
      <point x="1692" y="2048" type="line"/>
      <point x="338" y="2048" type="line"/>
      <point x="295" y="1783" type="line"/>
      <point x="1329" y="1783" type="line"/>
      <point x="1325" y="1768" type="line"/>
    </contour>
  </outline>
</glyph>
<glyph name="eight" format="2">
  <advance width="1777"/>
  <unicode hex="0038"/>
  <note>
essentially two conjoined "three" glyphs
</note>
  <outline>
    <contour>
      <point x="769" y="-28" type="curve" smooth="yes"/>
      <point x="1187" y="-28"/>
      <point x="1522" y="206"/>
      <point x="1578" y="534" type="curve" smooth="yes"/>
      <point x="1622" y="796"/>
      <point x="1471" y="1018"/>
      <point x="1246" y="1062" type="curve"/>
      <point x="1246" y="1071" type="line"/>
      <point x="1452" y="1118"/>
      <point x="1626" y="1289"/>
      <point x="1665" y="1517" type="curve" smooth="yes"/>
      <point x="1718" y="1837"/>
      <point x="1473" y="2076"/>
      <point x="1091" y="2076" type="curve" smooth="yes"/>
      <point x="719" y="2076"/>
      <point x="420" y="1854"/>
      <point x="362" y="1542" type="curve" smooth="yes"/>
      <point x="321" y="1318"/>
      <point x="418" y="1121"/>
      <point x="613" y="1071" type="curve"/>
      <point x="613" y="1062" type="line"/>
      <point x="376" y="1022"/>
      <point x="165" y="811"/>
      <point x="123" y="559" type="curve" smooth="yes"/>
      <point x="67" y="225"/>
      <point x="333" y="-28"/>
    </contour>
    <contour>
      <point x="788" y="225" type="curve" smooth="yes"/>
      <point x="540" y="225"/>
      <point x="406" y="352"/>
      <point x="438" y="553" type="curve" smooth="yes"/>
      <point x="473" y="773"/>
      <point x="680" y="931"/>
      <point x="926" y="931" type="curve" smooth="yes"/>
      <point x="1159" y="931"/>
      <point x="1306" y="789"/>
      <point x="1273" y="578" type="curve" smooth="yes"/>
      <point x="1239" y="368"/>
      <point x="1051" y="225"/>
    </contour>
    <contour>
      <point x="945" y="1178" type="curve" smooth="yes"/>
      <point x="746" y="1178"/>
      <point x="623" y="1298"/>
      <point x="654" y="1491" type="curve" smooth="yes"/>
      <point x="687" y="1690"/>
      <point x="854" y="1823"/>
      <point x="1075" y="1823" type="curve" smooth="yes"/>
      <point x="1281" y="1823"/>
      <point x="1399" y="1709"/>
      <point x="1365" y="1517" type="curve" smooth="yes"/>
      <point x="1330" y="1318"/>
      <point x="1160" y="1178"/>
    </contour>
  </outline>
</glyph>
<glyph name="nine" format="2">
  <advance width="1790"/>
  <unicode hex="0039"/>
  <note>
six mirrored
</note>
  <outline>
    <contour>
      <point x="1081" y="2081" type="curve" smooth="yes"/>
      <point x="661" y="2084"/>
      <point x="340" y="1786"/>
      <point x="274" y="1402" type="curve" smooth="yes"/>
      <point x="207" y="1002"/>
      <point x="451" y="710"/>
      <point x="815" y="710" type="curve" smooth="yes"/>
      <point x="1027" y="710"/>
      <point x="1221" y="807"/>
      <point x="1355" y="979" type="curve"/>
      <point x="1371" y="998" type="line"/>
      <point x="1289" y="510"/>
      <point x="1053" y="242"/>
      <point x="751" y="242" type="curve" smooth="yes"/>
      <point x="553" y="242"/>
      <point x="455" y="357"/>
      <point x="449" y="536" type="curve"/>
      <point x="152" y="536" type="line"/>
      <point x="145" y="205"/>
      <point x="374" y="-28"/>
      <point x="738" y="-28" type="curve" smooth="yes"/>
      <point x="1208" y="-28"/>
      <point x="1561" y="371"/>
      <point x="1679" y="1079" type="curve" smooth="yes"/>
      <point x="1807" y="1842"/>
      <point x="1454" y="2078"/>
    </contour>
    <contour>
      <point x="1070" y="1821" type="curve" smooth="yes"/>
      <point x="1303" y="1821"/>
      <point x="1436" y="1630"/>
      <point x="1399" y="1410" type="curve" smooth="yes"/>
      <point x="1361" y="1171"/>
      <point x="1135" y="962"/>
      <point x="892" y="962" type="curve" smooth="yes"/>
      <point x="665" y="962"/>
      <point x="533" y="1143"/>
      <point x="570" y="1370" type="curve" smooth="yes"/>
      <point x="609" y="1621"/>
      <point x="830" y="1821"/>
    </contour>
  </outline>
</glyph>
<glyph name="less" format="2">
  <advance width="1875"/>
  <unicode hex="003C"/>
  <note>
Recipe: Make rect and rotate 63deg (regular) or 69deg (black)
</note>
  <guideline x="310" y="888" angle="0.0"/>
  <outline>
    <contour>
      <point x="260" y="694" type="line"/>
      <point x="1482" y="50" type="line"/>
      <point x="1534" y="356" type="line"/>
      <point x="625" y="802" type="line"/>
      <point x="634" y="785" type="line"/>
      <point x="639" y="828" type="line"/>
      <point x="629" y="810" type="line"/>
      <point x="1683" y="1257" type="line"/>
      <point x="1732" y="1562" type="line"/>
      <point x="298" y="918" type="line"/>
    </contour>
  </outline>
</glyph>
<glyph name="equal" format="2">
  <advance width="1875"/>
  <unicode hex="003D"/>
  <outline>
    <contour>
      <point x="332" y="983" type="line"/>
      <point x="1614" y="983" type="line"/>
      <point x="1658" y="1246" type="line"/>
      <point x="376" y="1246" type="line"/>
    </contour>
    <contour>
      <point x="230" y="367" type="line"/>
      <point x="1512" y="367" type="line"/>
      <point x="1555" y="630" type="line"/>
      <point x="274" y="630" type="line"/>
    </contour>
  </outline>
</glyph>
<glyph name="greater" format="2">
  <advance width="1875"/>
  <unicode hex="003E"/>
  <outline>
    <contour>
      <point x="1628" y="694" type="line"/>
      <point x="1666" y="918" type="line"/>
      <point x="444" y="1562" type="line"/>
      <point x="395" y="1257" type="line"/>
      <point x="1301" y="810" type="line"/>
      <point x="1292" y="828" type="line"/>
      <point x="1286" y="785" type="line"/>
      <point x="1297" y="802" type="line"/>
      <point x="246" y="356" type="line"/>
      <point x="194" y="50" type="line"/>
    </contour>
  </outline>
</glyph>
<glyph name="question" format="2">
  <advance width="1480"/>
  <unicode hex="003F"/>
  <outline>
    <contour>
      <point x="498" y="589" type="line"/>
      <point x="785" y="589" type="line"/>
      <point x="790" y="618" type="line" smooth="yes"/>
      <point x="830" y="842"/>
      <point x="915" y="944"/>
      <point x="1101" y="1047" type="curve" smooth="yes"/>
      <point x="1297" y="1153"/>
      <point x="1434" y="1306"/>
      <point x="1470" y="1531" type="curve" smooth="yes"/>
      <point x="1524" y="1856"/>
      <point x="1314" y="2076"/>
      <point x="947" y="2076" type="curve" smooth="yes"/>
      <point x="610" y="2076"/>
      <point x="309" y="1879"/>
      <point x="236" y="1519" type="curve"/>
      <point x="540" y="1519" type="line"/>
      <point x="585" y="1731"/>
      <point x="754" y="1824"/>
      <point x="906" y="1824" type="curve" smooth="yes"/>
      <point x="1077" y="1824"/>
      <point x="1193" y="1711"/>
      <point x="1164" y="1534" type="curve" smooth="yes"/>
      <point x="1141" y="1384"/>
      <point x="1030" y="1281"/>
      <point x="899" y="1206" type="curve" smooth="yes"/>
      <point x="698" y="1093"/>
      <point x="567" y="982"/>
      <point x="503" y="618" type="curve" smooth="yes"/>
    </contour>
    <component base="period" xOffset="280"/>
  </outline>
</glyph>
<glyph name="at" format="2">
  <advance width="2725"/>
  <unicode hex="0040"/>
  <outline>
    <contour>
      <point x="1215" y="-557" type="curve" smooth="yes"/>
      <point x="1446" y="-557"/>
      <point x="1721" y="-494"/>
      <point x="1858" y="-436" type="curve"/>
      <point x="1822" y="-217" type="line"/>
      <point x="1733" y="-247"/>
      <point x="1492" y="-320"/>
      <point x="1268" y="-320" type="curve" smooth="yes"/>
      <point x="595" y="-320"/>
      <point x="296" y="51"/>
      <point x="405" y="715" type="curve" smooth="yes"/>
      <point x="508" y="1351"/>
      <point x="934" y="1762"/>
      <point x="1574" y="1762" type="curve" smooth="yes"/>
      <point x="2159" y="1762"/>
      <point x="2448" y="1386"/>
      <point x="2362" y="878" type="curve" smooth="yes"/>
      <point x="2290" y="444"/>
      <point x="2203" y="249"/>
      <point x="2021" y="249" type="curve" smooth="yes"/>
      <point x="1918" y="249"/>
      <point x="1875" y="333"/>
      <point x="1890" y="438" type="curve" smooth="yes"/>
      <point x="2045" y="1366" type="line"/>
      <point x="1799" y="1366" type="line"/>
      <point x="1780" y="1254" type="line"/>
      <point x="1767" y="1254" type="line"/>
      <point x="1752" y="1342"/>
      <point x="1591" y="1421"/>
      <point x="1378" y="1396" type="curve" smooth="yes"/>
      <point x="1084" y="1362"/>
      <point x="797" y="1123"/>
      <point x="731" y="729" type="curve" smooth="yes"/>
      <point x="663" y="318"/>
      <point x="828" y="43"/>
      <point x="1161" y="30" type="curve" smooth="yes"/>
      <point x="1388" y="20"/>
      <point x="1555" y="126"/>
      <point x="1619" y="244" type="curve"/>
      <point x="1631" y="244" type="line"/>
      <point x="1628" y="83"/>
      <point x="1792" y="12"/>
      <point x="1964" y="18" type="curve" smooth="yes"/>
      <point x="2392" y="26"/>
      <point x="2544" y="446"/>
      <point x="2613" y="868" type="curve" smooth="yes"/>
      <point x="2711" y="1470"/>
      <point x="2387" y="1994"/>
      <point x="1623" y="1994" type="curve" smooth="yes"/>
      <point x="822" y="1994"/>
      <point x="268" y="1505"/>
      <point x="138" y="717" type="curve" smooth="yes"/>
      <point x="6" y="-94"/>
      <point x="388" y="-557"/>
    </contour>
    <contour>
      <point x="1261" y="275" type="curve" smooth="yes"/>
      <point x="1000" y="275"/>
      <point x="948" y="499"/>
      <point x="986" y="741" type="curve" smooth="yes"/>
      <point x="1025" y="971"/>
      <point x="1184" y="1154"/>
      <point x="1410" y="1154" type="curve" smooth="yes"/>
      <point x="1655" y="1154"/>
      <point x="1747" y="1046"/>
      <point x="1697" y="742" type="curve" smooth="yes"/>
      <point x="1645" y="430"/>
      <point x="1521" y="275"/>
    </contour>
  </outline>
</glyph>
<glyph name="A" format="2">
  <advance width="1971"/>
  <unicode hex="0041"/>
  <outline>
    <contour>
      <point x="270" y="0" type="line"/>
      <point x="1130" y="1676" type="line"/>
      <point x="1146" y="1676" type="line"/>
      <point x="1445" y="0" type="line"/>
      <point x="1773" y="0" type="line"/>
      <point x="1376" y="2048" type="line"/>
      <point x="1019" y="2048" type="line"/>
      <point x="-58" y="0" type="line"/>
    </contour>
    <contour>
      <point x="458" y="802" type="line"/>
      <point x="414" y="542" type="line"/>
      <point x="1478" y="542" type="line"/>
      <point x="1522" y="802" type="line"/>
    </contour>
  </outline>
</glyph>
<glyph name="B" format="2">
  <advance width="1842"/>
  <unicode hex="0042"/>
  <outline>
    <contour>
      <point x="97" y="0" type="line"/>
      <point x="882" y="0" type="line" smooth="yes"/>
      <point x="1358" y="0"/>
      <point x="1613" y="238"/>
      <point x="1666" y="551" type="curve" smooth="yes"/>
      <point x="1717" y="868"/>
      <point x="1524" y="1047"/>
      <point x="1324" y="1058" type="curve"/>
      <point x="1328" y="1078" type="line"/>
      <point x="1521" y="1126"/>
      <point x="1699" y="1254"/>
      <point x="1742" y="1510" type="curve" smooth="yes"/>
      <point x="1794" y="1813"/>
      <point x="1623" y="2048"/>
      <point x="1187" y="2048" type="curve" smooth="yes"/>
      <point x="437" y="2048" type="line"/>
    </contour>
    <contour>
      <point x="450" y="265" type="line"/>
      <point x="560" y="921" type="line"/>
      <point x="1017" y="921" type="line" smooth="yes"/>
      <point x="1266" y="921"/>
      <point x="1392" y="761"/>
      <point x="1362" y="566" type="curve" smooth="yes"/>
      <point x="1332" y="394"/>
      <point x="1192" y="265"/>
      <point x="896" y="265" type="curve" smooth="yes"/>
    </contour>
    <contour>
      <point x="601" y="1162" type="line"/>
      <point x="703" y="1785" type="line"/>
      <point x="1125" y="1785" type="line" smooth="yes"/>
      <point x="1370" y="1785"/>
      <point x="1465" y="1656"/>
      <point x="1435" y="1486" type="curve" smooth="yes"/>
      <point x="1406" y="1289"/>
      <point x="1222" y="1162"/>
      <point x="1014" y="1162" type="curve" smooth="yes"/>
    </contour>
  </outline>
</glyph>
<glyph name="C" format="2">
  <advance width="2071"/>
  <unicode hex="0043"/>
  <outline>
    <contour>
      <point x="2025" y="1382" type="line"/>
      <point x="2027" y="1820"/>
      <point x="1720" y="2076"/>
      <point x="1280" y="2076" type="curve" smooth="yes"/>
      <point x="758" y="2076"/>
      <point x="313" y="1690"/>
      <point x="204" y="1043" type="curve" smooth="yes"/>
      <point x="95" y="379"/>
      <point x="426" y="-28"/>
      <point x="967" y="-28" type="curve" smooth="yes"/>
      <point x="1407" y="-28"/>
      <point x="1773" y="254"/>
      <point x="1908" y="660" type="curve"/>
      <point x="1598" y="660" type="line"/>
      <point x="1500" y="398"/>
      <point x="1248" y="254"/>
      <point x="980" y="254" type="curve" smooth="yes"/>
      <point x="638" y="254"/>
      <point x="423" y="514"/>
      <point x="505" y="1005" type="curve" smooth="yes"/>
      <point x="588" y="1511"/>
      <point x="907" y="1794"/>
      <point x="1270" y="1794" type="curve" smooth="yes"/>
      <point x="1522" y="1794"/>
      <point x="1712" y="1647"/>
      <point x="1719" y="1382" type="curve"/>
    </contour>
  </outline>
</glyph>
<glyph name="D" format="2">
  <advance width="2032"/>
  <unicode hex="0044"/>
  <note>
!post:RemoveOverlap
</note>
  <outline>
    <contour>
      <point x="769" y="0" type="line" smooth="yes"/>
      <point x="1393" y="0"/>
      <point x="1808" y="378"/>
      <point x="1912" y="1009" type="curve" smooth="yes"/>
      <point x="2020" y="1654"/>
      <point x="1715" y="2048"/>
      <point x="1112" y="2048" type="curve" smooth="yes"/>
      <point x="583" y="2048" type="line"/>
      <point x="538" y="1778" type="line"/>
      <point x="1066" y="1778" type="line" smooth="yes"/>
      <point x="1514" y="1778"/>
      <point x="1694" y="1519"/>
      <point x="1614" y="1046" type="curve" smooth="yes"/>
      <point x="1532" y="551"/>
      <point x="1250" y="270"/>
      <point x="782" y="270" type="curve" smooth="yes"/>
      <point x="299" y="270" type="line"/>
      <point x="254" y="0" type="line"/>
    </contour>
    <contour>
      <point x="746" y="2048" type="line"/>
      <point x="437" y="2048" type="line"/>
      <point x="97" y="0" type="line"/>
      <point x="406" y="0" type="line"/>
    </contour>
  </outline>
</glyph>
<glyph name="E" format="2">
  <advance width="1698"/>
  <unicode hex="0045"/>
  <outline>
    <contour>
      <point x="97" y="0" type="line"/>
      <point x="1393" y="0" type="line"/>
      <point x="1437" y="266" type="line"/>
      <point x="450" y="266" type="line"/>
      <point x="554" y="893" type="line"/>
      <point x="1462" y="893" type="line"/>
      <point x="1506" y="1158" type="line"/>
      <point x="598" y="1158" type="line"/>
      <point x="702" y="1782" type="line"/>
      <point x="1677" y="1782" type="line"/>
      <point x="1721" y="2048" type="line"/>
      <point x="437" y="2048" type="line"/>
    </contour>
  </outline>
</glyph>
<glyph name="F" format="2">
  <advance width="1650"/>
  <unicode hex="0046"/>
  <outline>
    <contour>
      <point x="97" y="0" type="line"/>
      <point x="406" y="0" type="line"/>
      <point x="554" y="893" type="line"/>
      <point x="1424" y="893" type="line"/>
      <point x="1468" y="1158" type="line"/>
      <point x="598" y="1158" type="line"/>
      <point x="702" y="1782" type="line"/>
      <point x="1663" y="1782" type="line"/>
      <point x="1707" y="2048" type="line"/>
      <point x="437" y="2048" type="line"/>
    </contour>
  </outline>
</glyph>
<glyph name="G" format="2">
  <advance width="2109"/>
  <unicode hex="0047"/>
  <outline>
    <contour>
      <point x="1714" y="1401" type="curve"/>
      <point x="2031" y="1401" type="line"/>
      <point x="2030" y="1800"/>
      <point x="1735" y="2076"/>
      <point x="1292" y="2076" type="curve" smooth="yes"/>
      <point x="763" y="2076"/>
      <point x="308" y="1677"/>
      <point x="203" y="1023" type="curve" smooth="yes"/>
      <point x="95" y="375"/>
      <point x="403" y="-28"/>
      <point x="958" y="-28" type="curve" smooth="yes"/>
      <point x="1455" y="-28"/>
      <point x="1866" y="297"/>
      <point x="1949" y="815" type="curve" smooth="yes"/>
      <point x="1990" y="1048" type="line"/>
      <point x="1184" y="1048" type="line"/>
      <point x="1140" y="793" type="line"/>
      <point x="1726" y="793" type="line"/>
      <point x="1649" y="808" type="line"/>
      <point x="1595" y="470"/>
      <point x="1321" y="254"/>
      <point x="988" y="254" type="curve" smooth="yes"/>
      <point x="627" y="254"/>
      <point x="427" y="527"/>
      <point x="510" y="1025" type="curve" smooth="yes"/>
      <point x="592" y="1521"/>
      <point x="923" y="1794"/>
      <point x="1270" y="1794" type="curve" smooth="yes"/>
      <point x="1541" y="1794"/>
      <point x="1680" y="1643"/>
    </contour>
  </outline>
</glyph>
<glyph name="H" format="2">
  <advance width="2090"/>
  <unicode hex="0048"/>
  <outline>
    <contour>
      <point x="97" y="0" type="line"/>
      <point x="406" y="0" type="line"/>
      <point x="554" y="893" type="line"/>
      <point x="1575" y="893" type="line"/>
      <point x="1427" y="0" type="line"/>
      <point x="1737" y="0" type="line"/>
      <point x="2077" y="2048" type="line"/>
      <point x="1767" y="2048" type="line"/>
      <point x="1619" y="1158" type="line"/>
      <point x="598" y="1158" type="line"/>
      <point x="746" y="2048" type="line"/>
      <point x="437" y="2048" type="line"/>
    </contour>
  </outline>
</glyph>
<glyph name="J" format="2">
  <advance width="1554"/>
  <unicode hex="004A"/>
  <outline>
    <contour>
      <point x="1233" y="2048" type="line"/>
      <point x="994" y="602" type="line" smooth="yes"/>
      <point x="954" y="366"/>
      <point x="812" y="234"/>
      <point x="612" y="234" type="curve" smooth="yes"/>
      <point x="435" y="234"/>
      <point x="333" y="336"/>
      <point x="357" y="512" type="curve"/>
      <point x="57" y="512" type="line"/>
      <point x="2" y="167"/>
      <point x="234" y="-28"/>
      <point x="587" y="-28" type="curve" smooth="yes"/>
      <point x="966" y="-28"/>
      <point x="1234" y="196"/>
      <point x="1299" y="590" type="curve" smooth="yes"/>
      <point x="1541" y="2048" type="line"/>
    </contour>
  </outline>
</glyph>
<glyph name="K" format="2">
  <advance width="1871"/>
  <unicode hex="004B"/>
  <outline>
    <contour>
      <point x="97" y="0" type="line"/>
      <point x="406" y="0" type="line"/>
      <point x="514" y="636" type="line"/>
      <point x="802" y="915" type="line"/>
      <point x="1310" y="0" type="line"/>
      <point x="1682" y="0" type="line"/>
      <point x="1042" y="1126" type="line"/>
      <point x="2019" y="2048" type="line"/>
      <point x="1630" y="2048" type="line"/>
      <point x="610" y="1070" type="line"/>
      <point x="585" y="1070" type="line"/>
      <point x="746" y="2048" type="line"/>
      <point x="437" y="2048" type="line"/>
    </contour>
  </outline>
</glyph>
<glyph name="L" format="2">
  <advance width="1589"/>
  <unicode hex="004C"/>
  <outline>
    <contour>
      <point x="97" y="0" type="line"/>
      <point x="1334" y="0" type="line"/>
      <point x="1378" y="266" type="line"/>
      <point x="450" y="266" type="line"/>
      <point x="746" y="2048" type="line"/>
      <point x="437" y="2048" type="line"/>
    </contour>
  </outline>
</glyph>
<glyph name="M" format="2">
  <advance width="2528"/>
  <unicode hex="004D"/>
  <outline>
    <contour>
      <point x="437" y="2048" type="line"/>
      <point x="97" y="0" type="line"/>
      <point x="391" y="0" type="line"/>
      <point x="639" y="1483" type="line"/>
      <point x="658" y="1483" type="line"/>
      <point x="1014" y="3" type="line"/>
      <point x="1259" y="3" type="line"/>
      <point x="2109" y="1482" type="line"/>
      <point x="2128" y="1482" type="line"/>
      <point x="1881" y="0" type="line"/>
      <point x="2175" y="0" type="line"/>
      <point x="2515" y="2048" type="line"/>
      <point x="2140" y="2048" type="line"/>
      <point x="1226" y="456" type="line"/>
      <point x="1202" y="456" type="line"/>
      <point x="812" y="2048" type="line"/>
    </contour>
  </outline>
</glyph>
<glyph name="N" format="2">
  <advance width="2103"/>
  <unicode hex="004E"/>
  <outline>
    <contour>
      <point x="2090" y="2048" type="line"/>
      <point x="1784" y="2048" type="line"/>
      <point x="1534" y="544" type="line"/>
      <point x="1515" y="544" type="line"/>
      <point x="723" y="2048" type="line"/>
      <point x="437" y="2048" type="line"/>
      <point x="97" y="0" type="line"/>
      <point x="406" y="0" type="line"/>
      <point x="657" y="1502" type="line"/>
      <point x="675" y="1502" type="line"/>
      <point x="1466" y="0" type="line"/>
      <point x="1750" y="0" type="line"/>
    </contour>
  </outline>
</glyph>
<glyph name="O" format="2">
  <advance width="2163"/>
  <unicode hex="004F"/>
  <outline>
    <contour>
      <point x="2043" y="1004" type="curve" smooth="yes"/>
      <point x="2153" y="1669"/>
      <point x="1819" y="2076"/>
      <point x="1282" y="2076" type="curve" smooth="yes"/>
      <point x="758" y="2076"/>
      <point x="312" y="1688"/>
      <point x="204" y="1042" type="curve" smooth="yes"/>
      <point x="94" y="378"/>
      <point x="428" y="-28"/>
      <point x="969" y="-28" type="curve" smooth="yes"/>
      <point x="1490" y="-28"/>
      <point x="1934" y="358"/>
    </contour>
    <contour>
      <point x="1742" y="1042" type="curve" smooth="yes"/>
      <point x="1659" y="534"/>
      <point x="1342" y="254"/>
      <point x="979" y="254" type="curve" smooth="yes"/>
      <point x="637" y="254"/>
      <point x="422" y="514"/>
      <point x="505" y="1004" type="curve" smooth="yes"/>
      <point x="587" y="1512"/>
      <point x="906" y="1794"/>
      <point x="1269" y="1794" type="curve" smooth="yes"/>
      <point x="1612" y="1794"/>
      <point x="1824" y="1532"/>
    </contour>
  </outline>
</glyph>
<glyph name="P" format="2">
  <advance width="1797"/>
  <unicode hex="0050"/>
  <outline>
    <contour>
      <point x="97" y="0" type="line"/>
      <point x="406" y="0" type="line"/>
      <point x="703" y="1783" type="line"/>
      <point x="1091" y="1783" type="line" smooth="yes"/>
      <point x="1396" y="1783"/>
      <point x="1492" y="1618"/>
      <point x="1454" y="1385" type="curve" smooth="yes"/>
      <point x="1417" y="1154"/>
      <point x="1262" y="982"/>
      <point x="960" y="982" type="curve" smooth="yes"/>
      <point x="486" y="982" type="line"/>
      <point x="443" y="720" type="line"/>
      <point x="946" y="720" type="line" smooth="yes"/>
      <point x="1421" y="720"/>
      <point x="1703" y="1008"/>
      <point x="1766" y="1385" type="curve" smooth="yes"/>
      <point x="1828" y="1763"/>
      <point x="1642" y="2048"/>
      <point x="1167" y="2048" type="curve" smooth="yes"/>
      <point x="437" y="2048" type="line"/>
    </contour>
  </outline>
</glyph>
<glyph name="Q" format="2">
  <advance width="2195"/>
  <unicode hex="0051"/>
  <outline>
    <contour>
      <point x="949" y="664" type="line"/>
      <point x="1273" y="221" type="line"/>
      <point x="1343" y="113" type="line"/>
      <point x="1562" y="-184" type="line"/>
      <point x="1878" y="-184" type="line"/>
      <point x="1550" y="261" type="line"/>
      <point x="1460" y="385" type="line"/>
      <point x="1253" y="664" type="line"/>
    </contour>
    <component base="O"/>
  </outline>
</glyph>
<glyph name="R" format="2">
  <advance width="1822"/>
  <unicode hex="0052"/>
  <outline>
    <contour>
      <point x="97" y="0" type="line"/>
      <point x="406" y="0" type="line"/>
      <point x="703" y="1783" type="line"/>
      <point x="1091" y="1783" type="line" smooth="yes"/>
      <point x="1395" y="1783"/>
      <point x="1496" y="1640"/>
      <point x="1458" y="1406" type="curve" smooth="yes"/>
      <point x="1421" y="1176"/>
      <point x="1274" y="1041"/>
      <point x="972" y="1041" type="curve" smooth="yes"/>
      <point x="447" y="1041" type="line"/>
      <point x="401" y="775" type="line"/>
      <point x="954" y="775" type="line" smooth="yes"/>
      <point x="1429" y="775"/>
      <point x="1707" y="1030"/>
      <point x="1770" y="1406" type="curve" smooth="yes"/>
      <point x="1832" y="1785"/>
      <point x="1642" y="2048"/>
      <point x="1167" y="2048" type="curve" smooth="yes"/>
      <point x="437" y="2048" type="line"/>
    </contour>
    <contour>
      <point x="1261" y="924" type="line"/>
      <point x="918" y="924" type="line"/>
      <point x="1262" y="0" type="line"/>
      <point x="1614" y="0" type="line"/>
    </contour>
  </outline>
</glyph>
<glyph name="S" format="2">
  <advance width="1812"/>
  <unicode hex="0053"/>
  <note>
recipe: use stroke + offset curve filter with 32, no autostroke
</note>
  <outline>
    <contour>
      <point x="1462" y="1498" type="curve"/>
      <point x="1760" y="1498" type="line"/>
      <point x="1802" y="1838"/>
      <point x="1557" y="2076"/>
      <point x="1141" y="2076" type="curve" smooth="yes"/>
      <point x="730" y="2076"/>
      <point x="378" y="1842"/>
      <point x="317" y="1488" type="curve" smooth="yes"/>
      <point x="271" y="1203"/>
      <point x="447" y="1037"/>
      <point x="760" y="947" type="curve" smooth="yes"/>
      <point x="991" y="881" type="line" smooth="yes"/>
      <point x="1202" y="823"/>
      <point x="1360" y="750"/>
      <point x="1328" y="569" type="curve" smooth="yes"/>
      <point x="1296" y="370"/>
      <point x="1083" y="237"/>
      <point x="820" y="237" type="curve" smooth="yes"/>
      <point x="582" y="237"/>
      <point x="400" y="343"/>
      <point x="421" y="566" type="curve"/>
      <point x="110" y="566" type="line"/>
      <point x="68" y="195"/>
      <point x="319" y="-34"/>
      <point x="778" y="-34" type="curve" smooth="yes"/>
      <point x="1259" y="-34"/>
      <point x="1575" y="219"/>
      <point x="1634" y="566" type="curve" smooth="yes"/>
      <point x="1695" y="935"/>
      <point x="1390" y="1078"/>
      <point x="1142" y="1142" type="curve" smooth="yes"/>
      <point x="950" y="1194" type="line" smooth="yes"/>
      <point x="798" y="1234"/>
      <point x="596" y="1310"/>
      <point x="630" y="1506" type="curve" smooth="yes"/>
      <point x="658" y="1681"/>
      <point x="838" y="1809"/>
      <point x="1090" y="1809" type="curve" smooth="yes"/>
      <point x="1325" y="1809"/>
      <point x="1464" y="1700"/>
    </contour>
  </outline>
</glyph>
<glyph name="T" format="2">
  <advance width="1833"/>
  <unicode hex="0054"/>
  <outline>
    <contour>
      <point x="292" y="1782" type="line"/>
      <point x="930" y="1782" type="line"/>
      <point x="634" y="0" type="line"/>
      <point x="942" y="0" type="line"/>
      <point x="1238" y="1782" type="line"/>
      <point x="1877" y="1782" type="line"/>
      <point x="1921" y="2048" type="line"/>
      <point x="336" y="2048" type="line"/>
    </contour>
  </outline>
</glyph>
<glyph name="U" format="2">
  <advance width="2077"/>
  <unicode hex="0055"/>
  <outline>
    <contour>
      <point x="1755" y="2048" type="line"/>
      <point x="1532" y="698" type="line" smooth="yes"/>
      <point x="1484" y="411"/>
      <point x="1225" y="250"/>
      <point x="951" y="250" type="curve" smooth="yes"/>
      <point x="675" y="250"/>
      <point x="475" y="411"/>
      <point x="523" y="698" type="curve" smooth="yes"/>
      <point x="746" y="2048" type="line"/>
      <point x="437" y="2048" type="line"/>
      <point x="213" y="693" type="line" smooth="yes"/>
      <point x="135" y="231"/>
      <point x="451" y="-34"/>
      <point x="906" y="-34" type="curve" smooth="yes"/>
      <point x="1358" y="-34"/>
      <point x="1762" y="231"/>
      <point x="1840" y="693" type="curve" smooth="yes"/>
      <point x="2064" y="2048" type="line"/>
    </contour>
  </outline>
</glyph>
<glyph name="V" format="2">
  <advance width="1971"/>
  <unicode hex="0056"/>
  <outline>
    <contour>
      <point x="616" y="2048" type="line"/>
      <point x="282" y="2048" type="line"/>
      <point x="679" y="0" type="line"/>
      <point x="1036" y="0" type="line"/>
      <point x="2113" y="2048" type="line"/>
      <point x="1779" y="2048" type="line"/>
      <point x="934" y="380" type="line"/>
      <point x="911" y="380" type="line"/>
    </contour>
  </outline>
</glyph>
<glyph name="W" format="2">
  <advance width="2754"/>
  <unicode hex="0057"/>
  <outline>
    <contour>
      <point x="498" y="0" type="line"/>
      <point x="810" y="0" type="line"/>
      <point x="1497" y="1534" type="line"/>
      <point x="1513" y="1534" type="line"/>
      <point x="1688" y="0" type="line"/>
      <point x="1999" y="0" type="line"/>
      <point x="2908" y="2048" type="line"/>
      <point x="2582" y="2048" type="line"/>
      <point x="1922" y="461" type="line"/>
      <point x="1902" y="461" type="line"/>
      <point x="1750" y="2048" type="line"/>
      <point x="1428" y="2048" type="line"/>
      <point x="750" y="462" type="line"/>
      <point x="731" y="462" type="line"/>
      <point x="595" y="2048" type="line"/>
      <point x="270" y="2048" type="line"/>
    </contour>
  </outline>
</glyph>
<glyph name="X" format="2">
  <advance width="1876"/>
  <unicode hex="0058"/>
  <note>
recipe: offset curve 32, no auto
</note>
  <outline>
    <contour>
      <point x="647" y="2048" type="line"/>
      <point x="294" y="2048" type="line"/>
      <point x="775" y="1024" type="line"/>
      <point x="-50" y="0" type="line"/>
      <point x="313" y="0" type="line"/>
      <point x="937" y="790" type="line"/>
      <point x="953" y="790" type="line"/>
      <point x="1313" y="0" type="line"/>
      <point x="1670" y="0" type="line"/>
      <point x="1200" y="1024" type="line"/>
      <point x="2006" y="2048" type="line"/>
      <point x="1643" y="2048" type="line"/>
      <point x="1021" y="1247" type="line"/>
      <point x="1005" y="1247" type="line"/>
    </contour>
  </outline>
</glyph>
<glyph name="Y" format="2">
  <advance width="1928"/>
  <unicode hex="0059"/>
  <outline>
    <contour>
      <point x="279" y="2048" type="line"/>
      <point x="815" y="804" type="line"/>
      <point x="682" y="0" type="line"/>
      <point x="990" y="0" type="line"/>
      <point x="1124" y="804" type="line"/>
      <point x="2073" y="2048" type="line"/>
      <point x="1722" y="2048" type="line"/>
      <point x="1035" y="1117" type="line"/>
      <point x="1012" y="1117" type="line"/>
      <point x="630" y="2048" type="line"/>
    </contour>
  </outline>
</glyph>
<glyph name="Z" format="2">
  <advance width="1799"/>
  <unicode hex="005A"/>
  <outline>
    <contour>
      <point x="44" y="0" type="line"/>
      <point x="1508" y="0" type="line"/>
      <point x="1552" y="266" type="line"/>
      <point x="466" y="266" type="line"/>
      <point x="1806" y="1842" type="line"/>
      <point x="1839" y="2048" type="line"/>
      <point x="375" y="2048" type="line"/>
      <point x="331" y="1782" type="line"/>
      <point x="1418" y="1782" type="line"/>
      <point x="80" y="206" type="line"/>
    </contour>
  </outline>
</glyph>
<glyph name="bracketleft" format="2">
  <advance width="1064"/>
  <unicode hex="005B"/>
  <outline>
    <contour>
      <point x="122" y="-426" type="line"/>
      <point x="780" y="-426" type="line"/>
      <point x="819" y="-189" type="line"/>
      <point x="448" y="-189" type="line"/>
      <point x="792" y="1888" type="line"/>
      <point x="1163" y="1888" type="line"/>
      <point x="1202" y="2125" type="line"/>
      <point x="545" y="2125" type="line"/>
    </contour>
  </outline>
</glyph>
<glyph name="backslash" format="2">
  <advance width="1071"/>
  <unicode hex="005C"/>
  <outline>
    <contour>
      <point x="242" y="2048" type="line"/>
      <point x="592" y="-308" type="line"/>
      <point x="871" y="-308" type="line"/>
      <point x="521" y="2048" type="line"/>
    </contour>
  </outline>
</glyph>
<glyph name="asciicircum" format="2">
  <advance width="1338"/>
  <unicode hex="005E"/>
  <outline>
    <contour>
      <point x="824" y="1857" type="line"/>
      <point x="807" y="1754" type="line"/>
      <point x="879" y="1754" type="line"/>
      <point x="896" y="1857" type="line"/>
    </contour>
    <contour>
      <point x="166" y="1120" type="line"/>
      <point x="443" y="1120" type="line"/>
      <point x="858" y="1794" type="line"/>
      <point x="836" y="1794" type="line"/>
      <point x="1037" y="1120" type="line"/>
      <point x="1292" y="1120" type="line"/>
      <point x="1018" y="1990" type="line"/>
      <point x="722" y="1990" type="line"/>
    </contour>
  </outline>
</glyph>
<glyph name="grave" format="2">
  <advance width="1400"/>
  <unicode hex="0060"/>
  <note>
mirrored version of acute
</note>
  <outline>
    <contour>
      <point x="895" y="1741" type="line"/>
      <point x="1134" y="1741" type="line"/>
      <point x="979" y="2202" type="line"/>
      <point x="664" y="2202" type="line"/>
    </contour>
  </outline>
</glyph>
<glyph name="a" format="2">
  <advance width="1603"/>
  <unicode hex="0061"/>
  <outline>
    <contour>
      <point x="516" y="-34" type="curve" smooth="yes"/>
      <point x="770" y="-34"/>
      <point x="934" y="95"/>
      <point x="1010" y="210" type="curve"/>
      <point x="1022" y="210" type="line"/>
      <point x="986" y="0" type="line"/>
      <point x="1278" y="0" type="line"/>
      <point x="1447" y="1020" type="line" smooth="yes"/>
      <point x="1521" y="1467"/>
      <point x="1186" y="1556"/>
      <point x="942" y="1556" type="curve" smooth="yes"/>
      <point x="664" y="1556"/>
      <point x="386" y="1444"/>
      <point x="242" y="1164" type="curve"/>
      <point x="510" y="1100" type="line"/>
      <point x="574" y="1209"/>
      <point x="711" y="1314"/>
      <point x="911" y="1314" type="curve" smooth="yes"/>
      <point x="1103" y="1314"/>
      <point x="1179" y="1212"/>
      <point x="1151" y="1039" type="curve" smooth="yes"/>
      <point x="1151" y="1032" type="line" smooth="yes"/>
      <point x="1132" y="925"/>
      <point x="1018" y="926"/>
      <point x="739" y="893" type="curve" smooth="yes"/>
      <point x="442" y="859"/>
      <point x="132" y="782"/>
      <point x="73" y="434" type="curve" smooth="yes"/>
      <point x="24" y="133"/>
      <point x="224" y="-34"/>
    </contour>
    <contour>
      <point x="618" y="206" type="curve" smooth="yes"/>
      <point x="449" y="206"/>
      <point x="342" y="282"/>
      <point x="366" y="430" type="curve" smooth="yes"/>
      <point x="391" y="590"/>
      <point x="546" y="647"/>
      <point x="722" y="670" type="curve" smooth="yes"/>
      <point x="820" y="683"/>
      <point x="1054" y="709"/>
      <point x="1104" y="752" type="curve"/>
      <point x="1071" y="554" type="line" smooth="yes"/>
      <point x="1041" y="372"/>
      <point x="867" y="206"/>
    </contour>
  </outline>
</glyph>
<glyph name="b" format="2">
  <advance width="1762"/>
  <unicode hex="0062"/>
  <note>
top anchor should match top anchor of i
</note>
  <outline>
    <contour>
      <point x="97" y="0" type="line"/>
      <point x="389" y="0" type="line"/>
      <point x="429" y="239" type="line"/>
      <point x="454" y="239" type="line"/>
      <point x="494" y="141"/>
      <point x="574" y="-30"/>
      <point x="854" y="-30" type="curve" smooth="yes"/>
      <point x="1226" y="-30"/>
      <point x="1546" y="268"/>
      <point x="1628" y="765" type="curve" smooth="yes"/>
      <point x="1710" y="1263"/>
      <point x="1486" y="1556"/>
      <point x="1115" y="1556" type="curve" smooth="yes"/>
      <point x="830" y="1556"/>
      <point x="697" y="1382"/>
      <point x="629" y="1287" type="curve"/>
      <point x="611" y="1287" type="line"/>
      <point x="736" y="2048" type="line"/>
      <point x="437" y="2048" type="line"/>
    </contour>
    <contour>
      <point x="518" y="768" type="curve" smooth="yes"/>
      <point x="570" y="1089"/>
      <point x="747" y="1302"/>
      <point x="1008" y="1302" type="curve" smooth="yes"/>
      <point x="1278" y="1302"/>
      <point x="1374" y="1073"/>
      <point x="1326" y="768" type="curve" smooth="yes"/>
      <point x="1274" y="460"/>
      <point x="1098" y="225"/>
      <point x="830" y="225" type="curve" smooth="yes"/>
      <point x="573" y="225"/>
      <point x="466" y="445"/>
    </contour>
  </outline>
</glyph>
<glyph name="c" format="2">
  <advance width="1599"/>
  <unicode hex="0063"/>
  <outline>
    <contour>
      <point x="716" y="-31" type="curve" smooth="yes"/>
      <point x="1078" y="-31"/>
      <point x="1347" y="187"/>
      <point x="1434" y="486" type="curve"/>
      <point x="1142" y="486" type="line"/>
      <point x="1076" y="320"/>
      <point x="931" y="222"/>
      <point x="760" y="222" type="curve" smooth="yes"/>
      <point x="506" y="222"/>
      <point x="377" y="433"/>
      <point x="434" y="768" type="curve" smooth="yes"/>
      <point x="486" y="1097"/>
      <point x="688" y="1304"/>
      <point x="939" y="1304" type="curve" smooth="yes"/>
      <point x="1129" y="1304"/>
      <point x="1226" y="1184"/>
      <point x="1234" y="1040" type="curve"/>
      <point x="1525" y="1040" type="line"/>
      <point x="1543" y="1350"/>
      <point x="1326" y="1556"/>
      <point x="977" y="1556" type="curve" smooth="yes"/>
      <point x="543" y="1556"/>
      <point x="207" y="1230"/>
      <point x="132" y="761" type="curve" smooth="yes"/>
      <point x="54" y="298"/>
      <point x="270" y="-31"/>
    </contour>
  </outline>
</glyph>
<glyph name="d" format="2">
  <advance width="1765"/>
  <unicode hex="0064"/>
  <outline>
    <contour>
      <point x="648" y="-30" type="curve" smooth="yes"/>
      <point x="927" y="-30"/>
      <point x="1065" y="141"/>
      <point x="1136" y="239" type="curve"/>
      <point x="1160" y="239" type="line"/>
      <point x="1120" y="0" type="line"/>
      <point x="1412" y="0" type="line"/>
      <point x="1752" y="2048" type="line"/>
      <point x="1453" y="2048" type="line"/>
      <point x="1326" y="1287" type="line"/>
      <point x="1308" y="1287" type="line"/>
      <point x="1271" y="1382"/>
      <point x="1197" y="1556"/>
      <point x="912" y="1556" type="curve" smooth="yes"/>
      <point x="540" y="1556"/>
      <point x="218" y="1263"/>
      <point x="135" y="765" type="curve" smooth="yes"/>
      <point x="54" y="268"/>
      <point x="274" y="-30"/>
    </contour>
    <contour>
      <point x="749" y="225" type="curve" smooth="yes"/>
      <point x="481" y="225"/>
      <point x="388" y="460"/>
      <point x="439" y="768" type="curve" smooth="yes"/>
      <point x="489" y="1073"/>
      <point x="657" y="1302"/>
      <point x="926" y="1302" type="curve" smooth="yes"/>
      <point x="1188" y="1302"/>
      <point x="1299" y="1089"/>
      <point x="1246" y="768" type="curve" smooth="yes"/>
      <point x="1193" y="445"/>
      <point x="1006" y="225"/>
    </contour>
  </outline>
</glyph>
<glyph name="e" format="2">
  <advance width="1658"/>
  <unicode hex="0065"/>
  <outline>
    <contour>
      <point x="731" y="-31" type="curve" smooth="yes"/>
      <point x="1067" y="-31"/>
      <point x="1330" y="134"/>
      <point x="1440" y="384" type="curve"/>
      <point x="1166" y="435" type="line"/>
      <point x="1087" y="290"/>
      <point x="949" y="216"/>
      <point x="775" y="216" type="curve" smooth="yes"/>
      <point x="504" y="216"/>
      <point x="362" y="345"/>
      <point x="415" y="680" type="curve" smooth="yes"/>
      <point x="450" y="885" type="line" smooth="yes"/>
      <point x="485" y="1091"/>
      <point x="695" y="1309"/>
      <point x="935" y="1309" type="curve" smooth="yes"/>
      <point x="1168" y="1309"/>
      <point x="1290" y="1137"/>
      <point x="1250" y="902" type="curve"/>
      <point x="322" y="902" type="line"/>
      <point x="287" y="678" type="line"/>
      <point x="1509" y="678" type="line"/>
      <point x="1526" y="784" type="line" smooth="yes"/>
      <point x="1619" y="1339"/>
      <point x="1323" y="1556"/>
      <point x="974" y="1556" type="curve" smooth="yes"/>
      <point x="546" y="1556"/>
      <point x="210" y="1230"/>
      <point x="132" y="758" type="curve" smooth="yes"/>
      <point x="52" y="281"/>
      <point x="278" y="-31"/>
    </contour>
  </outline>
</glyph>
<glyph name="g" format="2">
  <advance width="1738"/>
  <unicode hex="0067"/>
  <outline>
    <contour>
      <point x="621" y="-605" type="curve" smooth="yes"/>
      <point x="1010" y="-605"/>
      <point x="1342" y="-426"/>
      <point x="1406" y="-34" type="curve" smooth="yes"/>
      <point x="1666" y="1536" type="line"/>
      <point x="1373" y="1536" type="line"/>
      <point x="1332" y="1287" type="line"/>
      <point x="1310" y="1287" type="line"/>
      <point x="1273" y="1382"/>
      <point x="1196" y="1556"/>
      <point x="910" y="1556" type="curve" smooth="yes"/>
      <point x="539" y="1556"/>
      <point x="217" y="1263"/>
      <point x="137" y="774" type="curve" smooth="yes"/>
      <point x="55" y="284"/>
      <point x="291" y="23"/>
      <point x="655" y="23" type="curve" smooth="yes"/>
      <point x="936" y="23"/>
      <point x="1072" y="182"/>
      <point x="1140" y="280" type="curve"/>
      <point x="1159" y="280" type="line"/>
      <point x="1112" y="-22" type="line" smooth="yes"/>
      <point x="1072" y="-259"/>
      <point x="884" y="-364"/>
      <point x="658" y="-364" type="curve" smooth="yes"/>
      <point x="407" y="-364"/>
      <point x="338" y="-239"/>
      <point x="298" y="-154" type="curve"/>
      <point x="22" y="-260" type="line"/>
      <point x="74" y="-445"/>
      <point x="252" y="-605"/>
    </contour>
    <contour>
      <point x="757" y="271" type="curve" smooth="yes"/>
      <point x="488" y="271"/>
      <point x="390" y="476"/>
      <point x="439" y="778" type="curve" smooth="yes"/>
      <point x="488" y="1073"/>
      <point x="653" y="1302"/>
      <point x="925" y="1302" type="curve" smooth="yes"/>
      <point x="1184" y="1302"/>
      <point x="1298" y="1089"/>
      <point x="1246" y="778" type="curve" smooth="yes"/>
      <point x="1194" y="461"/>
      <point x="1013" y="271"/>
    </contour>
  </outline>
</glyph>
<glyph name="h" format="2">
  <advance width="1695"/>
  <unicode hex="0068"/>
  <note>
based on "n" and made slightly wider, brining the top vertical stem with it out.
</note>
  <outline>
    <contour>
      <point x="523" y="912" type="line" smooth="yes"/>
      <point x="566" y="1157"/>
      <point x="744" y="1297"/>
      <point x="957" y="1297" type="curve" smooth="yes"/>
      <point x="1161" y="1297"/>
      <point x="1263" y="1166"/>
      <point x="1226" y="941" type="curve" smooth="yes"/>
      <point x="1070" y="0" type="line"/>
      <point x="1369" y="0" type="line"/>
      <point x="1533" y="977" type="line" smooth="yes"/>
      <point x="1595" y="1361"/>
      <point x="1417" y="1556"/>
      <point x="1102" y="1556" type="curve" smooth="yes"/>
      <point x="862" y="1556"/>
      <point x="699" y="1453"/>
      <point x="602" y="1286" type="curve"/>
      <point x="583" y="1286" type="line"/>
      <point x="709" y="2048" type="line"/>
      <point x="414" y="2048" type="line"/>
      <point x="74" y="0" type="line"/>
      <point x="373" y="0" type="line"/>
    </contour>
  </outline>
</glyph>
<glyph name="k" format="2">
  <advance width="1567"/>
  <unicode hex="006B"/>
  <outline>
    <contour>
      <point x="434" y="521" type="line"/>
      <point x="757" y="796" type="line"/>
      <point x="804" y="796" type="line"/>
      <point x="1624" y="1536" type="line"/>
      <point x="1266" y="1536" type="line"/>
      <point x="544" y="886" type="line"/>
      <point x="491" y="886" type="line"/>
    </contour>
    <contour>
      <point x="73" y="0" type="line"/>
      <point x="372" y="0" type="line"/>
      <point x="712" y="2048" type="line"/>
      <point x="413" y="2048" type="line"/>
    </contour>
    <contour>
      <point x="1043" y="0" type="line"/>
      <point x="1410" y="0" type="line"/>
      <point x="854" y="939" type="line"/>
      <point x="615" y="730" type="line"/>
    </contour>
  </outline>
</glyph>
<glyph name="m" format="2">
  <advance width="2488"/>
  <unicode hex="006D"/>
  <outline>
    <contour>
      <point x="74" y="0" type="line"/>
      <point x="373" y="0" type="line"/>
      <point x="531" y="947" type="line" smooth="yes"/>
      <point x="564" y="1153"/>
      <point x="734" y="1298"/>
      <point x="904" y="1298" type="curve" smooth="yes"/>
      <point x="1071" y="1298"/>
      <point x="1166" y="1188"/>
      <point x="1140" y="1021" type="curve" smooth="yes"/>
      <point x="969" y="0" type="line"/>
      <point x="1266" y="0" type="line"/>
      <point x="1431" y="979" type="line" smooth="yes"/>
      <point x="1461" y="1166"/>
      <point x="1596" y="1298"/>
      <point x="1791" y="1298" type="curve" smooth="yes"/>
      <point x="1949" y="1298"/>
      <point x="2063" y="1211"/>
      <point x="2030" y="1002" type="curve" smooth="yes"/>
      <point x="1862" y="0" type="line"/>
      <point x="2162" y="0" type="line"/>
      <point x="2334" y="1030" type="line" smooth="yes"/>
      <point x="2392" y="1381"/>
      <point x="2224" y="1556"/>
      <point x="1948" y="1556" type="curve" smooth="yes"/>
      <point x="1726" y="1556"/>
      <point x="1541" y="1451"/>
      <point x="1442" y="1286" type="curve"/>
      <point x="1426" y="1286" type="line"/>
      <point x="1387" y="1454"/>
      <point x="1260" y="1556"/>
      <point x="1058" y="1556" type="curve" smooth="yes"/>
      <point x="855" y="1556"/>
      <point x="687" y="1455"/>
      <point x="594" y="1286" type="curve"/>
      <point x="575" y="1286" type="line"/>
      <point x="617" y="1536" type="line"/>
      <point x="330" y="1536" type="line"/>
    </contour>
  </outline>
</glyph>
<glyph name="n" format="2">
  <advance width="1682"/>
  <unicode hex="006E"/>
  <outline>
    <contour>
      <point x="523" y="912" type="line" smooth="yes"/>
      <point x="567" y="1157"/>
      <point x="738" y="1297"/>
      <point x="947" y="1297" type="curve" smooth="yes"/>
      <point x="1151" y="1297"/>
      <point x="1251" y="1163"/>
      <point x="1214" y="941" type="curve" smooth="yes"/>
      <point x="1057" y="0" type="line"/>
      <point x="1356" y="0" type="line"/>
      <point x="1520" y="977" type="line" smooth="yes"/>
      <point x="1583" y="1358"/>
      <point x="1404" y="1556"/>
      <point x="1093" y="1556" type="curve" smooth="yes"/>
      <point x="862" y="1556"/>
      <point x="691" y="1450"/>
      <point x="594" y="1286" type="curve"/>
      <point x="575" y="1286" type="line"/>
      <point x="617" y="1536" type="line"/>
      <point x="330" y="1536" type="line"/>
      <point x="74" y="0" type="line"/>
      <point x="373" y="0" type="line"/>
    </contour>
  </outline>
</glyph>
<glyph name="o" format="2">
  <advance width="1696"/>
  <unicode hex="006F"/>
  <outline>
    <contour>
      <point x="729" y="-31" type="curve" smooth="yes"/>
      <point x="1155" y="-31"/>
      <point x="1484" y="279"/>
      <point x="1561" y="748" type="curve" smooth="yes"/>
      <point x="1639" y="1233"/>
      <point x="1406" y="1556"/>
      <point x="967" y="1556" type="curve" smooth="yes"/>
      <point x="540" y="1556"/>
      <point x="211" y="1246"/>
      <point x="135" y="774" type="curve" smooth="yes"/>
      <point x="57" y="292"/>
      <point x="290" y="-31"/>
    </contour>
    <contour>
      <point x="746" y="220" type="curve" smooth="yes"/>
      <point x="470" y="220"/>
      <point x="384" y="461"/>
      <point x="430" y="749" type="curve" smooth="yes"/>
      <point x="479" y="1050"/>
      <point x="662" y="1306"/>
      <point x="950" y="1306" type="curve" smooth="yes"/>
      <point x="1226" y="1306"/>
      <point x="1312" y="1063"/>
      <point x="1266" y="774" type="curve" smooth="yes"/>
      <point x="1217" y="473"/>
      <point x="1033" y="220"/>
    </contour>
  </outline>
</glyph>
<glyph name="p" format="2">
  <advance width="1738"/>
  <unicode hex="0070"/>
  <outline>
    <contour>
      <point x="-23" y="-576" type="line"/>
      <point x="276" y="-576" type="line"/>
      <point x="412" y="239" type="line"/>
      <point x="430" y="239" type="line"/>
      <point x="470" y="141"/>
      <point x="550" y="-30"/>
      <point x="830" y="-30" type="curve" smooth="yes"/>
      <point x="1202" y="-30"/>
      <point x="1522" y="268"/>
      <point x="1604" y="765" type="curve" smooth="yes"/>
      <point x="1686" y="1263"/>
      <point x="1462" y="1556"/>
      <point x="1091" y="1556" type="curve" smooth="yes"/>
      <point x="806" y="1556"/>
      <point x="673" y="1382"/>
      <point x="605" y="1287" type="curve"/>
      <point x="580" y="1287" type="line"/>
      <point x="621" y="1536" type="line"/>
      <point x="329" y="1536" type="line"/>
    </contour>
    <contour>
      <point x="494" y="768" type="curve" smooth="yes"/>
      <point x="546" y="1089"/>
      <point x="723" y="1302"/>
      <point x="984" y="1302" type="curve" smooth="yes"/>
      <point x="1254" y="1302"/>
      <point x="1350" y="1073"/>
      <point x="1302" y="768" type="curve" smooth="yes"/>
      <point x="1249" y="460"/>
      <point x="1074" y="225"/>
      <point x="806" y="225" type="curve" smooth="yes"/>
      <point x="549" y="225"/>
      <point x="442" y="445"/>
    </contour>
  </outline>
</glyph>
<glyph name="r" format="2">
  <advance width="1086"/>
  <unicode hex="0072"/>
  <outline>
    <contour>
      <point x="73" y="0" type="line"/>
      <point x="372" y="0" type="line"/>
      <point x="526" y="938" type="line" smooth="yes"/>
      <point x="562" y="1139"/>
      <point x="740" y="1284"/>
      <point x="951" y="1284" type="curve" smooth="yes"/>
      <point x="1014" y="1284"/>
      <point x="1083" y="1273"/>
      <point x="1106" y="1266" type="curve"/>
      <point x="1154" y="1552" type="line"/>
      <point x="1123" y="1558"/>
      <point x="1066" y="1559"/>
      <point x="1028" y="1559" type="curve" smooth="yes"/>
      <point x="848" y="1559"/>
      <point x="675" y="1457"/>
      <point x="593" y="1292" type="curve"/>
      <point x="577" y="1292" type="line"/>
      <point x="618" y="1536" type="line"/>
      <point x="329" y="1536" type="line"/>
    </contour>
  </outline>
</glyph>
<glyph name="s" format="2">
  <advance width="1509"/>
  <unicode hex="0073"/>
  <outline>
    <contour>
      <point x="1418" y="1161" type="line"/>
      <point x="1394" y="1402"/>
      <point x="1232" y="1556"/>
      <point x="897" y="1556" type="curve" smooth="yes"/>
      <point x="553" y="1556"/>
      <point x="279" y="1376"/>
      <point x="234" y="1107" type="curve" smooth="yes"/>
      <point x="196" y="886"/>
      <point x="308" y="740"/>
      <point x="586" y="675" type="curve" smooth="yes"/>
      <point x="834" y="618" type="line" smooth="yes"/>
      <point x="979" y="584"/>
      <point x="1034" y="523"/>
      <point x="1018" y="428" type="curve" smooth="yes"/>
      <point x="999" y="307"/>
      <point x="851" y="209"/>
      <point x="652" y="210" type="curve" smooth="yes"/>
      <point x="477" y="210"/>
      <point x="377" y="287"/>
      <point x="366" y="438" type="curve"/>
      <point x="70" y="394" type="line"/>
      <point x="76" y="123"/>
      <point x="278" y="-31"/>
      <point x="628" y="-31" type="curve" smooth="yes"/>
      <point x="995" y="-31"/>
      <point x="1282" y="163"/>
      <point x="1328" y="438" type="curve" smooth="yes"/>
      <point x="1364" y="659"/>
      <point x="1246" y="794"/>
      <point x="974" y="859" type="curve" smooth="yes"/>
      <point x="738" y="915" type="line" smooth="yes"/>
      <point x="577" y="955"/>
      <point x="517" y="1011"/>
      <point x="534" y="1110" type="curve" smooth="yes"/>
      <point x="553" y="1232"/>
      <point x="698" y="1319"/>
      <point x="870" y="1319" type="curve" smooth="yes"/>
      <point x="1056" y="1319"/>
      <point x="1121" y="1218"/>
      <point x="1139" y="1113" type="curve"/>
    </contour>
  </outline>
</glyph>
<glyph name="t" format="2">
  <advance width="1047"/>
  <unicode hex="0074"/>
  <outline>
    <contour>
      <point x="1046" y="1536" type="line"/>
      <point x="207" y="1536" type="line"/>
      <point x="168" y="1296" type="line"/>
      <point x="1007" y="1296" type="line"/>
    </contour>
    <component base="_part.t_base"/>
  </outline>
</glyph>
<glyph name="u" format="2">
  <advance width="1674"/>
  <unicode hex="0075"/>
  <outline>
    <contour>
      <point x="1152" y="637" type="line" smooth="yes"/>
      <point x="1109" y="376"/>
      <point x="896" y="252"/>
      <point x="728" y="252" type="curve" smooth="yes"/>
      <point x="543" y="252"/>
      <point x="438" y="386"/>
      <point x="471" y="595" type="curve" smooth="yes"/>
      <point x="628" y="1536" type="line"/>
      <point x="329" y="1536" type="line"/>
      <point x="165" y="559" type="line" smooth="yes"/>
      <point x="103" y="178"/>
      <point x="278" y="-20"/>
      <point x="573" y="-20" type="curve" smooth="yes"/>
      <point x="804" y="-20"/>
      <point x="985" y="102"/>
      <point x="1081" y="266" type="curve"/>
      <point x="1097" y="266" type="line"/>
      <point x="1052" y="0" type="line"/>
      <point x="1346" y="0" type="line"/>
      <point x="1602" y="1536" type="line"/>
      <point x="1302" y="1536" type="line"/>
    </contour>
  </outline>
</glyph>
<glyph name="v" format="2">
  <advance width="1595"/>
  <unicode hex="0076"/>
  <outline>
    <contour>
      <point x="1643" y="1536" type="line"/>
      <point x="1310" y="1536" type="line"/>
      <point x="725" y="354" type="line"/>
      <point x="709" y="354" type="line"/>
      <point x="517" y="1536" type="line"/>
      <point x="208" y="1536" type="line"/>
      <point x="510" y="0" type="line"/>
      <point x="830" y="0" type="line"/>
    </contour>
  </outline>
</glyph>
<glyph name="w" format="2">
  <advance width="2323"/>
  <unicode hex="0077"/>
  <outline>
    <contour>
      <point x="406" y="0" type="line"/>
      <point x="710" y="0" type="line"/>
      <point x="1206" y="1109" type="line"/>
      <point x="1229" y="1109" type="line"/>
      <point x="1357" y="0" type="line"/>
      <point x="1662" y="0" type="line"/>
      <point x="2369" y="1536" type="line"/>
      <point x="2060" y="1536" type="line"/>
      <point x="1573" y="413" type="line"/>
      <point x="1558" y="413" type="line"/>
      <point x="1446" y="1536" type="line"/>
      <point x="1137" y="1536" type="line"/>
      <point x="647" y="408" type="line"/>
      <point x="632" y="408" type="line"/>
      <point x="519" y="1536" type="line"/>
      <point x="210" y="1536" type="line"/>
    </contour>
  </outline>
</glyph>
<glyph name="x" format="2">
  <advance width="1552"/>
  <unicode hex="0078"/>
  <outline>
    <contour>
      <point x="565" y="1536" type="line"/>
      <point x="237" y="1536" type="line"/>
      <point x="581" y="768" type="line"/>
      <point x="-25" y="0" type="line"/>
      <point x="303" y="0" type="line"/>
      <point x="744" y="574" type="line"/>
      <point x="994" y="0" type="line"/>
      <point x="1321" y="0" type="line"/>
      <point x="966" y="768" type="line"/>
      <point x="1573" y="1536" type="line"/>
      <point x="1246" y="1536" type="line"/>
      <point x="805" y="938" type="line"/>
    </contour>
  </outline>
</glyph>
<glyph name="y" format="2">
  <advance width="1597"/>
  <unicode hex="0079"/>
  <outline>
    <contour>
      <point x="168" y="-572" type="curve" smooth="yes"/>
      <point x="411" y="-572"/>
      <point x="593" y="-448"/>
      <point x="722" y="-203" type="curve" smooth="yes"/>
      <point x="1643" y="1536" type="line"/>
      <point x="1310" y="1536" type="line"/>
      <point x="722" y="341" type="line"/>
      <point x="706" y="341" type="line"/>
      <point x="516" y="1536" type="line"/>
      <point x="208" y="1536" type="line"/>
      <point x="509" y="-14" type="line"/>
      <point x="453" y="-115" type="line" smooth="yes"/>
      <point x="340" y="-314"/>
      <point x="239" y="-339"/>
      <point x="82" y="-294" type="curve"/>
      <point x="-32" y="-539" type="line"/>
      <point x="2" y="-556"/>
      <point x="78" y="-572"/>
    </contour>
  </outline>
</glyph>
<glyph name="z" format="2">
  <advance width="1554"/>
  <unicode hex="007A"/>
  <outline>
    <contour>
      <point x="42" y="0" type="line"/>
      <point x="1275" y="0" type="line"/>
      <point x="1318" y="260" type="line"/>
      <point x="490" y="260" type="line"/>
      <point x="494" y="274" type="line"/>
      <point x="1467" y="1318" type="line"/>
      <point x="1503" y="1536" type="line"/>
      <point x="325" y="1536" type="line"/>
      <point x="282" y="1276" type="line"/>
      <point x="1086" y="1276" type="line"/>
      <point x="1082" y="1262" type="line"/>
      <point x="77" y="205" type="line"/>
    </contour>
  </outline>
</glyph>
<glyph name="braceleft" format="2">
  <advance width="1064"/>
  <unicode hex="007B"/>
  <outline>
    <contour>
      <point x="110" y="844" type="line"/>
      <point x="598" y="844"/>
      <point x="719" y="996"/>
      <point x="751" y="1202" type="curve" smooth="yes"/>
      <point x="813" y="1566" type="line" smooth="yes"/>
      <point x="847" y="1789"/>
      <point x="930" y="1888"/>
      <point x="1163" y="1888" type="curve"/>
      <point x="1202" y="2125" type="line"/>
      <point x="806" y="2125"/>
      <point x="601" y="1991"/>
      <point x="535" y="1581" type="curve" smooth="yes"/>
      <point x="489" y="1294" type="line" smooth="yes"/>
      <point x="454" y="1078"/>
      <point x="361" y="994"/>
      <point x="135" y="994" type="curve"/>
    </contour>
    <contour>
      <point x="780" y="-426" type="curve"/>
      <point x="819" y="-189" type="line"/>
      <point x="586" y="-189"/>
      <point x="537" y="-90"/>
      <point x="574" y="133" type="curve" smooth="yes"/>
      <point x="636" y="497" type="line" smooth="yes"/>
      <point x="668" y="703"/>
      <point x="599" y="855"/>
      <point x="111" y="855" type="curve"/>
      <point x="87" y="706" type="line"/>
      <point x="314" y="706"/>
      <point x="373" y="621"/>
      <point x="338" y="406" type="curve" smooth="yes"/>
      <point x="292" y="118" type="line" smooth="yes"/>
      <point x="226" y="-291"/>
      <point x="384" y="-426"/>
    </contour>
    <contour>
      <point x="83" y="706" type="line"/>
      <point x="360" y="706" type="line"/>
      <point x="408" y="994" type="line"/>
      <point x="131" y="994" type="line"/>
    </contour>
  </outline>
</glyph>
<glyph name="asciitilde" format="2">
  <advance width="1875"/>
  <unicode hex="007E"/>
  <outline>
    <contour>
      <point x="196" y="590" type="curve"/>
      <point x="449" y="590" type="line"/>
      <point x="475" y="762"/>
      <point x="561" y="830"/>
      <point x="664" y="830" type="curve" smooth="yes"/>
      <point x="735" y="830"/>
      <point x="782" y="806"/>
      <point x="862" y="726" type="curve" smooth="yes"/>
      <point x="987" y="601"/>
      <point x="1075" y="545"/>
      <point x="1210" y="545" type="curve" smooth="yes"/>
      <point x="1434" y="545"/>
      <point x="1645" y="692"/>
      <point x="1694" y="1039" type="curve"/>
      <point x="1441" y="1039" type="line"/>
      <point x="1417" y="879"/>
      <point x="1334" y="799"/>
      <point x="1225" y="799" type="curve" smooth="yes"/>
      <point x="1154" y="799"/>
      <point x="1109" y="833"/>
      <point x="1030" y="911" type="curve" smooth="yes"/>
      <point x="904" y="1038"/>
      <point x="813" y="1092"/>
      <point x="680" y="1092" type="curve" smooth="yes"/>
      <point x="454" y="1092"/>
      <point x="247" y="938"/>
    </contour>
  </outline>
</glyph>
<glyph name="sterling" format="2">
  <advance width="1814"/>
  <unicode hex="00A3"/>
  <outline>
    <contour>
      <point x="1461" y="0" type="line"/>
      <point x="1505" y="266" type="line"/>
      <point x="105" y="266" type="line"/>
      <point x="61" y="0" type="line"/>
    </contour>
    <contour>
      <point x="1174" y="802" type="line"/>
      <point x="1220" y="1068" type="line"/>
      <point x="233" y="1068" type="line"/>
      <point x="186" y="802" type="line"/>
    </contour>
    <contour>
      <point x="794" y="1442" type="line" smooth="yes"/>
      <point x="839" y="1698"/>
      <point x="1020" y="1814"/>
      <point x="1190" y="1814" type="curve" smooth="yes"/>
      <point x="1352" y="1814"/>
      <point x="1490" y="1715"/>
      <point x="1439" y="1520" type="curve"/>
      <point x="1720" y="1474" type="line"/>
      <point x="1830" y="1791"/>
      <point x="1615" y="2076"/>
      <point x="1222" y="2076" type="curve" smooth="yes"/>
      <point x="890" y="2076"/>
      <point x="552" y="1862"/>
      <point x="498" y="1442" type="curve" smooth="yes"/>
      <point x="382" y="571" type="line" smooth="yes"/>
      <point x="367" y="456"/>
      <point x="312" y="272"/>
      <point x="202" y="266" type="curve"/>
      <point x="446" y="187" type="line"/>
      <point x="595" y="266"/>
      <point x="662" y="406"/>
      <point x="683" y="579" type="curve" smooth="yes"/>
    </contour>
  </outline>
</glyph>
<glyph name="currency" format="2">
  <advance width="2075"/>
  <unicode hex="00A4"/>
  <outline>
    <contour>
      <point x="902" y="-28" type="curve" smooth="yes"/>
      <point x="1356" y="-28"/>
      <point x="1792" y="348"/>
      <point x="1873" y="836" type="curve" smooth="yes"/>
      <point x="1952" y="1324"/>
      <point x="1640" y="1696"/>
      <point x="1186" y="1696" type="curve" smooth="yes"/>
      <point x="729" y="1696"/>
      <point x="300" y="1324"/>
      <point x="221" y="836" type="curve"/>
      <point x="140" y="348"/>
      <point x="445" y="-28"/>
    </contour>
    <contour>
      <point x="940" y="206" type="curve" smooth="yes"/>
      <point x="612" y="206"/>
      <point x="393" y="489"/>
      <point x="453" y="836" type="curve"/>
      <point x="512" y="1187"/>
      <point x="820" y="1466"/>
      <point x="1148" y="1466" type="curve" smooth="yes"/>
      <point x="1474" y="1466"/>
      <point x="1694" y="1187"/>
      <point x="1635" y="836" type="curve" smooth="yes"/>
      <point x="1576" y="489"/>
      <point x="1266" y="206"/>
    </contour>
    <contour>
      <point x="1706" y="1267" type="line"/>
      <point x="2037" y="1551" type="line"/>
      <point x="1892" y="1729" type="line"/>
      <point x="1566" y="1445" type="line"/>
    </contour>
    <contour>
      <point x="1598" y="-25" type="line"/>
      <point x="1802" y="153" type="line"/>
      <point x="1568" y="433" type="line"/>
      <point x="1368" y="259" type="line"/>
    </contour>
    <contour>
      <point x="210" y="-25" type="line"/>
      <point x="540" y="259" type="line"/>
      <point x="395" y="433" type="line"/>
      <point x="69" y="153" type="line"/>
    </contour>
    <contour>
      <point x="534" y="1267" type="line"/>
      <point x="738" y="1445" type="line"/>
      <point x="503" y="1729" type="line"/>
      <point x="303" y="1551" type="line"/>
    </contour>
  </outline>
</glyph>
<glyph name="yen" format="2">
  <advance width="1566"/>
  <unicode hex="00A5"/>
  <note>
line up with uni20BD
</note>
  <outline>
    <contour>
      <point x="584" y="2048" type="line"/>
      <point x="252" y="2048" type="line"/>
      <point x="643" y="817" type="line"/>
      <point x="892" y="944" type="line"/>
    </contour>
    <contour>
      <point x="736" y="947" type="line"/>
      <point x="935" y="817" type="line"/>
      <point x="1738" y="2048" type="line"/>
      <point x="1406" y="2048" type="line"/>
    </contour>
    <contour>
      <point x="987" y="1077" type="line"/>
      <point x="679" y="1077" type="line"/>
      <point x="499" y="0" type="line"/>
      <point x="807" y="0" type="line"/>
    </contour>
    <contour>
      <point x="1411" y="1032" type="line"/>
      <point x="226" y="1032" type="line"/>
      <point x="194" y="830" type="line"/>
      <point x="1379" y="830" type="line"/>
    </contour>
    <contour>
      <point x="1347" y="636" type="line"/>
      <point x="162" y="636" type="line"/>
      <point x="129" y="434" type="line"/>
      <point x="1314" y="434" type="line"/>
    </contour>
  </outline>
</glyph>
<glyph name="brokenbar" format="2">
  <advance width="822"/>
  <unicode hex="00A6"/>
  <outline>
    <contour>
      <point x="239" y="558" type="line"/>
      <point x="82" y="-384" type="line"/>
      <point x="356" y="-384" type="line"/>
      <point x="513" y="558" type="line"/>
    </contour>
    <contour>
      <point x="760" y="2048" type="line"/>
      <point x="486" y="2048" type="line"/>
      <point x="330" y="1110" type="line"/>
      <point x="603" y="1110" type="line"/>
    </contour>
  </outline>
</glyph>
<glyph name="section" format="2">
  <advance width="1591"/>
  <unicode hex="00A7"/>
  <note>
composed of "S" scaled down with RMX Tuner in temporary duplicate file
</note>
  <outline>
    <contour>
      <point x="1446" y="1556" type="line"/>
      <point x="1495" y="1859"/>
      <point x="1326" y="2076"/>
      <point x="1004" y="2076" type="curve" smooth="yes"/>
      <point x="702" y="2076"/>
      <point x="457" y="1886"/>
      <point x="412" y="1625" type="curve" smooth="yes"/>
      <point x="390" y="1488"/>
      <point x="433" y="1379"/>
      <point x="506" y="1290" type="curve"/>
      <point x="506" y="1284" type="line"/>
      <point x="356" y="1242"/>
      <point x="209" y="1100"/>
      <point x="179" y="948" type="curve" smooth="yes"/>
      <point x="129" y="685"/>
      <point x="309" y="553"/>
      <point x="407" y="497" type="curve" smooth="yes"/>
      <point x="757" y="290" type="line" smooth="yes"/>
      <point x="838" y="240"/>
      <point x="944" y="175"/>
      <point x="922" y="39" type="curve" smooth="yes"/>
      <point x="901" y="-92"/>
      <point x="767" y="-154"/>
      <point x="634" y="-154" type="curve" smooth="yes"/>
      <point x="462" y="-157"/>
      <point x="357" y="-61"/>
      <point x="385" y="112" type="curve"/>
      <point x="105" y="112" type="line"/>
      <point x="52" y="-213"/>
      <point x="255" y="-415"/>
      <point x="589" y="-415" type="curve" smooth="yes"/>
      <point x="877" y="-415"/>
      <point x="1151" y="-263"/>
      <point x="1201" y="39" type="curve" smooth="yes"/>
      <point x="1222" y="175"/>
      <point x="1193" y="290"/>
      <point x="1105" y="379" type="curve"/>
      <point x="1107" y="383" type="line"/>
      <point x="1245" y="424"/>
      <point x="1402" y="562"/>
      <point x="1433" y="716" type="curve" smooth="yes"/>
      <point x="1487" y="978"/>
      <point x="1303" y="1107"/>
      <point x="1210" y="1163" type="curve" smooth="yes"/>
      <point x="856" y="1374" type="line" smooth="yes"/>
      <point x="773" y="1422"/>
      <point x="670" y="1513"/>
      <point x="690" y="1625" type="curve" smooth="yes"/>
      <point x="708" y="1723"/>
      <point x="805" y="1816"/>
      <point x="960" y="1816" type="curve" smooth="yes"/>
      <point x="1132" y="1816"/>
      <point x="1194" y="1705"/>
      <point x="1170" y="1556" type="curve"/>
    </contour>
    <contour>
      <point x="1168" y="709" type="curve" smooth="yes"/>
      <point x="1145" y="571"/>
      <point x="983" y="483"/>
      <point x="913" y="525" type="curve"/>
      <point x="586" y="718" type="line" smooth="yes"/>
      <point x="493" y="774"/>
      <point x="423" y="846"/>
      <point x="443" y="955" type="curve" smooth="yes"/>
      <point x="469" y="1095"/>
      <point x="616" y="1190"/>
      <point x="691" y="1145" type="curve"/>
      <point x="1029" y="942" type="line" smooth="yes"/>
      <point x="1123" y="889"/>
      <point x="1189" y="809"/>
    </contour>
  </outline>
</glyph>
<glyph name="dieresis" format="2">
  <advance width="1611"/>
  <unicode hex="00A8"/>
  <outline>
    <contour>
      <point x="695" y="1777" type="curve" smooth="yes"/>
      <point x="789" y="1777"/>
      <point x="868" y="1849"/>
      <point x="881" y="1932" type="curve" smooth="yes"/>
      <point x="898" y="2041"/>
      <point x="827" y="2126"/>
      <point x="718" y="2126" type="curve" smooth="yes"/>
      <point x="633" y="2126"/>
      <point x="547" y="2060"/>
      <point x="534" y="1970" type="curve" smooth="yes"/>
      <point x="518" y="1868"/>
      <point x="594" y="1777"/>
    </contour>
    <contour>
      <point x="1283" y="1777" type="curve" smooth="yes"/>
      <point x="1377" y="1777"/>
      <point x="1456" y="1849"/>
      <point x="1469" y="1932" type="curve" smooth="yes"/>
      <point x="1486" y="2041"/>
      <point x="1415" y="2126"/>
      <point x="1306" y="2126" type="curve" smooth="yes"/>
      <point x="1221" y="2126"/>
      <point x="1137" y="2060"/>
      <point x="1122" y="1970" type="curve" smooth="yes"/>
      <point x="1104" y="1865"/>
      <point x="1182" y="1777"/>
    </contour>
  </outline>
</glyph>
<glyph name="copyright" format="2">
  <advance width="2576"/>
  <unicode hex="00A9"/>
  <note>
Stroke R: 116
Stroke B: 160
</note>
  <outline>
    <contour>
      <point x="755" y="1024" type="curve" smooth="yes"/>
      <point x="702" y="702"/>
      <point x="920" y="440"/>
      <point x="1243" y="440" type="curve" smooth="yes"/>
      <point x="1523" y="440"/>
      <point x="1776" y="639"/>
      <point x="1855" y="902" type="curve"/>
      <point x="1595" y="902" type="line"/>
      <point x="1547" y="778"/>
      <point x="1409" y="690"/>
      <point x="1265" y="690" type="curve" smooth="yes"/>
      <point x="1080" y="690"/>
      <point x="976" y="849"/>
      <point x="1005" y="1024" type="curve" smooth="yes"/>
      <point x="1037" y="1222"/>
      <point x="1228" y="1358"/>
      <point x="1411" y="1358" type="curve" smooth="yes"/>
      <point x="1557" y="1358"/>
      <point x="1647" y="1272"/>
      <point x="1651" y="1146" type="curve"/>
      <point x="1911" y="1146" type="line"/>
      <point x="1919" y="1409"/>
      <point x="1716" y="1608"/>
      <point x="1436" y="1608" type="curve" smooth="yes"/>
      <point x="1113" y="1608"/>
      <point x="808" y="1346"/>
    </contour>
    <component base="circlewhite" xOffset="2"/>
  </outline>
</glyph>
<glyph name="ordfeminine" format="2">
  <advance width="1300"/>
  <unicode hex="00AA"/>
  <outline>
    <contour>
      <point x="887" y="1184" type="line"/>
      <point x="875" y="1110"/>
      <point x="876" y="1034"/>
      <point x="884" y="971" type="curve"/>
      <point x="1130" y="971" type="line"/>
      <point x="1117" y="1054"/>
      <point x="1122" y="1135"/>
      <point x="1138" y="1220" type="curve" smooth="yes"/>
      <point x="1210" y="1652" type="line"/>
      <point x="1250" y="1904"/>
      <point x="1108" y="2032"/>
      <point x="866" y="2032" type="curve" smooth="yes"/>
      <point x="604" y="2032"/>
      <point x="414" y="1896"/>
      <point x="382" y="1711" type="curve"/>
      <point x="617" y="1692" type="line"/>
      <point x="633" y="1780"/>
      <point x="713" y="1828"/>
      <point x="834" y="1828" type="curve" smooth="yes"/>
      <point x="943" y="1828"/>
      <point x="983" y="1766"/>
      <point x="967" y="1652" type="curve"/>
    </contour>
    <contour>
      <point x="1016" y="1583" type="line"/>
      <point x="814" y="1583" type="line"/>
      <point x="495" y="1583"/>
      <point x="318" y="1468"/>
      <point x="286" y="1264" type="curve" smooth="yes"/>
      <point x="254" y="1076"/>
      <point x="359" y="952"/>
      <point x="581" y="952" type="curve" smooth="yes"/>
      <point x="770" y="952"/>
      <point x="891" y="1058"/>
      <point x="948" y="1147" type="curve"/>
      <point x="948" y="1308" type="line"/>
      <point x="940" y="1240"/>
      <point x="786" y="1151"/>
      <point x="674" y="1151" type="curve" smooth="yes"/>
      <point x="561" y="1151"/>
      <point x="520" y="1196"/>
      <point x="532" y="1271" type="curve" smooth="yes"/>
      <point x="544" y="1351"/>
      <point x="626" y="1423"/>
      <point x="786" y="1423" type="curve"/>
      <point x="988" y="1423" type="line"/>
    </contour>
  </outline>
</glyph>
<glyph name="logicalnot" format="2">
  <advance width="1558"/>
  <unicode hex="00AC"/>
  <outline>
    <contour>
      <point x="1417" y="1108" type="line"/>
      <point x="258" y="1108" type="line"/>
      <point x="218" y="872" type="line"/>
      <point x="1377" y="872" type="line"/>
    </contour>
    <contour>
      <point x="1401" y="1000" type="line"/>
      <point x="1122" y="1000" type="line"/>
      <point x="1042" y="516" type="line"/>
      <point x="1321" y="516" type="line"/>
    </contour>
  </outline>
</glyph>
<glyph name="registered" format="2">
  <advance width="1882"/>
  <unicode hex="00AE"/>
  <note>
Stroke L: 32
Stroke R: 96
Stroke B: 112
</note>
  <outline>
    <contour>
      <point x="686" y="916" type="line"/>
      <point x="858" y="916" type="line"/>
      <point x="958" y="1527" type="line"/>
      <point x="1102" y="1527" type="line" smooth="yes"/>
      <point x="1144" y="1527"/>
      <point x="1201" y="1500"/>
      <point x="1189" y="1415" type="curve" smooth="yes"/>
      <point x="1177" y="1333"/>
      <point x="1108" y="1292"/>
      <point x="1060" y="1292" type="curve" smooth="yes"/>
      <point x="845" y="1292" type="line"/>
      <point x="824" y="1165" type="line"/>
      <point x="1086" y="1165" type="line" smooth="yes"/>
      <point x="1199" y="1165"/>
      <point x="1346" y="1255"/>
      <point x="1375" y="1415" type="curve" smooth="yes"/>
      <point x="1403" y="1574"/>
      <point x="1283" y="1654"/>
      <point x="1177" y="1654" type="curve" smooth="yes"/>
      <point x="808" y="1654" type="line"/>
    </contour>
    <contour>
      <point x="1198" y="1262" type="line"/>
      <point x="1015" y="1262" type="line"/>
      <point x="1130" y="916" type="line"/>
      <point x="1319" y="916" type="line"/>
    </contour>
    <contour>
      <point x="1025" y="476" type="curve" smooth="yes"/>
      <point x="1466" y="476"/>
      <point x="1824" y="834"/>
      <point x="1825" y="1276" type="curve" smooth="yes"/>
      <point x="1826" y="1718"/>
      <point x="1466" y="2076"/>
      <point x="1025" y="2076" type="curve" smooth="yes"/>
      <point x="582" y="2076"/>
      <point x="224" y="1718"/>
      <point x="225" y="1276" type="curve" smooth="yes"/>
      <point x="226" y="834"/>
      <point x="582" y="476"/>
    </contour>
    <contour>
      <point x="1025" y="674" type="curve" smooth="yes"/>
      <point x="692" y="674"/>
      <point x="422" y="944"/>
      <point x="423" y="1276" type="curve" smooth="yes"/>
      <point x="424" y="1608"/>
      <point x="692" y="1878"/>
      <point x="1025" y="1878" type="curve" smooth="yes"/>
      <point x="1356" y="1878"/>
      <point x="1626" y="1608"/>
      <point x="1626" y="1276" type="curve" smooth="yes"/>
      <point x="1627" y="944"/>
      <point x="1357" y="674"/>
    </contour>
  </outline>
</glyph>
<glyph name="macron" format="2">
  <advance width="1374"/>
  <unicode hex="00AF"/>
  <outline>
    <contour>
      <point x="1373" y="2048" type="line"/>
      <point x="423" y="2048" type="line"/>
      <point x="390" y="1838" type="line"/>
      <point x="1339" y="1838" type="line"/>
    </contour>
  </outline>
</glyph>
<glyph name="degree" format="2">
  <advance width="1285"/>
  <unicode hex="00B0"/>
  <outline>
    <contour>
      <point x="778" y="1122" type="curve" smooth="yes"/>
      <point x="1038" y="1122"/>
      <point x="1249" y="1333"/>
      <point x="1249" y="1593" type="curve" smooth="yes"/>
      <point x="1249" y="1853"/>
      <point x="1038" y="2063"/>
      <point x="778" y="2063" type="curve" smooth="yes"/>
      <point x="519" y="2063"/>
      <point x="308" y="1853"/>
      <point x="308" y="1593" type="curve" smooth="yes"/>
      <point x="308" y="1333"/>
      <point x="519" y="1122"/>
    </contour>
    <contour>
      <point x="778" y="1350" type="curve" smooth="yes"/>
      <point x="644" y="1350"/>
      <point x="536" y="1459"/>
      <point x="536" y="1593" type="curve" smooth="yes"/>
      <point x="536" y="1727"/>
      <point x="644" y="1835"/>
      <point x="778" y="1835" type="curve" smooth="yes"/>
      <point x="913" y="1835"/>
      <point x="1021" y="1727"/>
      <point x="1021" y="1593" type="curve" smooth="yes"/>
      <point x="1021" y="1459"/>
      <point x="913" y="1350"/>
    </contour>
  </outline>
</glyph>
<glyph name="plusminus" format="2">
  <advance width="1875"/>
  <unicode hex="00B1"/>
  <outline>
    <contour>
      <point x="161" y="90" type="line"/>
      <point x="1489" y="90" type="line"/>
      <point x="1531" y="352" type="line"/>
      <point x="203" y="352" type="line"/>
    </contour>
    <contour>
      <point x="298" y="906" type="line"/>
      <point x="1626" y="906" type="line"/>
      <point x="1668" y="1165" type="line"/>
      <point x="340" y="1165" type="line"/>
    </contour>
    <contour>
      <point x="762" y="518" type="line"/>
      <point x="1031" y="518" type="line"/>
      <point x="1202" y="1552" type="line"/>
      <point x="934" y="1552" type="line"/>
    </contour>
  </outline>
</glyph>
<glyph name="two.sups" format="2">
  <advance width="1183"/>
  <unicode hex="00B2"/>
  <outline>
    <contour>
      <point x="174" y="1024" type="line"/>
      <point x="1116" y="1024" type="line"/>
      <point x="1148" y="1225" type="line"/>
      <point x="561" y="1225" type="line"/>
      <point x="562" y="1234" type="line"/>
      <point x="833" y="1430" type="line" smooth="yes"/>
      <point x="1105" y="1619"/>
      <point x="1202" y="1734"/>
      <point x="1226" y="1888" type="curve" smooth="yes"/>
      <point x="1258" y="2099"/>
      <point x="1111" y="2268"/>
      <point x="828" y="2268" type="curve" smooth="yes"/>
      <point x="553" y="2268"/>
      <point x="341" y="2108"/>
      <point x="304" y="1878" type="curve"/>
      <point x="544" y="1878" type="line"/>
      <point x="564" y="2001"/>
      <point x="677" y="2073"/>
      <point x="805" y="2073" type="curve" smooth="yes"/>
      <point x="937" y="2073"/>
      <point x="1021" y="2004"/>
      <point x="1002" y="1892" type="curve" smooth="yes"/>
      <point x="986" y="1794"/>
      <point x="902" y="1725"/>
      <point x="747" y="1609" type="curve" smooth="yes"/>
      <point x="202" y="1202" type="line"/>
    </contour>
  </outline>
</glyph>
<glyph name="three.sups" format="2">
  <advance width="1219"/>
  <unicode hex="00B3"/>
  <outline>
    <contour>
      <point x="659" y="1008" type="curve" smooth="yes"/>
      <point x="947" y="1008"/>
      <point x="1177" y="1146"/>
      <point x="1212" y="1358" type="curve" smooth="yes"/>
      <point x="1236" y="1514"/>
      <point x="1134" y="1630"/>
      <point x="954" y="1655" type="curve"/>
      <point x="954" y="1664" type="line"/>
      <point x="1121" y="1690"/>
      <point x="1230" y="1767"/>
      <point x="1254" y="1910" type="curve" smooth="yes"/>
      <point x="1286" y="2106"/>
      <point x="1133" y="2268"/>
      <point x="849" y="2268" type="curve" smooth="yes"/>
      <point x="596" y="2268"/>
      <point x="370" y="2126"/>
      <point x="330" y="1909" type="curve"/>
      <point x="567" y="1909" type="line"/>
      <point x="586" y="2010"/>
      <point x="720" y="2073"/>
      <point x="843" y="2073" type="curve" smooth="yes"/>
      <point x="981" y="2073"/>
      <point x="1034" y="2012"/>
      <point x="1017" y="1914" type="curve" smooth="yes"/>
      <point x="1001" y="1823"/>
      <point x="886" y="1742"/>
      <point x="739" y="1742" type="curve" smooth="yes"/>
      <point x="630" y="1742" type="line"/>
      <point x="603" y="1560" type="line"/>
      <point x="718" y="1560" type="line" smooth="yes"/>
      <point x="887" y="1560"/>
      <point x="979" y="1501"/>
      <point x="961" y="1395" type="curve" smooth="yes"/>
      <point x="942" y="1292"/>
      <point x="819" y="1213"/>
      <point x="668" y="1213" type="curve" smooth="yes"/>
      <point x="534" y="1213"/>
      <point x="445" y="1275"/>
      <point x="458" y="1372" type="curve"/>
      <point x="212" y="1372" type="line"/>
      <point x="180" y="1157"/>
      <point x="366" y="1008"/>
    </contour>
  </outline>
</glyph>
<glyph name="acute" format="2">
  <advance width="1400"/>
  <unicode hex="00B4"/>
  <outline>
    <contour>
      <point x="712" y="1741" type="line"/>
      <point x="952" y="1741" type="line"/>
      <point x="1337" y="2202" type="line"/>
      <point x="1022" y="2202" type="line"/>
    </contour>
  </outline>
</glyph>
<glyph name="micro" format="2">
  <advance width="1794"/>
  <unicode hex="00B5"/>
  <outline>
    <contour>
      <point x="-22" y="-570" type="line"/>
      <point x="272" y="-570" type="line"/>
      <point x="406" y="225" type="line"/>
      <point x="418" y="225" type="line"/>
      <point x="468" y="74"/>
      <point x="604" y="-10"/>
      <point x="766" y="-10" type="curve" smooth="yes"/>
      <point x="933" y="-10"/>
      <point x="1095" y="74"/>
      <point x="1198" y="225" type="curve"/>
      <point x="1210" y="225" type="line"/>
      <point x="1171" y="0" type="line"/>
      <point x="1465" y="0" type="line"/>
      <point x="1721" y="1536" type="line"/>
      <point x="1422" y="1536" type="line"/>
      <point x="1271" y="637" type="line" smooth="yes"/>
      <point x="1235" y="410"/>
      <point x="1051" y="252"/>
      <point x="812" y="252" type="curve" smooth="yes"/>
      <point x="574" y="252"/>
      <point x="441" y="410"/>
      <point x="478" y="637" type="curve" smooth="yes"/>
      <point x="628" y="1536" type="line"/>
      <point x="329" y="1536" type="line"/>
    </contour>
  </outline>
</glyph>
<glyph name="paragraph" format="2">
  <advance width="1698"/>
  <unicode hex="00B6"/>
  <note>
aka PILCROW SIGN
</note>
  <outline>
    <contour>
      <point x="1577" y="1792" type="line"/>
      <point x="1619" y="2048" type="line"/>
      <point x="1042" y="2048" type="line" smooth="yes"/>
      <point x="601" y="2048"/>
      <point x="315" y="1772"/>
      <point x="251" y="1404" type="curve" smooth="yes"/>
      <point x="191" y="1032"/>
      <point x="389" y="760"/>
      <point x="830" y="760" type="curve" smooth="yes"/>
      <point x="946" y="760" type="line"/>
      <point x="1116" y="1792" type="line"/>
    </contour>
    <contour>
      <point x="1066" y="0" type="line"/>
      <point x="1345" y="0" type="line"/>
      <point x="1685" y="2048" type="line"/>
      <point x="1406" y="2048" type="line"/>
    </contour>
  </outline>
</glyph>
<glyph name="cedilla" format="2">
  <advance width="853"/>
  <unicode hex="00B8"/>
  <outline>
    <contour>
      <point x="206" y="8" type="line"/>
      <point x="129" y="-190" type="line"/>
      <point x="275" y="-204"/>
      <point x="334" y="-233"/>
      <point x="318" y="-322" type="curve" smooth="yes"/>
      <point x="302" y="-411"/>
      <point x="202" y="-449"/>
      <point x="64" y="-449" type="curve"/>
      <point x="41" y="-616" type="line"/>
      <point x="337" y="-616"/>
      <point x="518" y="-494"/>
      <point x="546" y="-313" type="curve" smooth="yes"/>
      <point x="574" y="-162"/>
      <point x="484" y="-92"/>
      <point x="370" y="-74" type="curve"/>
      <point x="402" y="8" type="line"/>
    </contour>
  </outline>
</glyph>
<glyph name="one.sups" format="2">
  <advance width="865"/>
  <unicode hex="00B9"/>
  <outline>
    <contour>
      <point x="886" y="2252" type="line"/>
      <point x="648" y="2252" type="line"/>
      <point x="630" y="2178"/>
      <point x="493" y="2050"/>
      <point x="315" y="2048" type="curve"/>
      <point x="288" y="1852" type="line"/>
      <point x="439" y="1851"/>
      <point x="550" y="1909"/>
      <point x="582" y="1947" type="curve"/>
      <point x="594" y="1947" type="line"/>
      <point x="439" y="1024" type="line"/>
      <point x="681" y="1024" type="line"/>
    </contour>
  </outline>
</glyph>
<glyph name="ordmasculine" format="2">
  <advance width="1298"/>
  <unicode hex="00BA"/>
  <outline>
    <contour>
      <point x="280" y="1436" type="line"/>
      <point x="232" y="1152"/>
      <point x="385" y="951"/>
      <point x="684" y="951" type="curve" smooth="yes"/>
      <point x="979" y="951"/>
      <point x="1194" y="1152"/>
      <point x="1242" y="1436" type="curve"/>
      <point x="1258" y="1543" type="line"/>
      <point x="1306" y="1828"/>
      <point x="1155" y="2032"/>
      <point x="857" y="2032" type="curve" smooth="yes"/>
      <point x="562" y="2032"/>
      <point x="344" y="1828"/>
      <point x="296" y="1543" type="curve"/>
    </contour>
    <contour>
      <point x="538" y="1543" type="line"/>
      <point x="566" y="1703"/>
      <point x="667" y="1828"/>
      <point x="825" y="1828" type="curve" smooth="yes"/>
      <point x="986" y="1828"/>
      <point x="1043" y="1703"/>
      <point x="1015" y="1543" type="curve"/>
      <point x="999" y="1436" type="line"/>
      <point x="971" y="1272"/>
      <point x="874" y="1152"/>
      <point x="717" y="1152" type="curve" smooth="yes"/>
      <point x="555" y="1152"/>
      <point x="494" y="1272"/>
      <point x="522" y="1436" type="curve"/>
    </contour>
  </outline>
</glyph>
<glyph name="AE" format="2">
  <advance width="2826"/>
  <unicode hex="00C6"/>
  <outline>
    <contour>
      <point x="-58" y="0" type="line"/>
      <point x="282" y="0" type="line"/>
      <point x="1371" y="1759" type="line"/>
      <point x="1518" y="1759" type="line"/>
      <point x="1225" y="0" type="line"/>
      <point x="2521" y="0" type="line"/>
      <point x="2565" y="266" type="line"/>
      <point x="1578" y="266" type="line"/>
      <point x="1682" y="893" type="line"/>
      <point x="2590" y="893" type="line"/>
      <point x="2634" y="1158" type="line"/>
      <point x="1726" y="1158" type="line"/>
      <point x="1830" y="1782" type="line"/>
      <point x="2805" y="1782" type="line"/>
      <point x="2849" y="2048" type="line"/>
      <point x="1236" y="2048" type="line"/>
    </contour>
    <contour>
      <point x="482" y="542" type="line"/>
      <point x="1482" y="542" type="line"/>
      <point x="1526" y="802" type="line"/>
      <point x="526" y="802" type="line"/>
    </contour>
  </outline>
</glyph>
<glyph name="multiply" format="2">
  <advance width="1875"/>
  <unicode hex="00D7"/>
  <outline>
    <contour>
      <point x="1314" y="137" type="line"/>
      <point x="1524" y="316" type="line"/>
      <point x="565" y="1466" type="line"/>
      <point x="355" y="1286" type="line"/>
    </contour>
    <contour>
      <point x="370" y="140" type="line"/>
      <point x="1686" y="1264" type="line"/>
      <point x="1518" y="1463" type="line"/>
      <point x="202" y="338" type="line"/>
    </contour>
  </outline>
</glyph>
<glyph name="Oslash" format="2">
  <advance width="2166"/>
  <unicode hex="00D8"/>
  <outline>
    <contour>
      <point x="452" y="-89" type="line"/>
      <point x="1960" y="2019" type="line"/>
      <point x="1798" y="2133" type="line"/>
      <point x="290" y="25" type="line"/>
    </contour>
    <component base="O" yOffset="-3"/>
  </outline>
</glyph>
<glyph name="Thorn" format="2">
  <advance width="1814"/>
  <unicode hex="00DE"/>
  <outline>
    <contour>
      <point x="425" y="2048" type="line"/>
      <point x="85" y="0" type="line"/>
      <point x="394" y="0" type="line"/>
      <point x="734" y="2048" type="line"/>
    </contour>
    <contour>
      <point x="500" y="1640" type="line"/>
      <point x="458" y="1382" type="line"/>
      <point x="987" y="1382" type="line" smooth="yes"/>
      <point x="1258" y="1382"/>
      <point x="1377" y="1243"/>
      <point x="1342" y="1035" type="curve" smooth="yes"/>
      <point x="1306" y="828"/>
      <point x="1146" y="697"/>
      <point x="875" y="697" type="curve" smooth="yes"/>
      <point x="346" y="697" type="line"/>
      <point x="303" y="439" type="line"/>
      <point x="833" y="439" type="line" smooth="yes"/>
      <point x="1288" y="439"/>
      <point x="1582" y="703"/>
      <point x="1637" y="1039" type="curve" smooth="yes"/>
      <point x="1694" y="1375"/>
      <point x="1485" y="1640"/>
      <point x="1030" y="1640" type="curve" smooth="yes"/>
    </contour>
  </outline>
</glyph>
<glyph name="germandbls" format="2">
  <advance width="1767"/>
  <unicode hex="00DF"/>
  <outline>
    <contour>
      <point x="97" y="0" type="line"/>
      <point x="396" y="0" type="line"/>
      <point x="644" y="1498" type="line" smooth="yes"/>
      <point x="674" y="1684"/>
      <point x="835" y="1810"/>
      <point x="1034" y="1810" type="curve" smooth="yes"/>
      <point x="1240" y="1810"/>
      <point x="1343" y="1672"/>
      <point x="1314" y="1494" type="curve" smooth="yes"/>
      <point x="1285" y="1325"/>
      <point x="1144" y="1169"/>
      <point x="961" y="1169" type="curve" smooth="yes"/>
      <point x="840" y="1169" type="line"/>
      <point x="798" y="909" type="line"/>
      <point x="971" y="909" type="line" smooth="yes"/>
      <point x="1199" y="909"/>
      <point x="1321" y="772"/>
      <point x="1290" y="578" type="curve" smooth="yes"/>
      <point x="1261" y="391"/>
      <point x="1106" y="262"/>
      <point x="900" y="262" type="curve" smooth="yes"/>
      <point x="681" y="262" type="line"/>
      <point x="638" y="0" type="line"/>
      <point x="877" y="0" type="line" smooth="yes"/>
      <point x="1247" y="0"/>
      <point x="1532" y="224"/>
      <point x="1590" y="564" type="curve" smooth="yes"/>
      <point x="1638" y="853"/>
      <point x="1489" y="1045"/>
      <point x="1230" y="1068" type="curve"/>
      <point x="1234" y="1089" type="line"/>
      <point x="1433" y="1151"/>
      <point x="1587" y="1305"/>
      <point x="1622" y="1539" type="curve" smooth="yes"/>
      <point x="1674" y="1880"/>
      <point x="1431" y="2076"/>
      <point x="1070" y="2076" type="curve" smooth="yes"/>
      <point x="697" y="2076"/>
      <point x="406" y="1866"/>
      <point x="348" y="1518" type="curve" smooth="yes"/>
    </contour>
  </outline>
</glyph>
<glyph name="ae" format="2">
  <advance width="2594"/>
  <unicode hex="00E6"/>
  <outline>
    <contour>
      <point x="1679" y="-31" type="curve" smooth="yes"/>
      <point x="2003" y="-31"/>
      <point x="2268" y="134"/>
      <point x="2379" y="384" type="curve"/>
      <point x="2106" y="435" type="line"/>
      <point x="2026" y="290"/>
      <point x="1884" y="216"/>
      <point x="1714" y="216" type="curve" smooth="yes"/>
      <point x="1454" y="216"/>
      <point x="1308" y="391"/>
      <point x="1358" y="699" type="curve" smooth="yes"/>
      <point x="1387" y="874" type="line" smooth="yes"/>
      <point x="1425" y="1102"/>
      <point x="1619" y="1309"/>
      <point x="1874" y="1309" type="curve" smooth="yes"/>
      <point x="2106" y="1309"/>
      <point x="2229" y="1137"/>
      <point x="2190" y="902" type="curve"/>
      <point x="1272" y="902" type="line"/>
      <point x="1237" y="678" type="line"/>
      <point x="2448" y="678" type="line"/>
      <point x="2465" y="784" type="line" smooth="yes"/>
      <point x="2558" y="1339"/>
      <point x="2262" y="1556"/>
      <point x="1913" y="1556" type="curve" smooth="yes"/>
      <point x="1648" y="1556"/>
      <point x="1435" y="1429"/>
      <point x="1288" y="1200" type="curve"/>
      <point x="1130" y="390" type="line"/>
      <point x="1150" y="134"/>
      <point x="1358" y="-31"/>
    </contour>
    <contour>
      <point x="618" y="206" type="curve" smooth="yes"/>
      <point x="449" y="206"/>
      <point x="342" y="282"/>
      <point x="366" y="430" type="curve" smooth="yes"/>
      <point x="391" y="590"/>
      <point x="546" y="647"/>
      <point x="722" y="670" type="curve" smooth="yes"/>
      <point x="820" y="683"/>
      <point x="1054" y="709"/>
      <point x="1104" y="752" type="curve"/>
      <point x="1071" y="554" type="line" smooth="yes"/>
      <point x="1041" y="372"/>
      <point x="867" y="206"/>
    </contour>
    <contour>
      <point x="524" y="-34" type="curve" smooth="yes"/>
      <point x="790" y="-34"/>
      <point x="1050" y="98"/>
      <point x="1145" y="270" type="curve"/>
      <point x="1167" y="270" type="line"/>
      <point x="1407" y="1246" type="line" smooth="yes"/>
      <point x="1362" y="1509"/>
      <point x="1117" y="1556"/>
      <point x="944" y="1556" type="curve" smooth="yes"/>
      <point x="663" y="1556"/>
      <point x="387" y="1444"/>
      <point x="242" y="1164" type="curve"/>
      <point x="510" y="1100" type="line"/>
      <point x="574" y="1209"/>
      <point x="705" y="1314"/>
      <point x="905" y="1314" type="curve" smooth="yes"/>
      <point x="1097" y="1314"/>
      <point x="1179" y="1212"/>
      <point x="1151" y="1039" type="curve" smooth="yes"/>
      <point x="1151" y="1032" type="line" smooth="yes"/>
      <point x="1132" y="925"/>
      <point x="1019" y="926"/>
      <point x="739" y="893" type="curve" smooth="yes"/>
      <point x="442" y="859"/>
      <point x="132" y="782"/>
      <point x="73" y="434" type="curve" smooth="yes"/>
      <point x="24" y="133"/>
      <point x="223" y="-34"/>
    </contour>
  </outline>
</glyph>
<glyph name="eth" format="2">
  <advance width="1625"/>
  <unicode hex="00F0"/>
  <outline>
    <contour>
      <point x="1503" y="1925" type="line"/>
      <point x="1447" y="2095" type="line"/>
      <point x="548" y="1686" type="line"/>
      <point x="601" y="1515" type="line"/>
    </contour>
    <contour>
      <point x="680" y="-32" type="curve" smooth="yes"/>
      <point x="1088" y="-32"/>
      <point x="1407" y="256"/>
      <point x="1487" y="752" type="curve" smooth="yes"/>
      <point x="1603" y="1451"/>
      <point x="1202" y="1944"/>
      <point x="786" y="2176" type="curve"/>
      <point x="621" y="1975" type="line"/>
      <point x="1023" y="1745"/>
      <point x="1163" y="1468"/>
      <point x="1227" y="1224" type="curve"/>
      <point x="1207" y="1224" type="line"/>
      <point x="1153" y="1336"/>
      <point x="1026" y="1441"/>
      <point x="822" y="1434" type="curve" smooth="yes"/>
      <point x="507" y="1419"/>
      <point x="193" y="1134"/>
      <point x="122" y="704" type="curve" smooth="yes"/>
      <point x="54" y="276"/>
      <point x="265" y="-32"/>
    </contour>
    <contour>
      <point x="728" y="220" type="curve" smooth="yes"/>
      <point x="458" y="220"/>
      <point x="371" y="434"/>
      <point x="415" y="705" type="curve" smooth="yes"/>
      <point x="462" y="988"/>
      <point x="633" y="1199"/>
      <point x="890" y="1199" type="curve" smooth="yes"/>
      <point x="1164" y="1199"/>
      <point x="1245" y="957"/>
      <point x="1204" y="694" type="curve" smooth="yes"/>
      <point x="1157" y="415"/>
      <point x="986" y="220"/>
    </contour>
  </outline>
</glyph>
<glyph name="divide" format="2">
  <advance width="1875"/>
  <unicode hex="00F7"/>
  <outline>
    <contour>
      <point x="1626" y="938" type="line"/>
      <point x="306" y="938" type="line"/>
      <point x="263" y="675" type="line"/>
      <point x="1583" y="675" type="line"/>
    </contour>
    <contour>
      <point x="840" y="77" type="curve" smooth="yes"/>
      <point x="938" y="77"/>
      <point x="1034" y="157"/>
      <point x="1049" y="258" type="curve" smooth="yes"/>
      <point x="1066" y="377"/>
      <point x="987" y="474"/>
      <point x="873" y="474" type="curve" smooth="yes"/>
      <point x="768" y="474"/>
      <point x="674" y="395"/>
      <point x="660" y="297" type="curve" smooth="yes"/>
      <point x="642" y="175"/>
      <point x="719" y="77"/>
    </contour>
    <contour>
      <point x="1017" y="1138" type="curve" smooth="yes"/>
      <point x="1115" y="1138"/>
      <point x="1208" y="1218"/>
      <point x="1225" y="1320" type="curve" smooth="yes"/>
      <point x="1244" y="1438"/>
      <point x="1163" y="1536"/>
      <point x="1049" y="1536" type="curve" smooth="yes"/>
      <point x="944" y="1536"/>
      <point x="850" y="1457"/>
      <point x="833" y="1358" type="curve" smooth="yes"/>
      <point x="812" y="1238"/>
      <point x="896" y="1138"/>
    </contour>
  </outline>
</glyph>
<glyph name="oslash" format="2">
  <advance width="1698"/>
  <unicode hex="00F8"/>
  <outline>
    <contour>
      <point x="249" y="-89" type="line"/>
      <point x="1592" y="1499" type="line"/>
      <point x="1446" y="1613" type="line"/>
      <point x="100" y="25" type="line"/>
    </contour>
    <component base="o"/>
  </outline>
</glyph>
<glyph name="thorn" format="2">
  <advance width="1719"/>
  <unicode hex="00FE"/>
  <outline>
    <contour>
      <point x="413" y="2048" type="line"/>
      <point x="-23" y="-576" type="line"/>
      <point x="276" y="-576" type="line"/>
      <point x="421" y="293" type="line"/>
      <point x="412" y="773" type="line"/>
      <point x="573" y="1200" type="line"/>
      <point x="712" y="2048" type="line"/>
    </contour>
    <contour>
      <point x="470" y="1314" type="line"/>
      <point x="287" y="214" type="line"/>
      <point x="427" y="214" type="line"/>
      <point x="467" y="121"/>
      <point x="549" y="-30"/>
      <point x="811" y="-30" type="curve" smooth="yes"/>
      <point x="1183" y="-30"/>
      <point x="1504" y="267"/>
      <point x="1586" y="765" type="curve" smooth="yes"/>
      <point x="1668" y="1263"/>
      <point x="1443" y="1556"/>
      <point x="1073" y="1556" type="curve" smooth="yes"/>
      <point x="805" y="1556"/>
      <point x="676" y="1403"/>
      <point x="610" y="1314" type="curve"/>
    </contour>
    <contour>
      <point x="1294" y="768" type="curve" smooth="yes"/>
      <point x="1241" y="457"/>
      <point x="1066" y="225"/>
      <point x="794" y="225" type="curve" smooth="yes"/>
      <point x="526" y="225"/>
      <point x="432" y="453"/>
      <point x="483" y="768" type="curve" smooth="yes"/>
      <point x="535" y="1082"/>
      <point x="702" y="1302"/>
      <point x="971" y="1302" type="curve" smooth="yes"/>
      <point x="1247" y="1302"/>
      <point x="1343" y="1076"/>
    </contour>
  </outline>
</glyph>
<glyph name="Hbar" format="2">
  <advance width="2219"/>
  <unicode hex="0126"/>
  <outline>
    <contour>
      <point x="2239" y="1642" type="line"/>
      <point x="268" y="1642" type="line"/>
      <point x="234" y="1422" type="line"/>
      <point x="2205" y="1422" type="line"/>
    </contour>
    <component base="H" xOffset="64"/>
  </outline>
</glyph>
<glyph name="idotless" format="2">
  <advance width="701"/>
  <unicode hex="0131"/>
  <outline>
    <contour>
      <point x="73" y="0" type="line"/>
      <point x="372" y="0" type="line"/>
      <point x="628" y="1536" type="line"/>
      <point x="329" y="1536" type="line"/>
    </contour>
  </outline>
</glyph>
<glyph name="kgreenlandic" format="2">
  <advance width="1814"/>
  <unicode hex="0138"/>
  <outline>
    <contour>
      <point x="672" y="1488" type="line"/>
      <point x="347" y="1488" type="line"/>
      <point x="99" y="0" type="line"/>
      <point x="424" y="0" type="line"/>
    </contour>
    <contour>
      <point x="1670" y="1488" type="line"/>
      <point x="1271" y="1488" type="line"/>
      <point x="688" y="889" type="line"/>
      <point x="440" y="889" type="line"/>
      <point x="438" y="598" type="line"/>
      <point x="794" y="598" type="line"/>
    </contour>
    <contour>
      <point x="1047" y="0" type="line"/>
      <point x="1458" y="0" type="line"/>
      <point x="910" y="846" type="line"/>
      <point x="639" y="651" type="line"/>
    </contour>
  </outline>
</glyph>
<glyph name="Lslash" format="2">
  <advance width="1606"/>
  <unicode hex="0141"/>
  <outline>
    <contour>
      <point x="923" y="1294" type="line"/>
      <point x="64" y="1038" type="line"/>
      <point x="55" y="839" type="line"/>
      <point x="914" y="1095" type="line"/>
    </contour>
    <component base="L" xOffset="29"/>
  </outline>
</glyph>
<glyph name="lslash" format="2">
  <advance width="701"/>
  <unicode hex="0142"/>
  <outline>
    <contour>
      <point x="798" y="1298" type="line"/>
      <point x="37" y="1041" type="line"/>
      <point x="2" y="845" type="line"/>
      <point x="766" y="1102" type="line"/>
    </contour>
    <component base="l"/>
  </outline>
</glyph>
<glyph name="Eng" format="2">
  <advance width="2103"/>
  <unicode hex="014A"/>
  <outline>
    <contour>
      <point x="1466" y="0" type="line"/>
      <point x="1439" y="-136" type="line" smooth="yes"/>
      <point x="1410" y="-286"/>
      <point x="1309" y="-338"/>
      <point x="1177" y="-338" type="curve" smooth="yes"/>
      <point x="1141" y="-338"/>
      <point x="1104" y="-334"/>
      <point x="1078" y="-328" type="curve"/>
      <point x="1038" y="-571" type="line"/>
      <point x="1075" y="-584"/>
      <point x="1130" y="-586"/>
      <point x="1177" y="-586" type="curve" smooth="yes"/>
      <point x="1448" y="-586"/>
      <point x="1670" y="-441"/>
      <point x="1724" y="-137" type="curve" smooth="yes"/>
      <point x="1750" y="0" type="line"/>
    </contour>
    <component base="N"/>
  </outline>
</glyph>
<glyph name="eng" format="2">
  <advance width="1689"/>
  <unicode hex="014B"/>
  <outline>
    <contour>
      <point x="1057" y="0" type="line"/>
      <point x="1034" y="-135" type="line" smooth="yes"/>
      <point x="1008" y="-282"/>
      <point x="916" y="-330"/>
      <point x="792" y="-330" type="curve" smooth="yes"/>
      <point x="758" y="-330"/>
      <point x="726" y="-326"/>
      <point x="700" y="-320" type="curve"/>
      <point x="650" y="-569" type="line"/>
      <point x="694" y="-582"/>
      <point x="752" y="-582"/>
      <point x="809" y="-582" type="curve" smooth="yes"/>
      <point x="1067" y="-582"/>
      <point x="1275" y="-435"/>
      <point x="1331" y="-141" type="curve" smooth="yes"/>
      <point x="1356" y="0" type="line"/>
    </contour>
    <component base="n"/>
  </outline>
</glyph>
<glyph name="OE" format="2">
  <advance width="2746"/>
  <unicode hex="0152"/>
  <note>
!post:RemoveOverlap
</note>
  <outline>
    <contour>
      <point x="942" y="0" type="curve" smooth="yes"/>
      <point x="1263" y="0" type="line"/>
      <point x="1310" y="266" type="line"/>
      <point x="989" y="266" type="line" smooth="yes"/>
      <point x="626" y="266"/>
      <point x="426" y="549"/>
      <point x="505" y="1023" type="curve" smooth="yes"/>
      <point x="584" y="1500"/>
      <point x="876" y="1782"/>
      <point x="1238" y="1782" type="curve" smooth="yes"/>
      <point x="1559" y="1782" type="line"/>
      <point x="1603" y="2048" type="line"/>
      <point x="1282" y="2048" type="line" smooth="yes"/>
      <point x="744" y="2048"/>
      <point x="304" y="1656"/>
      <point x="200" y="1023" type="curve" smooth="yes"/>
      <point x="96" y="394"/>
      <point x="405" y="0"/>
    </contour>
    <component base="E" xOffset="1045"/>
  </outline>
</glyph>
<glyph name="tbar" format="2">
  <advance width="1047"/>
  <unicode hex="0167"/>
  <outline>
    <contour>
      <point x="90" y="817" type="line"/>
      <point x="930" y="817" type="line"/>
      <point x="962" y="1007" type="line"/>
      <point x="123" y="1007" type="line"/>
    </contour>
    <component base="t"/>
  </outline>
</glyph>
<glyph name="longs" format="2">
  <advance width="773"/>
  <unicode hex="017F"/>
  <outline>
    <contour>
      <point x="226" y="0" type="line"/>
      <point x="497" y="1631" type="line"/>
      <point x="522" y="1790"/>
      <point x="620" y="1882"/>
      <point x="771" y="1882" type="curve" smooth="yes"/>
      <point x="824" y="1882"/>
      <point x="861" y="1878"/>
      <point x="893" y="1870" type="curve"/>
      <point x="967" y="2112" type="line"/>
      <point x="899" y="2128"/>
      <point x="833" y="2140"/>
      <point x="766" y="2140" type="curve" smooth="yes"/>
      <point x="448" y="2140"/>
      <point x="225" y="1962"/>
      <point x="172" y="1631" type="curve"/>
      <point x="-98" y="0" type="line"/>
    </contour>
  </outline>
</glyph>
<glyph name="Bhook" format="2">
  <advance width="2320"/>
  <unicode hex="0181"/>
  <outline>
    <contour>
      <point x="993" y="1783" type="line"/>
      <point x="1036" y="2048" type="line"/>
      <point x="803" y="2048" type="line" smooth="yes"/>
      <point x="507" y="2048"/>
      <point x="300" y="1858"/>
      <point x="262" y="1600" type="curve" smooth="yes"/>
      <point x="238" y="1442" type="line"/>
      <point x="521" y="1442" type="line"/>
      <point x="535" y="1533" type="line" smooth="yes"/>
      <point x="555" y="1659"/>
      <point x="602" y="1783"/>
      <point x="763" y="1783" type="curve" smooth="yes"/>
    </contour>
    <component base="B" xOffset="478"/>
  </outline>
</glyph>
<glyph name="Btopbar" format="2">
  <advance width="1842"/>
  <unicode hex="0182"/>
  <outline>
    <contour>
      <point x="97" y="0" type="line"/>
      <point x="864" y="0" type="line" smooth="yes"/>
      <point x="1320" y="0"/>
      <point x="1623" y="254"/>
      <point x="1683" y="621" type="curve" smooth="yes"/>
      <point x="1744" y="987"/>
      <point x="1523" y="1222"/>
      <point x="1066" y="1222" type="curve" smooth="yes"/>
      <point x="609" y="1222" type="line"/>
      <point x="702" y="1782" type="line"/>
      <point x="1670" y="1782" type="line"/>
      <point x="1714" y="2048" type="line"/>
      <point x="437" y="2048" type="line"/>
    </contour>
    <contour>
      <point x="450" y="260" type="line"/>
      <point x="566" y="962" type="line"/>
      <point x="1023" y="962" type="line" smooth="yes"/>
      <point x="1288" y="962"/>
      <point x="1409" y="810"/>
      <point x="1378" y="625" type="curve" smooth="yes"/>
      <point x="1347" y="435"/>
      <point x="1172" y="260"/>
      <point x="907" y="260" type="curve" smooth="yes"/>
    </contour>
  </outline>
</glyph>
<glyph name="Tonesix" format="2">
  <advance width="2078"/>
  <unicode hex="0184"/>
  <outline>
    <contour>
      <point x="1013" y="2048" type="line"/>
      <point x="242" y="2048" type="line"/>
      <point x="198" y="1782" type="line"/>
      <point x="969" y="1782" type="line"/>
    </contour>
    <contour>
      <point x="805" y="1222" type="line"/>
      <point x="762" y="962" type="line"/>
      <point x="1314" y="962" type="line"/>
      <point x="1577" y="962"/>
      <point x="1698" y="810"/>
      <point x="1668" y="625" type="curve"/>
      <point x="1637" y="435"/>
      <point x="1461" y="260"/>
      <point x="1198" y="260" type="curve"/>
      <point x="740" y="260" type="line"/>
      <point x="1037" y="2048" type="line"/>
      <point x="727" y="2048" type="line"/>
      <point x="387" y="0" type="line"/>
      <point x="1154" y="0" type="line"/>
      <point x="1609" y="0"/>
      <point x="1912" y="254"/>
      <point x="1974" y="621" type="curve"/>
      <point x="2035" y="987"/>
      <point x="1812" y="1222"/>
      <point x="1357" y="1222" type="curve"/>
    </contour>
  </outline>
</glyph>
<glyph name="tonesix" format="2">
  <advance width="1811"/>
  <unicode hex="0185"/>
  <outline>
    <contour>
      <point x="566" y="2112" type="line"/>
      <point x="284" y="1846" type="line"/>
      <point x="259" y="1704" type="line"/>
      <point x="454" y="1440" type="line"/>
      <point x="521" y="1440" type="line"/>
      <point x="633" y="2112" type="line"/>
    </contour>
    <contour>
      <point x="624" y="1314" type="line"/>
      <point x="441" y="214" type="line"/>
      <point x="581" y="214" type="line"/>
      <point x="619" y="122"/>
      <point x="700" y="-30"/>
      <point x="965" y="-30" type="curve" smooth="yes"/>
      <point x="1336" y="-30"/>
      <point x="1657" y="267"/>
      <point x="1739" y="765" type="curve" smooth="yes"/>
      <point x="1821" y="1263"/>
      <point x="1596" y="1556"/>
      <point x="1226" y="1556" type="curve" smooth="yes"/>
      <point x="964" y="1556"/>
      <point x="831" y="1406"/>
      <point x="764" y="1314" type="curve"/>
    </contour>
    <contour>
      <point x="1447" y="768" type="curve" smooth="yes"/>
      <point x="1394" y="458"/>
      <point x="1219" y="225"/>
      <point x="947" y="225" type="curve" smooth="yes"/>
      <point x="679" y="225"/>
      <point x="585" y="453"/>
      <point x="637" y="768" type="curve" smooth="yes"/>
      <point x="688" y="1081"/>
      <point x="854" y="1302"/>
      <point x="1125" y="1302" type="curve" smooth="yes"/>
      <point x="1400" y="1302"/>
      <point x="1496" y="1075"/>
    </contour>
    <contour>
      <point x="566" y="2048" type="line"/>
      <point x="226" y="0" type="line"/>
      <point x="518" y="0" type="line"/>
      <point x="567" y="293" type="line"/>
      <point x="550" y="773" type="line"/>
      <point x="726" y="1200" type="line"/>
      <point x="866" y="2048" type="line"/>
    </contour>
  </outline>
</glyph>
<glyph name="Oopen" format="2">
  <advance width="2071"/>
  <unicode hex="0186"/>
  <outline>
    <contour>
      <point x="854" y="-28" type="curve" smooth="yes"/>
      <point x="1389" y="-28"/>
      <point x="1848" y="373"/>
      <point x="1957" y="1030" type="curve"/>
      <point x="2062" y="1683"/>
      <point x="1740" y="2076"/>
      <point x="1214" y="2076" type="curve" smooth="yes"/>
      <point x="778" y="2076"/>
      <point x="391" y="1820"/>
      <point x="247" y="1382" type="curve"/>
      <point x="557" y="1382" type="line"/>
      <point x="652" y="1647"/>
      <point x="896" y="1794"/>
      <point x="1154" y="1794" type="curve" smooth="yes"/>
      <point x="1510" y="1794"/>
      <point x="1732" y="1518"/>
      <point x="1649" y="1018" type="curve"/>
      <point x="1566" y="520"/>
      <point x="1260" y="254"/>
      <point x="912" y="254" type="curve" smooth="yes"/>
      <point x="650" y="254"/>
      <point x="449" y="398"/>
      <point x="440" y="660" type="curve"/>
      <point x="130" y="660" type="line"/>
      <point x="127" y="254"/>
      <point x="408" y="-28"/>
    </contour>
  </outline>
</glyph>
<glyph name="Chook" format="2">
  <advance width="2233"/>
  <unicode hex="0187"/>
  <outline>
    <contour>
      <point x="2025" y="1382" type="line"/>
      <point x="2063" y="1610" type="line" smooth="yes"/>
      <point x="2091" y="1782"/>
      <point x="2214" y="1834"/>
      <point x="2340" y="1834" type="curve"/>
      <point x="2371" y="1834"/>
      <point x="2408" y="1830"/>
      <point x="2431" y="1827" type="curve"/>
      <point x="2471" y="2075" type="line"/>
      <point x="2427" y="2087"/>
      <point x="2371" y="2087"/>
      <point x="2317" y="2087" type="curve" smooth="yes"/>
      <point x="2058" y="2087"/>
      <point x="1819" y="1924"/>
      <point x="1770" y="1629" type="curve" smooth="yes"/>
      <point x="1729" y="1382" type="line"/>
    </contour>
    <component base="C"/>
  </outline>
</glyph>
<glyph name="chook" format="2">
  <advance width="1750"/>
  <unicode hex="0188"/>
  <outline>
    <contour>
      <point x="1526" y="1040" type="line"/>
      <point x="1564" y="1250" type="line" smooth="yes"/>
      <point x="1591" y="1403"/>
      <point x="1681" y="1454"/>
      <point x="1805" y="1454" type="curve" smooth="yes"/>
      <point x="1838" y="1454"/>
      <point x="1866" y="1449"/>
      <point x="1890" y="1445" type="curve"/>
      <point x="1927" y="1671" type="line"/>
      <point x="1886" y="1685"/>
      <point x="1832" y="1687"/>
      <point x="1782" y="1687" type="curve" smooth="yes"/>
      <point x="1536" y="1687"/>
      <point x="1324" y="1530"/>
      <point x="1275" y="1251" type="curve" smooth="yes"/>
      <point x="1238" y="1040" type="line"/>
    </contour>
    <component base="c"/>
  </outline>
</glyph>
<glyph name="Dhook" format="2">
  <advance width="2523"/>
  <unicode hex="018A"/>
  <outline>
    <contour>
      <point x="237" y="1442" type="line"/>
      <point x="520" y="1442" type="line"/>
      <point x="534" y="1533" type="line" smooth="yes"/>
      <point x="554" y="1659"/>
      <point x="599" y="1778"/>
      <point x="761" y="1778" type="curve" smooth="yes"/>
      <point x="990" y="1778" type="line"/>
      <point x="1035" y="2048" type="line"/>
      <point x="802" y="2048" type="line" smooth="yes"/>
      <point x="505" y="2048"/>
      <point x="299" y="1857"/>
      <point x="261" y="1600" type="curve" smooth="yes"/>
    </contour>
    <component base="D" xOffset="491"/>
  </outline>
</glyph>
<glyph name="Dtopbar" format="2">
  <advance width="1814"/>
  <unicode hex="018B"/>
  <outline>
    <contour>
      <point x="1521" y="0" type="line"/>
      <point x="1855" y="2016" type="line"/>
      <point x="582" y="2016" type="line"/>
      <point x="538" y="1743" type="line"/>
      <point x="1478" y="1743" type="line"/>
      <point x="1392" y="1229" type="line"/>
      <point x="962" y="1229" type="line" smooth="yes"/>
      <point x="507" y="1229"/>
      <point x="202" y="986"/>
      <point x="141" y="621" type="curve" smooth="yes"/>
      <point x="79" y="255"/>
      <point x="302" y="0"/>
      <point x="757" y="0" type="curve" smooth="yes"/>
    </contour>
    <contour>
      <point x="1233" y="268" type="line"/>
      <point x="803" y="268" type="line" smooth="yes"/>
      <point x="535" y="268"/>
      <point x="448" y="435"/>
      <point x="478" y="625" type="curve" smooth="yes"/>
      <point x="509" y="810"/>
      <point x="648" y="958"/>
      <point x="916" y="958" type="curve" smooth="yes"/>
      <point x="1346" y="958" type="line"/>
    </contour>
  </outline>
</glyph>
<glyph name="deltaturn" format="2">
  <advance width="1628"/>
  <unicode hex="018D"/>
  <outline>
    <contour>
      <point x="1102" y="-516" type="line"/>
      <point x="1133" y="-334" type="line"/>
      <point x="1035" y="-200"/>
      <point x="868" y="-30"/>
      <point x="741" y="103" type="curve"/>
      <point x="761" y="103"/>
      <point x="767" y="103"/>
      <point x="793" y="106" type="curve" smooth="yes"/>
      <point x="1168" y="155"/>
      <point x="1446" y="428"/>
      <point x="1504" y="772" type="curve" smooth="yes"/>
      <point x="1508" y="800" type="line" smooth="yes"/>
      <point x="1575" y="1208"/>
      <point x="1373" y="1516"/>
      <point x="938" y="1516" type="curve" smooth="yes"/>
      <point x="503" y="1516"/>
      <point x="203" y="1201"/>
      <point x="134" y="784" type="curve" smooth="yes"/>
      <point x="130" y="756" type="line" smooth="yes"/>
      <point x="79" y="449"/>
      <point x="243" y="213"/>
      <point x="492" y="-32" type="curve" smooth="yes"/>
      <point x="575" y="-109"/>
      <point x="687" y="-223"/>
      <point x="718" y="-264" type="curve"/>
      <point x="120" y="-264" type="line"/>
      <point x="78" y="-516" type="line"/>
    </contour>
    <contour>
      <point x="1178" y="756" type="line"/>
      <point x="1135" y="506"/>
      <point x="983" y="290"/>
      <point x="715" y="290" type="curve" smooth="yes"/>
      <point x="674" y="290"/>
      <point x="645" y="293"/>
      <point x="613" y="304" type="curve"/>
      <point x="503" y="382"/>
      <point x="415" y="543"/>
      <point x="451" y="756" type="curve" smooth="yes"/>
      <point x="455" y="784" type="line" smooth="yes"/>
      <point x="496" y="1038"/>
      <point x="638" y="1258"/>
      <point x="896" y="1258" type="curve" smooth="yes"/>
      <point x="1161" y="1258"/>
      <point x="1222" y="1034"/>
      <point x="1182" y="784" type="curve" smooth="yes"/>
    </contour>
  </outline>
</glyph>
<glyph name="Schwa" format="2">
  <advance width="2072"/>
  <unicode hex="018F"/>
  <outline>
    <contour>
      <point x="906" y="-28" type="curve" smooth="yes"/>
      <point x="1379" y="-28"/>
      <point x="1819" y="362"/>
      <point x="1913" y="923" type="curve" smooth="yes"/>
      <point x="1938" y="1073" type="line" smooth="yes"/>
      <point x="2032" y="1634"/>
      <point x="1766" y="2032"/>
      <point x="1160" y="2032" type="curve" smooth="yes"/>
      <point x="848" y="2032"/>
      <point x="617" y="1942"/>
      <point x="556" y="1909" type="curve"/>
      <point x="581" y="1650" type="line"/>
      <point x="691" y="1691"/>
      <point x="866" y="1746"/>
      <point x="1108" y="1746" type="curve" smooth="yes"/>
      <point x="1546" y="1746"/>
      <point x="1663" y="1446"/>
      <point x="1600" y="1073" type="curve" smooth="yes"/>
      <point x="1575" y="923" type="line" smooth="yes"/>
      <point x="1513" y="552"/>
      <point x="1284" y="254"/>
      <point x="954" y="254" type="curve" smooth="yes"/>
      <point x="571" y="254"/>
      <point x="478" y="488"/>
      <point x="524" y="787" type="curve" smooth="yes"/>
      <point x="532" y="830" type="line"/>
      <point x="1673" y="830" type="line"/>
      <point x="1716" y="1092" type="line"/>
      <point x="241" y="1092" type="line"/>
      <point x="210" y="900" type="line" smooth="yes"/>
      <point x="116" y="331"/>
      <point x="346" y="-28"/>
    </contour>
  </outline>
</glyph>
<glyph name="Epsilon1" format="2">
  <advance width="1813"/>
  <unicode hex="0190"/>
  <outline>
    <contour>
      <point x="1170" y="960" type="line"/>
      <point x="1201" y="1154" type="line"/>
      <point x="968" y="1154" type="line" smooth="yes"/>
      <point x="700" y="1154"/>
      <point x="613" y="1274"/>
      <point x="644" y="1459" type="curve" smooth="yes"/>
      <point x="673" y="1629"/>
      <point x="813" y="1760"/>
      <point x="1090" y="1760" type="curve" smooth="yes"/>
      <point x="1301" y="1760"/>
      <point x="1432" y="1648"/>
      <point x="1402" y="1474" type="curve"/>
      <point x="1737" y="1474" type="line"/>
      <point x="1797" y="1818"/>
      <point x="1512" y="2032"/>
      <point x="1133" y="2032" type="curve" smooth="yes"/>
      <point x="695" y="2032"/>
      <point x="370" y="1832"/>
      <point x="310" y="1460" type="curve" smooth="yes"/>
      <point x="258" y="1147"/>
      <point x="514" y="960"/>
      <point x="910" y="960" type="curve"/>
    </contour>
    <contour>
      <point x="930" y="1080" type="line"/>
      <point x="484" y="1080"/>
      <point x="182" y="896"/>
      <point x="126" y="560" type="curve" smooth="yes"/>
      <point x="59" y="145"/>
      <point x="357" y="-28"/>
      <point x="793" y="-28" type="curve" smooth="yes"/>
      <point x="1147" y="-28"/>
      <point x="1547" y="148"/>
      <point x="1614" y="556" type="curve"/>
      <point x="1279" y="556" type="line"/>
      <point x="1251" y="379"/>
      <point x="1079" y="240"/>
      <point x="836" y="240" type="curve" smooth="yes"/>
      <point x="579" y="240"/>
      <point x="429" y="342"/>
      <point x="465" y="561" type="curve" smooth="yes"/>
      <point x="504" y="795"/>
      <point x="662" y="890"/>
      <point x="926" y="890" type="curve" smooth="yes"/>
      <point x="1158" y="890" type="line"/>
      <point x="1190" y="1080" type="line"/>
    </contour>
  </outline>
</glyph>
<glyph name="Fhook" format="2">
  <advance width="1673"/>
  <unicode hex="0191"/>
  <outline>
    <contour>
      <point x="119" y="0" type="line"/>
      <point x="98" y="-138" type="line" smooth="yes"/>
      <point x="75" y="-289"/>
      <point x="-33" y="-326"/>
      <point x="-145" y="-326" type="curve" smooth="yes"/>
      <point x="-179" y="-326"/>
      <point x="-210" y="-324"/>
      <point x="-230" y="-320" type="curve"/>
      <point x="-270" y="-565" type="line"/>
      <point x="-228" y="-576"/>
      <point x="-180" y="-576"/>
      <point x="-149" y="-576" type="curve" smooth="yes"/>
      <point x="132" y="-576"/>
      <point x="353" y="-450"/>
      <point x="405" y="-141" type="curve" smooth="yes"/>
      <point x="429" y="0" type="line"/>
    </contour>
    <component base="F" xOffset="22"/>
  </outline>
</glyph>
<glyph name="florin" format="2">
  <advance width="1166"/>
  <unicode hex="0192"/>
  <outline>
    <contour>
      <point x="1105" y="1488" type="line"/>
      <point x="818" y="1488" type="line"/>
      <point x="841" y="1631" type="line" smooth="yes"/>
      <point x="867" y="1790"/>
      <point x="963" y="1870"/>
      <point x="1112" y="1870" type="curve" smooth="yes"/>
      <point x="1166" y="1870"/>
      <point x="1202" y="1863"/>
      <point x="1230" y="1855" type="curve"/>
      <point x="1325" y="2106" type="line"/>
      <point x="1271" y="2125"/>
      <point x="1175" y="2140"/>
      <point x="1095" y="2140" type="curve" smooth="yes"/>
      <point x="815" y="2140"/>
      <point x="592" y="1962"/>
      <point x="538" y="1631" type="curve" smooth="yes"/>
      <point x="515" y="1488" type="line"/>
      <point x="273" y="1488" type="line"/>
      <point x="232" y="1251" type="line"/>
      <point x="474" y="1251" type="line"/>
      <point x="251" y="-102" type="line" smooth="yes"/>
      <point x="225" y="-251"/>
      <point x="144" y="-342"/>
      <point x="30" y="-342" type="curve" smooth="yes"/>
      <point x="3" y="-342"/>
      <point x="-71" y="-337"/>
      <point x="-100" y="-326" type="curve"/>
      <point x="-162" y="-580" type="line"/>
      <point x="-103" y="-596"/>
      <point x="-54" y="-600"/>
      <point x="6" y="-600" type="curve" smooth="yes"/>
      <point x="303" y="-600"/>
      <point x="500" y="-425"/>
      <point x="554" y="-102" type="curve" smooth="yes"/>
      <point x="778" y="1251" type="line"/>
      <point x="1064" y="1251" type="line"/>
    </contour>
  </outline>
</glyph>
<glyph name="Ghook" format="2">
  <advance width="2234"/>
  <unicode hex="0193"/>
  <outline>
    <contour>
      <point x="2029" y="1401" type="line"/>
      <point x="2070" y="1649" type="line" smooth="yes"/>
      <point x="2098" y="1811"/>
      <point x="2210" y="1854"/>
      <point x="2343" y="1854" type="curve" smooth="yes"/>
      <point x="2374" y="1854"/>
      <point x="2405" y="1850"/>
      <point x="2430" y="1846" type="curve"/>
      <point x="2470" y="2092" type="line"/>
      <point x="2427" y="2106"/>
      <point x="2371" y="2108"/>
      <point x="2316" y="2108" type="curve" smooth="yes"/>
      <point x="2034" y="2108"/>
      <point x="1825" y="1944"/>
      <point x="1764" y="1649" type="curve" smooth="yes"/>
      <point x="1714" y="1401" type="line"/>
    </contour>
    <component base="G"/>
  </outline>
</glyph>
<glyph name="Gamma1" format="2">
  <advance width="1883"/>
  <unicode hex="0194"/>
  <outline>
    <contour>
      <point x="267" y="2036" type="line"/>
      <point x="799" y="159" type="line" smooth="yes"/>
      <point x="862" y="-64"/>
      <point x="893" y="-167"/>
      <point x="881" y="-247" type="curve" smooth="yes"/>
      <point x="873" y="-298"/>
      <point x="827" y="-350"/>
      <point x="758" y="-350" type="curve" smooth="yes"/>
      <point x="689" y="-350"/>
      <point x="658" y="-303"/>
      <point x="666" y="-247" type="curve" smooth="yes"/>
      <point x="679" y="-166"/>
      <point x="756" y="-57"/>
      <point x="888" y="159" type="curve" smooth="yes"/>
      <point x="2035" y="2036" type="line"/>
      <point x="1692" y="2036" type="line"/>
      <point x="774" y="487" type="line" smooth="yes"/>
      <point x="547" y="104"/>
      <point x="378" y="-117"/>
      <point x="354" y="-252" type="curve" smooth="yes"/>
      <point x="315" y="-482"/>
      <point x="468" y="-600"/>
      <point x="714" y="-600" type="curve" smooth="yes"/>
      <point x="959" y="-600"/>
      <point x="1148" y="-482"/>
      <point x="1187" y="-252" type="curve" smooth="yes"/>
      <point x="1208" y="-122"/>
      <point x="1111" y="106"/>
      <point x="1010" y="487" type="curve" smooth="yes"/>
      <point x="610" y="2036" type="line"/>
    </contour>
  </outline>
</glyph>
<glyph name="hv" format="2">
  <advance width="2699"/>
  <unicode hex="0195"/>
  <note>
Note: Must be split in two, or conversion to quadratic curves will fail.
</note>
  <outline>
    <contour>
      <point x="74" y="0" type="line"/>
      <point x="373" y="0" type="line"/>
      <point x="523" y="912" type="line" smooth="yes"/>
      <point x="567" y="1157"/>
      <point x="744" y="1297"/>
      <point x="957" y="1297" type="curve" smooth="yes"/>
      <point x="1161" y="1297"/>
      <point x="1263" y="1166"/>
      <point x="1226" y="941" type="curve" smooth="yes"/>
      <point x="1198" y="768" type="line"/>
      <point x="1497" y="768" type="line"/>
      <point x="1533" y="977" type="line" smooth="yes"/>
      <point x="1595" y="1361"/>
      <point x="1417" y="1556"/>
      <point x="1102" y="1556" type="curve" smooth="yes"/>
      <point x="861" y="1556"/>
      <point x="699" y="1453"/>
      <point x="602" y="1286" type="curve"/>
      <point x="583" y="1286" type="line"/>
      <point x="709" y="2048" type="line"/>
      <point x="414" y="2048" type="line"/>
    </contour>
    <contour>
      <point x="1614" y="-28" type="curve" smooth="yes"/>
      <point x="2070" y="-28"/>
      <point x="2434" y="388"/>
      <point x="2593" y="1341" type="curve"/>
      <point x="2626" y="1536" type="line"/>
      <point x="2327" y="1536" type="line"/>
      <point x="2294" y="1341" type="line" smooth="yes"/>
      <point x="2161" y="542"/>
      <point x="1918" y="228"/>
      <point x="1674" y="228" type="curve" smooth="yes"/>
      <point x="1558" y="228"/>
      <point x="1417" y="295"/>
      <point x="1469" y="605" type="curve"/>
      <point x="1497" y="768" type="line"/>
      <point x="1198" y="768" type="line"/>
      <point x="1170" y="605" type="line" smooth="yes"/>
      <point x="1100" y="176"/>
      <point x="1293" y="-28"/>
    </contour>
  </outline>
</glyph>
<glyph name="Iota1" format="2">
  <advance width="1037"/>
  <unicode hex="0196"/>
  <outline>
    <contour>
      <point x="710" y="2112" type="line"/>
      <point x="386" y="2112" type="line"/>
      <point x="115" y="481" type="line" smooth="yes"/>
      <point x="62" y="154"/>
      <point x="220" y="-28"/>
      <point x="538" y="-28" type="curve" smooth="yes"/>
      <point x="605" y="-28"/>
      <point x="679" y="-16"/>
      <point x="747" y="0" type="curve"/>
      <point x="758" y="246" type="line"/>
      <point x="719" y="238"/>
      <point x="682" y="231"/>
      <point x="628" y="231" type="curve" smooth="yes"/>
      <point x="477" y="231"/>
      <point x="415" y="326"/>
      <point x="440" y="481" type="curve" smooth="yes"/>
    </contour>
  </outline>
</glyph>
<glyph name="Khook" format="2">
  <advance width="1946"/>
  <unicode hex="0198"/>
  <outline>
    <contour>
      <point x="97" y="0" type="line"/>
      <point x="406" y="0" type="line"/>
      <point x="510" y="619" type="line"/>
      <point x="811" y="900" type="line"/>
      <point x="1336" y="0" type="line"/>
      <point x="1709" y="0" type="line"/>
      <point x="1040" y="1117" type="line"/>
      <point x="1688" y="1703" type="line" smooth="yes"/>
      <point x="1802" y="1807"/>
      <point x="1890" y="1823"/>
      <point x="1975" y="1766" type="curve"/>
      <point x="2126" y="1991" type="line"/>
      <point x="1953" y="2119"/>
      <point x="1722" y="2101"/>
      <point x="1514" y="1911" type="curve" smooth="yes"/>
      <point x="610" y="1077" type="line"/>
      <point x="586" y="1077" type="line"/>
      <point x="746" y="2048" type="line"/>
      <point x="437" y="2048" type="line"/>
    </contour>
  </outline>
</glyph>
<glyph name="khook" format="2">
  <advance width="1542"/>
  <unicode hex="0199"/>
  <outline>
    <contour>
      <point x="1039" y="0" type="line"/>
      <point x="1384" y="0" type="line"/>
      <point x="882" y="880" type="line"/>
      <point x="1586" y="1536" type="line"/>
      <point x="1220" y="1536" type="line"/>
      <point x="541" y="895" type="line"/>
      <point x="521" y="895" type="line"/>
      <point x="630" y="1564" type="line"/>
      <point x="331" y="1564" type="line"/>
      <point x="73" y="0" type="line"/>
      <point x="372" y="0" type="line"/>
      <point x="451" y="477" type="line"/>
      <point x="656" y="664" type="line"/>
    </contour>
    <contour>
      <point x="609" y="1422" type="line"/>
      <point x="644" y="1641" type="line" smooth="yes"/>
      <point x="670" y="1787"/>
      <point x="776" y="1830"/>
      <point x="898" y="1830" type="curve" smooth="yes"/>
      <point x="928" y="1830"/>
      <point x="959" y="1826"/>
      <point x="980" y="1822" type="curve"/>
      <point x="1022" y="2063" type="line"/>
      <point x="981" y="2074"/>
      <point x="921" y="2076"/>
      <point x="859" y="2076" type="curve" smooth="yes"/>
      <point x="623" y="2076"/>
      <point x="396" y="1949"/>
      <point x="345" y="1641" type="curve" smooth="yes"/>
      <point x="310" y="1422" type="line"/>
    </contour>
  </outline>
</glyph>
<glyph name="lambdabar" format="2">
  <advance width="1811"/>
  <unicode hex="019B"/>
  <outline>
    <contour>
      <point x="1187" y="1930" type="line"/>
      <point x="424" y="1672" type="line"/>
      <point x="386" y="1426" type="line"/>
      <point x="1145" y="1683" type="line"/>
    </contour>
    <contour>
      <point x="917" y="1037" type="line"/>
      <point x="1070" y="1512" type="line"/>
      <point x="849" y="1521" type="line"/>
      <point x="23" y="0" type="line"/>
      <point x="377" y="0" type="line"/>
    </contour>
    <contour>
      <point x="718" y="2102" type="curve"/>
      <point x="671" y="2102"/>
      <point x="581" y="2094"/>
      <point x="544" y="2082" type="curve"/>
      <point x="506" y="1839" type="line"/>
      <point x="531" y="1843"/>
      <point x="561" y="1843"/>
      <point x="579" y="1843" type="curve" smooth="yes"/>
      <point x="656" y="1843"/>
      <point x="700" y="1812"/>
      <point x="723" y="1718" type="curve" smooth="yes"/>
      <point x="820" y="1335" type="line"/>
      <point x="1054" y="263" type="line" smooth="yes"/>
      <point x="1102" y="32"/>
      <point x="1193" y="-25"/>
      <point x="1380" y="-25" type="curve" smooth="yes"/>
      <point x="1431" y="-25"/>
      <point x="1481" y="-19"/>
      <point x="1507" y="-11" type="curve"/>
      <point x="1544" y="246" type="line"/>
      <point x="1532" y="246"/>
      <point x="1513" y="246"/>
      <point x="1496" y="246" type="curve" smooth="yes"/>
      <point x="1431" y="246"/>
      <point x="1403" y="287"/>
      <point x="1382" y="371" type="curve" smooth="yes"/>
      <point x="1036" y="1871" type="line" smooth="yes"/>
      <point x="1002" y="2018"/>
      <point x="923" y="2102"/>
    </contour>
  </outline>
</glyph>
<glyph name="mcapturn" format="2">
  <advance width="2591"/>
  <unicode hex="019C"/>
  <outline>
    <contour>
      <point x="1968" y="312" type="line"/>
      <point x="1938" y="0" type="line"/>
      <point x="2238" y="0" type="line"/>
      <point x="2570" y="2004" type="line"/>
      <point x="2249" y="2004" type="line"/>
    </contour>
    <contour>
      <point x="2062" y="692" type="line"/>
      <point x="2018" y="436"/>
      <point x="1890" y="237"/>
      <point x="1611" y="237" type="curve" smooth="yes"/>
      <point x="1483" y="237"/>
      <point x="1381" y="316"/>
      <point x="1426" y="600" type="curve"/>
      <point x="1659" y="2004" type="line"/>
      <point x="1339" y="2004" type="line"/>
      <point x="1106" y="600" type="line"/>
      <point x="1031" y="130"/>
      <point x="1201" y="-28"/>
      <point x="1498" y="-28" type="curve" smooth="yes"/>
      <point x="1899" y="-28"/>
      <point x="2124" y="280"/>
      <point x="2192" y="696" type="curve"/>
    </contour>
    <contour>
      <point x="1156" y="692" type="line"/>
      <point x="1111" y="435"/>
      <point x="980" y="237"/>
      <point x="702" y="237" type="curve" smooth="yes"/>
      <point x="574" y="237"/>
      <point x="474" y="316"/>
      <point x="520" y="600" type="curve" smooth="yes"/>
      <point x="753" y="2004" type="line"/>
      <point x="430" y="2004" type="line"/>
      <point x="197" y="600" type="line" smooth="yes"/>
      <point x="122" y="134"/>
      <point x="279" y="-28"/>
      <point x="589" y="-28" type="curve" smooth="yes"/>
      <point x="993" y="-28"/>
      <point x="1218" y="278"/>
      <point x="1287" y="696" type="curve"/>
    </contour>
  </outline>
</glyph>
<glyph name="Nhook" format="2">
  <advance width="2134"/>
  <unicode hex="019D"/>
  <outline>
    <contour>
      <point x="127" y="0" type="line"/>
      <point x="103" y="-138" type="line" smooth="yes"/>
      <point x="77" y="-284"/>
      <point x="-25" y="-326"/>
      <point x="-150" y="-326" type="curve"/>
      <point x="-175" y="-326"/>
      <point x="-206" y="-324"/>
      <point x="-229" y="-320" type="curve"/>
      <point x="-268" y="-565" type="line"/>
      <point x="-223" y="-574"/>
      <point x="-151" y="-579"/>
      <point x="-90" y="-579" type="curve"/>
      <point x="146" y="-579"/>
      <point x="348" y="-465"/>
      <point x="410" y="-141" type="curve" smooth="yes"/>
      <point x="437" y="0" type="line"/>
    </contour>
    <component base="N" xOffset="30"/>
  </outline>
</glyph>
<glyph name="Ohorn" format="2">
  <advance width="2217"/>
  <unicode hex="01A0"/>
  <outline>
    <contour>
      <point x="2166" y="2180" type="line"/>
      <point x="2127" y="1942"/>
      <point x="2023" y="1803"/>
      <point x="1820" y="1803" type="curve"/>
      <point x="1786" y="1599" type="line"/>
      <point x="2144" y="1599"/>
      <point x="2354" y="1810"/>
      <point x="2415" y="2180" type="curve"/>
    </contour>
    <component base="O"/>
  </outline>
</glyph>
<glyph name="ohorn" format="2">
  <advance width="1719"/>
  <unicode hex="01A1"/>
  <outline>
    <contour>
      <point x="1631" y="1643" type="line"/>
      <point x="1595" y="1437"/>
      <point x="1540" y="1302"/>
      <point x="1336" y="1302" type="curve"/>
      <point x="1307" y="1134" type="line"/>
      <point x="1648" y="1134"/>
      <point x="1809" y="1328"/>
      <point x="1862" y="1643" type="curve"/>
    </contour>
    <component base="o"/>
  </outline>
</glyph>
<glyph name="OI" format="2">
  <advance width="2399"/>
  <unicode hex="01A2"/>
  <outline>
    <contour>
      <point x="1781" y="1057" type="line"/>
      <point x="1459" y="1057" type="line"/>
      <point x="1343" y="369" type="line"/>
      <point x="1284" y="318"/>
      <point x="1179" y="240"/>
      <point x="928" y="240" type="curve" smooth="yes"/>
      <point x="565" y="240"/>
      <point x="439" y="518"/>
      <point x="507" y="935" type="curve" smooth="yes"/>
      <point x="526" y="1056" type="line"/>
      <point x="189" y="1052" type="line"/>
      <point x="170" y="935" type="line" smooth="yes"/>
      <point x="67" y="313"/>
      <point x="369" y="-28"/>
      <point x="869" y="-28" type="curve" smooth="yes"/>
      <point x="1323" y="-28"/>
      <point x="1551" y="154"/>
      <point x="1647" y="266" type="curve"/>
    </contour>
    <contour>
      <point x="1893" y="1738" type="line"/>
      <point x="1833" y="1850"/>
      <point x="1664" y="2032"/>
      <point x="1209" y="2032" type="curve" smooth="yes"/>
      <point x="705" y="2032"/>
      <point x="294" y="1676"/>
      <point x="194" y="1069" type="curve" smooth="yes"/>
      <point x="174" y="957" type="line"/>
      <point x="511" y="956" type="line"/>
      <point x="530" y="1069" type="line" smooth="yes"/>
      <point x="602" y="1510"/>
      <point x="838" y="1761"/>
      <point x="1174" y="1761" type="curve" smooth="yes"/>
      <point x="1428" y="1761"/>
      <point x="1508" y="1690"/>
      <point x="1554" y="1633" type="curve"/>
      <point x="1438" y="926" type="line"/>
      <point x="1760" y="928" type="line"/>
    </contour>
    <contour>
      <point x="2461" y="2004" type="line"/>
      <point x="2214" y="2004" type="line"/>
      <point x="1748" y="1818" type="line"/>
      <point x="1697" y="1513" type="line"/>
      <point x="2081" y="1656" type="line"/>
      <point x="1714" y="-572" type="line"/>
      <point x="2037" y="-572" type="line"/>
    </contour>
  </outline>
</glyph>
<glyph name="oi" format="2">
  <advance width="1882"/>
  <unicode hex="01A3"/>
  <outline>
    <contour>
      <point x="691" y="231" type="curve" smooth="yes"/>
      <point x="450" y="231"/>
      <point x="367" y="422"/>
      <point x="418" y="719" type="curve" smooth="yes"/>
      <point x="425" y="769" type="line" smooth="yes"/>
      <point x="465" y="1006"/>
      <point x="577" y="1258"/>
      <point x="861" y="1258" type="curve"/>
      <point x="943" y="1258"/>
      <point x="1004" y="1232"/>
      <point x="1044" y="1188" type="curve"/>
      <point x="968" y="727" type="line"/>
      <point x="1290" y="718" type="line"/>
      <point x="1380" y="1262" type="line"/>
      <point x="1307" y="1400"/>
      <point x="1146" y="1516"/>
      <point x="907" y="1516" type="curve" smooth="yes"/>
      <point x="447" y="1516"/>
      <point x="170" y="1174"/>
      <point x="102" y="769" type="curve" smooth="yes"/>
      <point x="94" y="719" type="line" smooth="yes"/>
      <point x="25" y="314"/>
      <point x="188" y="-28"/>
      <point x="651" y="-28" type="curve"/>
      <point x="885" y="-28"/>
      <point x="1079" y="77"/>
      <point x="1208" y="218" type="curve"/>
      <point x="1301" y="779" type="line"/>
      <point x="977" y="779" type="line"/>
      <point x="898" y="292" type="line"/>
      <point x="838" y="254"/>
      <point x="768" y="231"/>
    </contour>
    <contour>
      <point x="1901" y="1488" type="line"/>
      <point x="1661" y="1488" type="line"/>
      <point x="1237" y="1298" type="line"/>
      <point x="1178" y="933" type="line"/>
      <point x="1513" y="1094" type="line"/>
      <point x="1239" y="-572" type="line"/>
      <point x="1561" y="-572" type="line"/>
    </contour>
  </outline>
</glyph>
<glyph name="Phook" format="2">
  <advance width="2278"/>
  <unicode hex="01A4"/>
  <note>
!post:RemoveOverlap
</note>
  <outline>
    <contour>
      <point x="521" y="1442" type="line"/>
      <point x="535" y="1533" type="line" smooth="yes"/>
      <point x="555" y="1659"/>
      <point x="602" y="1783"/>
      <point x="763" y="1783" type="curve" smooth="yes"/>
      <point x="993" y="1783" type="line"/>
      <point x="1036" y="2048" type="line"/>
      <point x="803" y="2048" type="line" smooth="yes"/>
      <point x="506" y="2048"/>
      <point x="301" y="1857"/>
      <point x="262" y="1600" type="curve" smooth="yes"/>
      <point x="238" y="1442" type="line"/>
    </contour>
    <component base="P" xOffset="478"/>
  </outline>
</glyph>
<glyph name="phook" format="2">
  <advance width="1738"/>
  <unicode hex="01A5"/>
  <outline>
    <contour>
      <point x="621" y="1536" type="line"/>
      <point x="638" y="1639"/>
      <point x="709" y="1683"/>
      <point x="848" y="1682" type="curve" smooth="yes"/>
      <point x="882" y="1682"/>
      <point x="919" y="1675"/>
      <point x="942" y="1670" type="curve"/>
      <point x="980" y="1898" type="line"/>
      <point x="954" y="1907"/>
      <point x="894" y="1914"/>
      <point x="821" y="1914" type="curve" smooth="yes"/>
      <point x="543" y="1914"/>
      <point x="369" y="1787"/>
      <point x="329" y="1536" type="curve"/>
    </contour>
    <component base="p"/>
  </outline>
</glyph>
<glyph name="YR" format="2">
  <advance width="2070"/>
  <unicode hex="01A6"/>
  <outline>
    <contour>
      <point x="328" y="1864" type="line"/>
      <point x="666" y="1864" type="line"/>
      <point x="714" y="2144" type="line"/>
      <point x="376" y="2144" type="line"/>
    </contour>
    <contour>
      <point x="351" y="2004" type="line"/>
      <point x="19" y="0" type="line"/>
      <point x="358" y="0" type="line"/>
      <point x="646" y="1732" type="line"/>
      <point x="1012" y="1732" type="line" smooth="yes"/>
      <point x="1286" y="1732"/>
      <point x="1377" y="1596"/>
      <point x="1342" y="1386" type="curve" smooth="yes"/>
      <point x="1312" y="1193"/>
      <point x="1156" y="1048"/>
      <point x="898" y="1048" type="curve" smooth="yes"/>
      <point x="438" y="1048" type="line"/>
      <point x="396" y="780" type="line"/>
      <point x="1022" y="780" type="line"/>
      <point x="1126" y="825" type="line"/>
      <point x="1425" y="910"/>
      <point x="1632" y="1104"/>
      <point x="1679" y="1399" type="curve" smooth="yes"/>
      <point x="1743" y="1792"/>
      <point x="1517" y="2004"/>
      <point x="1055" y="2004" type="curve" smooth="yes"/>
    </contour>
    <contour>
      <point x="1358" y="-491" type="line"/>
      <point x="1716" y="-491" type="line"/>
      <point x="1717" y="-474" type="line"/>
      <point x="1202" y="906" type="line"/>
      <point x="848" y="906" type="line"/>
    </contour>
  </outline>
</glyph>
<glyph name="eshlooprev" format="2">
  <advance width="1626"/>
  <unicode hex="01AA"/>
  <outline>
    <contour>
      <point x="971" y="1504" type="line"/>
      <point x="711" y="-63" type="line" smooth="yes"/>
      <point x="657" y="-393"/>
      <point x="778" y="-571"/>
      <point x="1062" y="-571" type="curve" smooth="yes"/>
      <point x="1119" y="-571"/>
      <point x="1191" y="-564"/>
      <point x="1242" y="-548" type="curve"/>
      <point x="1284" y="-294" type="line"/>
      <point x="1249" y="-302"/>
      <point x="1209" y="-306"/>
      <point x="1181" y="-306" type="curve" smooth="yes"/>
      <point x="1060" y="-306"/>
      <point x="1005" y="-240"/>
      <point x="1035" y="-63" type="curve" smooth="yes"/>
      <point x="1321" y="1653" type="line"/>
    </contour>
    <contour>
      <point x="314" y="1653" type="curve" smooth="yes"/>
      <point x="266" y="1378"/>
      <point x="453" y="1153"/>
      <point x="732" y="1153" type="curve" smooth="yes"/>
      <point x="1008" y="1153"/>
      <point x="1274" y="1379"/>
      <point x="1321" y="1653" type="curve" smooth="yes"/>
      <point x="1364" y="1929"/>
      <point x="1174" y="2153"/>
      <point x="898" y="2153" type="curve" smooth="yes"/>
      <point x="619" y="2153"/>
      <point x="357" y="1929"/>
    </contour>
    <contour>
      <point x="782" y="1440" type="curve" smooth="yes"/>
      <point x="662" y="1440"/>
      <point x="583" y="1511"/>
      <point x="607" y="1657" type="curve" smooth="yes"/>
      <point x="630" y="1798"/>
      <point x="733" y="1872"/>
      <point x="853" y="1872" type="curve" smooth="yes"/>
      <point x="966" y="1872"/>
      <point x="1046" y="1798"/>
      <point x="1023" y="1657" type="curve" smooth="yes"/>
      <point x="999" y="1511"/>
      <point x="897" y="1440"/>
    </contour>
  </outline>
</glyph>
<glyph name="tpalatalhook" format="2">
  <advance width="1056"/>
  <unicode hex="01AB"/>
  <outline>
    <contour>
      <point x="609" y="221" type="line"/>
      <point x="547" y="-141" type="line" smooth="yes"/>
      <point x="521" y="-298"/>
      <point x="408" y="-342"/>
      <point x="286" y="-342" type="curve" smooth="yes"/>
      <point x="253" y="-342"/>
      <point x="224" y="-338"/>
      <point x="200" y="-334" type="curve"/>
      <point x="164" y="-561" type="line"/>
      <point x="204" y="-574"/>
      <point x="257" y="-575"/>
      <point x="310" y="-575" type="curve" smooth="yes"/>
      <point x="554" y="-575"/>
      <point x="757" y="-418"/>
      <point x="804" y="-141" type="curve" smooth="yes"/>
      <point x="874" y="274" type="line"/>
    </contour>
    <component base="t"/>
  </outline>
</glyph>
<glyph name="Thook" format="2">
  <advance width="1940"/>
  <unicode hex="01AC"/>
  <note>
!post:RemoveOverlap
</note>
  <outline>
    <contour>
      <point x="1235" y="2048" type="line"/>
      <point x="795" y="2048" type="line" smooth="yes"/>
      <point x="505" y="2048"/>
      <point x="306" y="1871"/>
      <point x="262" y="1602" type="curve" smooth="yes"/>
      <point x="237" y="1457" type="line"/>
      <point x="506" y="1457" type="line"/>
      <point x="521" y="1547" type="line" smooth="yes"/>
      <point x="540" y="1666"/>
      <point x="602" y="1782"/>
      <point x="751" y="1782" type="curve" smooth="yes"/>
      <point x="1191" y="1782" type="line"/>
    </contour>
    <contour>
      <point x="2028" y="2048" type="line"/>
      <point x="922" y="2048" type="line"/>
      <point x="878" y="1782" type="line"/>
      <point x="1038" y="1782" type="line"/>
      <point x="742" y="0" type="line"/>
      <point x="1050" y="0" type="line"/>
      <point x="1346" y="1782" type="line"/>
      <point x="1984" y="1782" type="line"/>
    </contour>
  </outline>
</glyph>
<glyph name="thook" format="2">
  <advance width="1109"/>
  <unicode hex="01AD"/>
  <outline>
    <contour>
      <point x="814" y="1499" type="line"/>
      <point x="850" y="1720" type="line" smooth="yes"/>
      <point x="877" y="1878"/>
      <point x="980" y="1929"/>
      <point x="1102" y="1929" type="curve" smooth="yes"/>
      <point x="1129" y="1929"/>
      <point x="1163" y="1924"/>
      <point x="1187" y="1917" type="curve"/>
      <point x="1221" y="2132" type="line"/>
      <point x="1178" y="2145"/>
      <point x="1120" y="2153"/>
      <point x="1062" y="2153" type="curve" smooth="yes"/>
      <point x="812" y="2153"/>
      <point x="577" y="2025"/>
      <point x="526" y="1720" type="curve" smooth="yes"/>
      <point x="491" y="1499" type="line"/>
    </contour>
    <contour>
      <point x="1081" y="1488" type="line"/>
      <point x="237" y="1488" type="line"/>
      <point x="196" y="1251" type="line"/>
      <point x="1040" y="1251" type="line"/>
    </contour>
    <contour>
      <point x="502" y="1575" type="line"/>
      <point x="310" y="417" type="line"/>
      <point x="258" y="98"/>
      <point x="401" y="-28"/>
      <point x="617" y="-28" type="curve" smooth="yes"/>
      <point x="713" y="-28"/>
      <point x="789" y="-14"/>
      <point x="842" y="3" type="curve"/>
      <point x="882" y="254" type="line"/>
      <point x="856" y="250"/>
      <point x="809" y="241"/>
      <point x="762" y="241" type="curve" smooth="yes"/>
      <point x="674" y="241"/>
      <point x="610" y="282"/>
      <point x="635" y="432" type="curve"/>
      <point x="825" y="1575" type="line"/>
    </contour>
  </outline>
</glyph>
<glyph name="Trthook" format="2">
  <advance width="1833"/>
  <unicode hex="01AE"/>
  <outline>
    <contour>
      <point x="942" y="0" type="line"/>
      <point x="634" y="0" type="line"/>
      <point x="610" y="-143" type="line" smooth="yes"/>
      <point x="559" y="-453"/>
      <point x="764" y="-576"/>
      <point x="1002" y="-576" type="curve"/>
      <point x="1158" y="-576" type="line"/>
      <point x="1201" y="-318" type="line"/>
      <point x="1122" y="-318" type="line"/>
      <point x="1000" y="-318"/>
      <point x="894" y="-287"/>
      <point x="918" y="-141" type="curve" smooth="yes"/>
    </contour>
    <component base="T"/>
  </outline>
</glyph>
<glyph name="Uhorn" format="2">
  <advance width="2441"/>
  <unicode hex="01AF"/>
  <outline>
    <contour>
      <point x="2300" y="2155" type="line"/>
      <point x="2256" y="1891"/>
      <point x="2171" y="1745"/>
      <point x="1882" y="1745" type="curve"/>
      <point x="1848" y="1539" type="line"/>
      <point x="2287" y="1539"/>
      <point x="2481" y="1758"/>
      <point x="2546" y="2155" type="curve"/>
    </contour>
    <component base="U"/>
  </outline>
</glyph>
<glyph name="uhorn" format="2">
  <advance width="1833"/>
  <unicode hex="01B0"/>
  <outline>
    <contour>
      <point x="1798" y="1610" type="line"/>
      <point x="1764" y="1395"/>
      <point x="1736" y="1300"/>
      <point x="1477" y="1300" type="curve"/>
      <point x="1447" y="1127" type="line"/>
      <point x="1829" y="1127"/>
      <point x="1968" y="1291"/>
      <point x="2019" y="1610" type="curve"/>
    </contour>
    <component base="u" xOffset="2"/>
  </outline>
</glyph>
<glyph name="Upsilon2" format="2">
  <advance width="2160"/>
  <unicode hex="01B1"/>
  <outline>
    <contour>
      <point x="185" y="958" type="curve" smooth="yes"/>
      <point x="90" y="380"/>
      <point x="407" y="-28"/>
      <point x="948" y="-28" type="curve" smooth="yes"/>
      <point x="1489" y="-28"/>
      <point x="1941" y="380"/>
      <point x="2036" y="958" type="curve"/>
      <point x="2098" y="1330"/>
      <point x="1988" y="1605"/>
      <point x="1758" y="1767" type="curve"/>
      <point x="1761" y="1782" type="line"/>
      <point x="2174" y="1782" type="line"/>
      <point x="2218" y="2048" type="line"/>
      <point x="1462" y="2048" type="line"/>
      <point x="1405" y="1712" type="line"/>
      <point x="1638" y="1608"/>
      <point x="1791" y="1324"/>
      <point x="1732" y="969" type="curve" smooth="yes"/>
      <point x="1668" y="566"/>
      <point x="1358" y="255"/>
      <point x="996" y="255" type="curve" smooth="yes"/>
      <point x="634" y="255"/>
      <point x="428" y="566"/>
      <point x="492" y="969" type="curve"/>
      <point x="551" y="1324"/>
      <point x="802" y="1608"/>
      <point x="1066" y="1712" type="curve"/>
      <point x="1122" y="2048" type="line"/>
      <point x="366" y="2048" type="line"/>
      <point x="322" y="1782" type="line"/>
      <point x="735" y="1782" type="line"/>
      <point x="731" y="1766" type="line"/>
      <point x="450" y="1602"/>
      <point x="246" y="1330"/>
    </contour>
  </outline>
</glyph>
<glyph name="Vcursive" format="2">
  <advance width="1811"/>
  <unicode hex="01B2"/>
  <outline>
    <contour>
      <point x="774" y="-28" type="curve" smooth="yes"/>
      <point x="1187" y="-28"/>
      <point x="1565" y="206"/>
      <point x="1642" y="662" type="curve" smooth="yes"/>
      <point x="1782" y="1523" type="line" smooth="yes"/>
      <point x="1838" y="1850"/>
      <point x="1675" y="2031"/>
      <point x="1386" y="2031" type="curve" smooth="yes"/>
      <point x="1331" y="2031"/>
      <point x="1263" y="2021"/>
      <point x="1210" y="2007" type="curve"/>
      <point x="1166" y="1746" type="line"/>
      <point x="1201" y="1754"/>
      <point x="1242" y="1754"/>
      <point x="1270" y="1754" type="curve" smooth="yes"/>
      <point x="1415" y="1754"/>
      <point x="1474" y="1695"/>
      <point x="1443" y="1523" type="curve" smooth="yes"/>
      <point x="1302" y="662" type="line" smooth="yes"/>
      <point x="1255" y="376"/>
      <point x="1076" y="240"/>
      <point x="818" y="240" type="curve" smooth="yes"/>
      <point x="559" y="240"/>
      <point x="425" y="376"/>
      <point x="473" y="662" type="curve" smooth="yes"/>
      <point x="694" y="2004" type="line"/>
      <point x="360" y="2004" type="line"/>
      <point x="138" y="662" type="line" smooth="yes"/>
      <point x="62" y="205"/>
      <point x="345" y="-28"/>
    </contour>
  </outline>
</glyph>
<glyph name="Yhook" format="2">
  <advance width="2066"/>
  <unicode hex="01B3"/>
  <note>
!post:RemoveOverlap
</note>
  <outline>
    <contour>
      <point x="1774" y="1619" type="line"/>
      <point x="1826" y="1686" type="line" smooth="yes"/>
      <point x="1918" y="1811"/>
      <point x="2009" y="1829"/>
      <point x="2110" y="1788" type="curve"/>
      <point x="2223" y="2030" type="line"/>
      <point x="2024" y="2123"/>
      <point x="1785" y="2070"/>
      <point x="1598" y="1824" type="curve" smooth="yes"/>
      <point x="1534" y="1738" type="line"/>
    </contour>
    <contour>
      <point x="1013" y="1069" type="line"/>
      <point x="1061" y="1069" type="line"/>
      <point x="1069" y="1117" type="line"/>
      <point x="1021" y="1117" type="line"/>
    </contour>
    <contour>
      <point x="634" y="2048" type="line"/>
      <point x="287" y="2048" type="line"/>
      <point x="843" y="826" type="line"/>
      <point x="706" y="0" type="line"/>
      <point x="1014" y="0" type="line"/>
      <point x="1152" y="826" type="line"/>
      <point x="1774" y="1619" type="line"/>
      <point x="1534" y="1738" type="line"/>
      <point x="1044" y="1097" type="line"/>
    </contour>
  </outline>
</glyph>
<glyph name="yhook" format="2">
  <advance width="1730"/>
  <unicode hex="01B4"/>
  <outline>
    <contour>
      <point x="1468" y="1295" type="line"/>
      <point x="1500" y="1352" type="line" smooth="yes"/>
      <point x="1598" y="1541"/>
      <point x="1662" y="1632"/>
      <point x="1780" y="1640" type="curve" smooth="yes"/>
      <point x="1829" y="1642"/>
      <point x="1879" y="1625"/>
      <point x="1926" y="1602" type="curve"/>
      <point x="2017" y="1822" type="line"/>
      <point x="1921" y="1866"/>
      <point x="1832" y="1897"/>
      <point x="1726" y="1887" type="curve" smooth="yes"/>
      <point x="1498" y="1874"/>
      <point x="1345" y="1671"/>
      <point x="1238" y="1463" type="curve" smooth="yes"/>
      <point x="1201" y="1387" type="line"/>
    </contour>
    <contour>
      <point x="453" y="-105" type="line" smooth="yes"/>
      <point x="369" y="-270"/>
      <point x="261" y="-328"/>
      <point x="84" y="-328" type="curve"/>
      <point x="30" y="-328"/>
      <point x="-1" y="-325"/>
      <point x="-17" y="-321" type="curve"/>
      <point x="-59" y="-578" type="line"/>
      <point x="-19" y="-590"/>
      <point x="68" y="-600"/>
      <point x="120" y="-600" type="curve" smooth="yes"/>
      <point x="375" y="-600"/>
      <point x="584" y="-438"/>
      <point x="694" y="-226" type="curve" smooth="yes"/>
      <point x="1468" y="1295" type="line"/>
      <point x="1201" y="1387" type="line"/>
      <point x="727" y="451" type="line"/>
      <point x="534" y="1536" type="line"/>
      <point x="215" y="1536" type="line"/>
      <point x="511" y="14" type="line"/>
    </contour>
  </outline>
</glyph>
<glyph name="Ezh" format="2">
  <advance width="1924"/>
  <unicode hex="01B7"/>
  <outline>
    <contour>
      <point x="19" y="132" type="line"/>
      <point x="-30" y="-279"/>
      <point x="279" y="-570"/>
      <point x="726" y="-570" type="curve" smooth="yes"/>
      <point x="1232" y="-570"/>
      <point x="1622" y="-201"/>
      <point x="1702" y="283" type="curve" smooth="yes"/>
      <point x="1776" y="737"/>
      <point x="1544" y="1088"/>
      <point x="1082" y="1115" type="curve"/>
      <point x="1086" y="1135" type="line"/>
      <point x="1907" y="1824" type="line"/>
      <point x="1942" y="2048" type="line"/>
      <point x="450" y="2048" type="line"/>
      <point x="406" y="1778" type="line"/>
      <point x="1490" y="1778" type="line"/>
      <point x="1486" y="1762" type="line"/>
      <point x="737" y="1136" type="line"/>
      <point x="696" y="893" type="line"/>
      <point x="871" y="893" type="line" smooth="yes"/>
      <point x="1236" y="893"/>
      <point x="1449" y="647"/>
      <point x="1390" y="290" type="curve" smooth="yes"/>
      <point x="1339" y="-34"/>
      <point x="1100" y="-298"/>
      <point x="777" y="-298" type="curve" smooth="yes"/>
      <point x="510" y="-298"/>
      <point x="306" y="-121"/>
      <point x="333" y="132" type="curve"/>
    </contour>
  </outline>
</glyph>
<glyph name="ezhtail" format="2">
  <advance width="1554"/>
  <unicode hex="01BA"/>
  <outline>
    <contour>
      <point x="327" y="1488" type="line"/>
      <point x="285" y="1230" type="line"/>
      <point x="1013" y="1230" type="line"/>
      <point x="484" y="864" type="line"/>
      <point x="452" y="669" type="line"/>
      <point x="694" y="669" type="line"/>
      <point x="1506" y="1298" type="line"/>
      <point x="1538" y="1488" type="line"/>
    </contour>
    <contour>
      <point x="296" y="-170" type="curve" smooth="yes"/>
      <point x="310" y="-73"/>
      <point x="385" y="-4"/>
      <point x="654" y="50" type="curve" smooth="yes"/>
      <point x="977" y="117"/>
      <point x="1228" y="226"/>
      <point x="1273" y="495" type="curve" smooth="yes"/>
      <point x="1313" y="735"/>
      <point x="1118" y="912"/>
      <point x="763" y="912" type="curve" smooth="yes"/>
      <point x="644" y="912" type="line"/>
      <point x="604" y="669" type="line"/>
      <point x="723" y="669" type="line" smooth="yes"/>
      <point x="902" y="669"/>
      <point x="974" y="607"/>
      <point x="955" y="507" type="curve" smooth="yes"/>
      <point x="937" y="392"/>
      <point x="857" y="348"/>
      <point x="614" y="299" type="curve" smooth="yes"/>
      <point x="237" y="226"/>
      <point x="24" y="96"/>
      <point x="-17" y="-151" type="curve" smooth="yes"/>
      <point x="-61" y="-415"/>
      <point x="143" y="-600"/>
      <point x="510" y="-600" type="curve" smooth="yes"/>
      <point x="917" y="-600"/>
      <point x="1180" y="-350"/>
      <point x="1222" y="-105" type="curve"/>
      <point x="909" y="-105" type="line"/>
      <point x="865" y="-297"/>
      <point x="692" y="-355"/>
      <point x="547" y="-355" type="curve" smooth="yes"/>
      <point x="368" y="-355"/>
      <point x="277" y="-282"/>
    </contour>
  </outline>
</glyph>
<glyph name="tonefive" format="2">
  <advance width="1628"/>
  <unicode hex="01BD"/>
  <outline>
    <contour>
      <point x="578" y="643" type="line"/>
      <point x="635" y="706"/>
      <point x="721" y="762"/>
      <point x="866" y="762" type="curve" smooth="yes"/>
      <point x="1054" y="762"/>
      <point x="1136" y="656"/>
      <point x="1111" y="501" type="curve" smooth="yes"/>
      <point x="1085" y="346"/>
      <point x="975" y="238"/>
      <point x="773" y="238" type="curve" smooth="yes"/>
      <point x="602" y="238"/>
      <point x="497" y="318"/>
      <point x="519" y="450" type="curve"/>
      <point x="201" y="428" type="line"/>
      <point x="148" y="119"/>
      <point x="445" y="-24"/>
      <point x="730" y="-24" type="curve" smooth="yes"/>
      <point x="1167" y="-24"/>
      <point x="1382" y="200"/>
      <point x="1430" y="491" type="curve" smooth="yes"/>
      <point x="1481" y="818"/>
      <point x="1315" y="1007"/>
      <point x="978" y="1001" type="curve" smooth="yes"/>
      <point x="865" y="998"/>
      <point x="737" y="960"/>
      <point x="672" y="922" type="curve"/>
      <point x="760" y="1221" type="line"/>
      <point x="1465" y="1221" type="line"/>
      <point x="1510" y="1488" type="line"/>
      <point x="536" y="1488" type="line"/>
      <point x="298" y="662" type="line"/>
    </contour>
    <contour>
      <point x="696" y="1488" type="line"/>
      <point x="273" y="1488" type="line"/>
      <point x="228" y="1221" type="line"/>
      <point x="651" y="1221" type="line"/>
    </contour>
  </outline>
</glyph>
<glyph name="glottalstopbarinv" format="2">
  <advance width="1554"/>
  <unicode hex="01BE"/>
  <outline>
    <contour>
      <point x="1017" y="402" type="curve" smooth="yes"/>
      <point x="999" y="294"/>
      <point x="883" y="217"/>
      <point x="704" y="217" type="curve" smooth="yes"/>
      <point x="557" y="217"/>
      <point x="405" y="279"/>
      <point x="430" y="470" type="curve"/>
      <point x="113" y="470" type="line"/>
      <point x="71" y="223"/>
      <point x="251" y="-28"/>
      <point x="662" y="-28" type="curve" smooth="yes"/>
      <point x="1025" y="-28"/>
      <point x="1296" y="159"/>
      <point x="1340" y="423" type="curve" smooth="yes"/>
      <point x="1411" y="848"/>
      <point x="891" y="742"/>
      <point x="949" y="1098" type="curve" smooth="yes"/>
      <point x="1075" y="1849" type="line"/>
      <point x="750" y="1849" type="line"/>
      <point x="624" y="1094" type="line" smooth="yes"/>
      <point x="544" y="614"/>
      <point x="1059" y="659"/>
    </contour>
    <contour>
      <point x="1282" y="1488" type="line"/>
      <point x="438" y="1488" type="line"/>
      <point x="398" y="1251" type="line"/>
      <point x="1242" y="1251" type="line"/>
    </contour>
  </outline>
</glyph>
<glyph name="wynn" format="2">
  <advance width="1817"/>
  <unicode hex="01BF"/>
  <outline>
    <contour>
      <point x="650" y="1204" type="line"/>
      <point x="672" y="1488" type="line"/>
      <point x="373" y="1488" type="line"/>
      <point x="33" y="-572" type="line"/>
      <point x="358" y="-572" type="line"/>
    </contour>
    <contour>
      <point x="529" y="870" type="line"/>
      <point x="598" y="1085"/>
      <point x="732" y="1252"/>
      <point x="964" y="1252" type="curve" smooth="yes"/>
      <point x="1217" y="1252"/>
      <point x="1281" y="1026"/>
      <point x="1239" y="758" type="curve" smooth="yes"/>
      <point x="1232" y="729" type="line" smooth="yes"/>
      <point x="1161" y="298"/>
      <point x="799" y="92"/>
      <point x="333" y="0" type="curve"/>
      <point x="302" y="-257" type="line"/>
      <point x="1013" y="-75"/>
      <point x="1463" y="154"/>
      <point x="1557" y="729" type="curve" smooth="yes"/>
      <point x="1564" y="758" type="line" smooth="yes"/>
      <point x="1637" y="1210"/>
      <point x="1481" y="1516"/>
      <point x="1099" y="1516" type="curve" smooth="yes"/>
      <point x="719" y="1516"/>
      <point x="492" y="1222"/>
      <point x="370" y="779" type="curve"/>
    </contour>
  </outline>
</glyph>
<glyph name="pipe" format="2">
  <advance width="780"/>
  <unicode hex="01C0"/>
  <outline>
    <contour>
      <point x="714" y="2036" type="line"/>
      <point x="485" y="2036" type="line"/>
      <point x="147" y="0" type="line"/>
      <point x="377" y="0" type="line"/>
    </contour>
  </outline>
</glyph>
<glyph name="Gbar" format="2">
  <advance width="2109"/>
  <unicode hex="01E4"/>
  <outline>
    <contour>
      <point x="2046" y="637" type="line"/>
      <point x="1115" y="637" type="line"/>
      <point x="1086" y="452" type="line"/>
      <point x="2016" y="452" type="line"/>
    </contour>
    <component base="G"/>
  </outline>
</glyph>
<glyph name="uni01F6" format="2">
  <advance width="3145"/>
  <unicode hex="01F6"/>
  <outline>
    <contour>
      <point x="2122" y="-28" type="curve" smooth="yes"/>
      <point x="2534" y="-28"/>
      <point x="2850" y="208"/>
      <point x="2926" y="662" type="curve" smooth="yes"/>
      <point x="3070" y="1522" type="line"/>
      <point x="2760" y="1522" type="line"/>
      <point x="2617" y="662" type="line" smooth="yes"/>
      <point x="2569" y="379"/>
      <point x="2412" y="246"/>
      <point x="2166" y="246" type="curve" smooth="yes"/>
      <point x="1921" y="246"/>
      <point x="1799" y="379"/>
      <point x="1847" y="662" type="curve" smooth="yes"/>
      <point x="2077" y="2048" type="line"/>
      <point x="1767" y="2048" type="line"/>
      <point x="1619" y="1158" type="line"/>
      <point x="598" y="1158" type="line"/>
      <point x="746" y="2048" type="line"/>
      <point x="437" y="2048" type="line"/>
      <point x="97" y="0" type="line"/>
      <point x="406" y="0" type="line"/>
      <point x="554" y="893" type="line"/>
      <point x="1575" y="893" type="line"/>
      <point x="1538" y="662" type="line" smooth="yes"/>
      <point x="1465" y="214"/>
      <point x="1702" y="-28"/>
    </contour>
  </outline>
</glyph>
<glyph name="uni01F7" format="2">
  <advance width="1886"/>
  <unicode hex="01F7"/>
  <outline>
    <contour>
      <point x="722" y="2004" type="line"/>
      <point x="386" y="2004" type="line"/>
      <point x="-38" y="-572" type="line"/>
      <point x="298" y="-572" type="line"/>
    </contour>
    <contour>
      <point x="183" y="-251" type="line"/>
      <point x="1001" y="-120"/>
      <point x="1652" y="438"/>
      <point x="1762" y="1108" type="curve" smooth="yes"/>
      <point x="1774" y="1180" type="line" smooth="yes"/>
      <point x="1867" y="1743"/>
      <point x="1592" y="2032"/>
      <point x="1084" y="2032" type="curve" smooth="yes"/>
      <point x="888" y="2032"/>
      <point x="720" y="1974"/>
      <point x="598" y="1883" type="curve"/>
      <point x="505" y="1338" type="line"/>
      <point x="595" y="1590"/>
      <point x="762" y="1761"/>
      <point x="1042" y="1761" type="curve" smooth="yes"/>
      <point x="1396" y="1761"/>
      <point x="1497" y="1554"/>
      <point x="1437" y="1184" type="curve" smooth="yes"/>
      <point x="1424" y="1108" type="line" smooth="yes"/>
      <point x="1348" y="654"/>
      <point x="944" y="151"/>
      <point x="226" y="18" type="curve"/>
    </contour>
  </outline>
</glyph>
<glyph name="uni021C" format="2">
  <advance width="1813"/>
  <unicode hex="021C"/>
  <outline>
    <contour>
      <point x="258" y="435" type="line"/>
      <point x="1051" y="622"/>
      <point x="1638" y="958"/>
      <point x="1722" y="1460" type="curve" smooth="yes"/>
      <point x="1782" y="1832"/>
      <point x="1529" y="2031"/>
      <point x="1084" y="2031" type="curve" smooth="yes"/>
      <point x="709" y="2031"/>
      <point x="351" y="1818"/>
      <point x="294" y="1470" type="curve"/>
      <point x="628" y="1470" type="line"/>
      <point x="658" y="1646"/>
      <point x="846" y="1760"/>
      <point x="1041" y="1760" type="curve" smooth="yes"/>
      <point x="1321" y="1760"/>
      <point x="1413" y="1618"/>
      <point x="1386" y="1444" type="curve" smooth="yes"/>
      <point x="1320" y="1057"/>
      <point x="982" y="877"/>
      <point x="296" y="682" type="curve"/>
    </contour>
    <contour>
      <point x="1088" y="832" type="line"/>
      <point x="1237" y="789"/>
      <point x="1288" y="691"/>
      <point x="1250" y="462" type="curve" smooth="yes"/>
      <point x="1176" y="12"/>
      <point x="780" y="-208"/>
      <point x="130" y="-333" type="curve"/>
      <point x="83" y="-600" type="line"/>
      <point x="874" y="-462"/>
      <point x="1481" y="-183"/>
      <point x="1587" y="457" type="curve" smooth="yes"/>
      <point x="1639" y="772"/>
      <point x="1503" y="960"/>
      <point x="1243" y="1020" type="curve"/>
    </contour>
  </outline>
</glyph>
<glyph name="uni021D" format="2">
  <advance width="1554"/>
  <unicode hex="021D"/>
  <outline>
    <contour>
      <point x="229" y="263" type="line"/>
      <point x="827" y="390"/>
      <point x="1333" y="668"/>
      <point x="1402" y="1080" type="curve" smooth="yes"/>
      <point x="1450" y="1364"/>
      <point x="1249" y="1516"/>
      <point x="890" y="1516" type="curve" smooth="yes"/>
      <point x="569" y="1516"/>
      <point x="275" y="1344"/>
      <point x="230" y="1067" type="curve"/>
      <point x="552" y="1067" type="line"/>
      <point x="570" y="1182"/>
      <point x="701" y="1265"/>
      <point x="857" y="1265" type="curve" smooth="yes"/>
      <point x="1044" y="1265"/>
      <point x="1091" y="1166"/>
      <point x="1075" y="1060" type="curve" smooth="yes"/>
      <point x="1025" y="751"/>
      <point x="649" y="598"/>
      <point x="270" y="500" type="curve"/>
    </contour>
    <contour>
      <point x="844" y="598" type="line"/>
      <point x="949" y="561"/>
      <point x="998" y="438"/>
      <point x="971" y="269" type="curve" smooth="yes"/>
      <point x="913" y="-90"/>
      <point x="607" y="-233"/>
      <point x="126" y="-353" type="curve"/>
      <point x="85" y="-600" type="line"/>
      <point x="779" y="-497"/>
      <point x="1210" y="-238"/>
      <point x="1294" y="259" type="curve" smooth="yes"/>
      <point x="1334" y="511"/>
      <point x="1227" y="689"/>
      <point x="1000" y="750" type="curve"/>
    </contour>
  </outline>
</glyph>
<glyph name="uni0220" format="2">
  <advance width="1814"/>
  <unicode hex="0220"/>
  <outline>
    <contour>
      <point x="1426" y="-572" type="line"/>
      <point x="1745" y="1375" type="line" smooth="yes"/>
      <point x="1817" y="1808"/>
      <point x="1518" y="2032"/>
      <point x="1136" y="2032" type="curve" smooth="yes"/>
      <point x="897" y="2032"/>
      <point x="683" y="1938"/>
      <point x="536" y="1830" type="curve"/>
      <point x="490" y="1556" type="line"/>
      <point x="661" y="1692"/>
      <point x="851" y="1768"/>
      <point x="1078" y="1768" type="curve" smooth="yes"/>
      <point x="1334" y="1768"/>
      <point x="1464" y="1642"/>
      <point x="1419" y="1375" type="curve" smooth="yes"/>
      <point x="1100" y="-572" type="line"/>
    </contour>
    <contour>
      <point x="698" y="2004" type="line"/>
      <point x="377" y="2004" type="line"/>
      <point x="45" y="0" type="line"/>
      <point x="366" y="0" type="line"/>
    </contour>
  </outline>
</glyph>
<glyph name="uni0221" format="2">
  <advance width="2022"/>
  <unicode hex="0221"/>
  <outline>
    <contour>
      <point x="1166" y="348" type="line"/>
      <point x="1090" y="-118" type="line"/>
      <point x="1054" y="-349"/>
      <point x="1140" y="-576"/>
      <point x="1487" y="-576" type="curve" smooth="yes"/>
      <point x="1762" y="-576"/>
      <point x="1948" y="-431"/>
      <point x="1985" y="-214" type="curve" smooth="yes"/>
      <point x="2023" y="9"/>
      <point x="1873" y="158"/>
      <point x="1618" y="158" type="curve" smooth="yes"/>
      <point x="1453" y="158"/>
      <point x="1274" y="94"/>
      <point x="1116" y="-30" type="curve"/>
      <point x="726" y="-349" type="line"/>
      <point x="860" y="-538" type="line"/>
      <point x="1306" y="-174" type="line" smooth="yes"/>
      <point x="1399" y="-101"/>
      <point x="1494" y="-54"/>
      <point x="1583" y="-66" type="curve" smooth="yes"/>
      <point x="1671" y="-76"/>
      <point x="1713" y="-133"/>
      <point x="1701" y="-211" type="curve" smooth="yes"/>
      <point x="1688" y="-294"/>
      <point x="1614" y="-355"/>
      <point x="1526" y="-355" type="curve" smooth="yes"/>
      <point x="1433" y="-355"/>
      <point x="1363" y="-291"/>
      <point x="1385" y="-165" type="curve"/>
      <point x="1466" y="348" type="line"/>
    </contour>
    <component base="d" xOffset="2"/>
  </outline>
</glyph>
<glyph name="uni0222" format="2">
  <advance width="1814"/>
  <unicode hex="0222"/>
  <outline>
    <contour>
      <point x="968" y="1232" type="line"/>
      <point x="533" y="1232"/>
      <point x="166" y="1026"/>
      <point x="98" y="610" type="curve" smooth="yes"/>
      <point x="25" y="186"/>
      <point x="324" y="-28"/>
      <point x="760" y="-28" type="curve" smooth="yes"/>
      <point x="791" y="-28" type="line" smooth="yes"/>
      <point x="1226" y="-28"/>
      <point x="1593" y="186"/>
      <point x="1665" y="614" type="curve" smooth="yes"/>
      <point x="1733" y="1026"/>
      <point x="1433" y="1232"/>
      <point x="999" y="1232" type="curve" smooth="yes"/>
    </contour>
    <contour>
      <point x="958" y="985" type="line"/>
      <point x="1222" y="985"/>
      <point x="1368" y="858"/>
      <point x="1328" y="614" type="curve" smooth="yes"/>
      <point x="1288" y="362"/>
      <point x="1101" y="245"/>
      <point x="837" y="245" type="curve" smooth="yes"/>
      <point x="806" y="245" type="line" smooth="yes"/>
      <point x="541" y="245"/>
      <point x="394" y="362"/>
      <point x="434" y="610" type="curve" smooth="yes"/>
      <point x="474" y="859"/>
      <point x="663" y="985"/>
      <point x="926" y="985" type="curve" smooth="yes"/>
    </contour>
    <contour>
      <point x="962" y="1260" type="line"/>
      <point x="723" y="1260"/>
      <point x="552" y="1319"/>
      <point x="587" y="1530" type="curve" smooth="yes"/>
      <point x="612" y="1680"/>
      <point x="699" y="1738"/>
      <point x="854" y="1776" type="curve"/>
      <point x="896" y="2032" type="line"/>
      <point x="578" y="2021"/>
      <point x="304" y="1866"/>
      <point x="250" y="1530" type="curve" smooth="yes"/>
      <point x="187" y="1150"/>
      <point x="511" y="1014"/>
      <point x="922" y="1014" type="curve" smooth="yes"/>
      <point x="972" y="1014" type="line" smooth="yes"/>
      <point x="1381" y="1014"/>
      <point x="1756" y="1150"/>
      <point x="1819" y="1530" type="curve" smooth="yes"/>
      <point x="1873" y="1866"/>
      <point x="1656" y="2021"/>
      <point x="1334" y="2032" type="curve"/>
      <point x="1292" y="1776" type="line"/>
      <point x="1439" y="1738"/>
      <point x="1507" y="1680"/>
      <point x="1482" y="1530" type="curve" smooth="yes"/>
      <point x="1447" y="1317"/>
      <point x="1251" y="1260"/>
      <point x="1013" y="1260" type="curve" smooth="yes"/>
    </contour>
  </outline>
</glyph>
<glyph name="uni0223" format="2">
  <advance width="1813"/>
  <unicode hex="0223"/>
  <outline>
    <contour>
      <point x="966" y="1222" type="line"/>
      <point x="530" y="1222"/>
      <point x="172" y="1023"/>
      <point x="102" y="607" type="curve" smooth="yes"/>
      <point x="30" y="184"/>
      <point x="324" y="-28"/>
      <point x="759" y="-28" type="curve" smooth="yes"/>
      <point x="790" y="-28" type="line" smooth="yes"/>
      <point x="1225" y="-28"/>
      <point x="1586" y="184"/>
      <point x="1658" y="610" type="curve" smooth="yes"/>
      <point x="1727" y="1023"/>
      <point x="1430" y="1222"/>
      <point x="997" y="1222" type="curve" smooth="yes"/>
    </contour>
    <contour>
      <point x="959" y="983" type="line"/>
      <point x="1223" y="983"/>
      <point x="1373" y="854"/>
      <point x="1333" y="610" type="curve" smooth="yes"/>
      <point x="1293" y="360"/>
      <point x="1097" y="231"/>
      <point x="833" y="231" type="curve" smooth="yes"/>
      <point x="802" y="231" type="line" smooth="yes"/>
      <point x="536" y="231"/>
      <point x="387" y="360"/>
      <point x="427" y="607" type="curve" smooth="yes"/>
      <point x="467" y="854"/>
      <point x="662" y="983"/>
      <point x="928" y="983" type="curve" smooth="yes"/>
    </contour>
    <contour>
      <point x="1010" y="1242" type="curve" smooth="yes"/>
      <point x="961" y="1242" type="line" smooth="yes"/>
      <point x="723" y="1242"/>
      <point x="545" y="1314"/>
      <point x="586" y="1570" type="curve" smooth="yes"/>
      <point x="618" y="1752"/>
      <point x="718" y="1840"/>
      <point x="873" y="1897" type="curve"/>
      <point x="915" y="2140" type="line"/>
      <point x="595" y="2131"/>
      <point x="322" y="1933"/>
      <point x="261" y="1572" type="curve" smooth="yes"/>
      <point x="192" y="1154"/>
      <point x="510" y="1007"/>
      <point x="920" y="1007" type="curve" smooth="yes"/>
      <point x="970" y="1007" type="line" smooth="yes"/>
      <point x="1380" y="1007"/>
      <point x="1747" y="1154"/>
      <point x="1816" y="1572" type="curve" smooth="yes"/>
      <point x="1877" y="1934"/>
      <point x="1666" y="2131"/>
      <point x="1354" y="2140" type="curve"/>
      <point x="1311" y="1897" type="line"/>
      <point x="1454" y="1840"/>
      <point x="1525" y="1752"/>
      <point x="1493" y="1570" type="curve" smooth="yes"/>
      <point x="1452" y="1314"/>
      <point x="1252" y="1242"/>
    </contour>
  </outline>
</glyph>
<glyph name="uni0224" format="2">
  <advance width="1799"/>
  <unicode hex="0224"/>
  <note>
!post:RemoveOverlap
</note>
  <outline>
    <contour>
      <point x="953" y="266" type="line"/>
      <point x="909" y="0" type="line"/>
      <point x="1070" y="0" type="line" smooth="yes"/>
      <point x="1219" y="0"/>
      <point x="1244" y="-114"/>
      <point x="1223" y="-234" type="curve"/>
      <point x="1210" y="-320" type="line"/>
      <point x="1478" y="-320" type="line"/>
      <point x="1502" y="-179" type="line"/>
      <point x="1546" y="90"/>
      <point x="1402" y="266"/>
      <point x="1114" y="266" type="curve" smooth="yes"/>
    </contour>
    <contour>
      <point x="953" y="266" type="line"/>
      <point x="463" y="266" type="line"/>
      <point x="1806" y="1842" type="line"/>
      <point x="1839" y="2048" type="line"/>
      <point x="375" y="2048" type="line"/>
      <point x="331" y="1782" type="line"/>
      <point x="1420" y="1782" type="line"/>
      <point x="80" y="206" type="line"/>
      <point x="44" y="0" type="line"/>
      <point x="909" y="0" type="line"/>
    </contour>
  </outline>
</glyph>
<glyph name="zhook" format="2">
  <advance width="1546"/>
  <unicode hex="0225"/>
  <outline>
    <contour>
      <point x="994" y="-338" type="line"/>
      <point x="1254" y="-338" type="line"/>
      <point x="1280" y="-186" type="line"/>
      <point x="1322" y="74"/>
      <point x="1186" y="259"/>
      <point x="892" y="259" type="curve" smooth="yes"/>
      <point x="467" y="259" type="line"/>
      <point x="1463" y="1328" type="line"/>
      <point x="1498" y="1536" type="line"/>
      <point x="295" y="1536" type="line"/>
      <point x="253" y="1277" type="line"/>
      <point x="1078" y="1277" type="line"/>
      <point x="78" y="217" type="line"/>
      <point x="43" y="0" type="line"/>
      <point x="850" y="0" type="line" smooth="yes"/>
      <point x="1016" y="0"/>
      <point x="1029" y="-126"/>
      <point x="1008" y="-253" type="curve" smooth="yes"/>
    </contour>
  </outline>
</glyph>
